%TF.GenerationSoftware,KiCad,Pcbnew,8.0.1*%
%TF.CreationDate,2024-06-13T11:44:25+10:00*%
%TF.ProjectId,CLD,434c442e-6b69-4636-9164-5f7063625858,rev?*%
%TF.SameCoordinates,Original*%
%TF.FileFunction,Copper,L2,Inr*%
%TF.FilePolarity,Positive*%
%FSLAX46Y46*%
G04 Gerber Fmt 4.6, Leading zero omitted, Abs format (unit mm)*
G04 Created by KiCad (PCBNEW 8.0.1) date 2024-06-13 11:44:25*
%MOMM*%
%LPD*%
G01*
G04 APERTURE LIST*
%TA.AperFunction,ComponentPad*%
%ADD10R,1.700000X1.700000*%
%TD*%
%TA.AperFunction,ComponentPad*%
%ADD11O,1.700000X1.700000*%
%TD*%
%TA.AperFunction,ComponentPad*%
%ADD12O,2.100000X1.000000*%
%TD*%
%TA.AperFunction,ComponentPad*%
%ADD13O,1.800000X1.000000*%
%TD*%
%TA.AperFunction,ViaPad*%
%ADD14C,0.600000*%
%TD*%
%TA.AperFunction,ViaPad*%
%ADD15C,4.500000*%
%TD*%
G04 APERTURE END LIST*
D10*
%TO.N,+5V*%
%TO.C,J3*%
X91008333Y-51512500D03*
D11*
%TO.N,GND*%
X93548333Y-51512500D03*
%TD*%
D12*
%TO.N,GND*%
%TO.C,J6*%
X77250000Y-49070000D03*
D13*
X73070000Y-49070000D03*
D12*
X77250000Y-57710000D03*
D13*
X73070000Y-57710000D03*
%TD*%
D10*
%TO.N,/Can_H*%
%TO.C,J4*%
X85525000Y-51500000D03*
D11*
%TO.N,/Can_L*%
X82985000Y-51500000D03*
%TD*%
D10*
%TO.N,VDD*%
%TO.C,J1*%
X109624999Y-51475000D03*
D11*
%TO.N,Net-(J1-Pin_2)*%
X107084999Y-51475000D03*
%TD*%
D10*
%TO.N,VDD*%
%TO.C,J2*%
X99091666Y-51537500D03*
D11*
%TO.N,GND*%
X101631666Y-51537500D03*
%TD*%
D14*
%TO.N,GND*%
X72000000Y-53750000D03*
X75250000Y-53500000D03*
X72000000Y-50750000D03*
X73750000Y-52000000D03*
X72000000Y-71250000D03*
X72250000Y-62500000D03*
X72250000Y-66250000D03*
X103000000Y-81000000D03*
%TO.N,+3.3V*%
X89150000Y-76050000D03*
X88650000Y-80000000D03*
X97000000Y-76200000D03*
%TO.N,GND*%
X104250000Y-60000000D03*
X85875000Y-77000000D03*
X101250000Y-73500000D03*
X106500000Y-73000000D03*
D15*
X116250000Y-45500000D03*
D14*
X115500000Y-60000000D03*
X85250000Y-74500000D03*
X88125000Y-77000000D03*
X95000000Y-58250000D03*
X117000000Y-62500000D03*
X117000000Y-58000000D03*
X103000000Y-74500000D03*
X80250000Y-65500000D03*
X93093324Y-72530330D03*
X98000000Y-73750000D03*
X74000000Y-69000000D03*
X104250000Y-61500000D03*
D15*
X73250000Y-45500000D03*
D14*
X106500000Y-68750000D03*
X82922785Y-79828966D03*
X96000000Y-48500000D03*
X117250000Y-48500000D03*
X102750000Y-60000000D03*
X106500000Y-71500000D03*
X107575000Y-76000000D03*
X89000000Y-67500000D03*
X87500000Y-66000000D03*
X102500000Y-63500000D03*
X118000000Y-68750000D03*
X80000000Y-48500000D03*
X91250000Y-71750000D03*
X83750000Y-78000000D03*
X96500000Y-56250000D03*
X97406676Y-71469670D03*
X77000000Y-69500000D03*
X89500000Y-57500000D03*
X101500000Y-62500000D03*
X89125000Y-77000000D03*
X88000000Y-48500000D03*
X74500000Y-49000000D03*
X90750000Y-57500000D03*
X86875000Y-77000000D03*
X92000000Y-67000000D03*
X91500000Y-81750000D03*
X110500000Y-81000000D03*
X87125000Y-80000000D03*
X106500000Y-70250000D03*
X92000000Y-65000000D03*
X96750000Y-80750000D03*
X93000000Y-66000000D03*
X103500000Y-63500000D03*
X110500000Y-45000000D03*
X76000000Y-58000000D03*
X118000000Y-74750000D03*
X88625000Y-74000000D03*
X82250000Y-74000000D03*
X110750000Y-75750000D03*
D15*
X116250000Y-80000000D03*
D14*
X76500000Y-44000000D03*
X78500000Y-49000000D03*
X80250000Y-64250000D03*
X100500000Y-61500000D03*
X88125000Y-75000000D03*
X95750000Y-57500000D03*
X104500000Y-73750000D03*
X92201992Y-74951992D03*
X80000000Y-58000000D03*
X89500000Y-65000000D03*
X85000000Y-72000000D03*
X76250000Y-64250000D03*
X84250000Y-58000000D03*
X82000000Y-45000000D03*
X74250000Y-76250000D03*
X104500000Y-72500000D03*
X76500000Y-82000000D03*
X78250000Y-74750000D03*
X108750000Y-75750000D03*
X103500000Y-60750000D03*
D15*
X73250000Y-80000000D03*
D14*
X77000000Y-74000000D03*
X99000000Y-56250000D03*
%TO.N,+3.3V*%
X92438128Y-60021313D03*
X86048008Y-70951992D03*
X94500000Y-68750000D03*
X84250000Y-66250000D03*
X99050001Y-60137500D03*
X85000000Y-64500000D03*
X86750000Y-61750000D03*
X89500000Y-71500000D03*
%TO.N,VDD*%
X100949999Y-57862500D03*
%TO.N,+5V*%
X73624011Y-72646169D03*
X77825000Y-50990000D03*
X77825000Y-55790000D03*
%TO.N,/Can_L*%
X79551076Y-78301076D03*
X79250000Y-71000000D03*
%TO.N,/Can_H*%
X80449102Y-77403050D03*
X80333363Y-72185337D03*
%TO.N,Net-(L1-Pad1)*%
X106000000Y-58750000D03*
X111750000Y-66750000D03*
X109750000Y-65500000D03*
X106000000Y-61250000D03*
X115750000Y-66750000D03*
X113750000Y-66750000D03*
X109750000Y-66750000D03*
X113750000Y-65500000D03*
X115750000Y-65500000D03*
X106000000Y-60000000D03*
X111750000Y-65500000D03*
%TD*%
%TA.AperFunction,Conductor*%
%TO.N,GND*%
G36*
X117004418Y-43000816D02*
G01*
X117204561Y-43015130D01*
X117222063Y-43017647D01*
X117413797Y-43059355D01*
X117430755Y-43064334D01*
X117614609Y-43132909D01*
X117630701Y-43140259D01*
X117802904Y-43234288D01*
X117817784Y-43243849D01*
X117974867Y-43361441D01*
X117988237Y-43373027D01*
X118126972Y-43511762D01*
X118138558Y-43525132D01*
X118256146Y-43682210D01*
X118265711Y-43697095D01*
X118359740Y-43869298D01*
X118367090Y-43885390D01*
X118435662Y-44069236D01*
X118440646Y-44086212D01*
X118482351Y-44277931D01*
X118484869Y-44295442D01*
X118499184Y-44495580D01*
X118499500Y-44504427D01*
X118499500Y-80995572D01*
X118499184Y-81004419D01*
X118484869Y-81204557D01*
X118482351Y-81222068D01*
X118440646Y-81413787D01*
X118435662Y-81430763D01*
X118367090Y-81614609D01*
X118359740Y-81630701D01*
X118265711Y-81802904D01*
X118256146Y-81817789D01*
X118138558Y-81974867D01*
X118126972Y-81988237D01*
X117988237Y-82126972D01*
X117974867Y-82138558D01*
X117817789Y-82256146D01*
X117802904Y-82265711D01*
X117630701Y-82359740D01*
X117614609Y-82367090D01*
X117430763Y-82435662D01*
X117413787Y-82440646D01*
X117222068Y-82482351D01*
X117204557Y-82484869D01*
X117023779Y-82497799D01*
X117004417Y-82499184D01*
X116995572Y-82499500D01*
X72504428Y-82499500D01*
X72495582Y-82499184D01*
X72473622Y-82497613D01*
X72295442Y-82484869D01*
X72277931Y-82482351D01*
X72086212Y-82440646D01*
X72069236Y-82435662D01*
X71885390Y-82367090D01*
X71869298Y-82359740D01*
X71697095Y-82265711D01*
X71682210Y-82256146D01*
X71525132Y-82138558D01*
X71511762Y-82126972D01*
X71373027Y-81988237D01*
X71361441Y-81974867D01*
X71243849Y-81817784D01*
X71234288Y-81802904D01*
X71140259Y-81630701D01*
X71132909Y-81614609D01*
X71072091Y-81451551D01*
X71064334Y-81430755D01*
X71059355Y-81413797D01*
X71017647Y-81222063D01*
X71015130Y-81204556D01*
X71000816Y-81004418D01*
X71000500Y-80995572D01*
X71000500Y-80000003D01*
X87844435Y-80000003D01*
X87864630Y-80179249D01*
X87864631Y-80179254D01*
X87924211Y-80349523D01*
X88020184Y-80502262D01*
X88147738Y-80629816D01*
X88300478Y-80725789D01*
X88470745Y-80785368D01*
X88470750Y-80785369D01*
X88649996Y-80805565D01*
X88650000Y-80805565D01*
X88650004Y-80805565D01*
X88829249Y-80785369D01*
X88829252Y-80785368D01*
X88829255Y-80785368D01*
X88999522Y-80725789D01*
X89152262Y-80629816D01*
X89279816Y-80502262D01*
X89375789Y-80349522D01*
X89435368Y-80179255D01*
X89455565Y-80000000D01*
X89435368Y-79820745D01*
X89375789Y-79650478D01*
X89279816Y-79497738D01*
X89152262Y-79370184D01*
X88999523Y-79274211D01*
X88829254Y-79214631D01*
X88829249Y-79214630D01*
X88650004Y-79194435D01*
X88649996Y-79194435D01*
X88470750Y-79214630D01*
X88470745Y-79214631D01*
X88300476Y-79274211D01*
X88147737Y-79370184D01*
X88020184Y-79497737D01*
X87924211Y-79650476D01*
X87864631Y-79820745D01*
X87864630Y-79820750D01*
X87844435Y-79999996D01*
X87844435Y-80000003D01*
X71000500Y-80000003D01*
X71000500Y-78301079D01*
X78745511Y-78301079D01*
X78765706Y-78480325D01*
X78765707Y-78480330D01*
X78825287Y-78650599D01*
X78921260Y-78803338D01*
X79048814Y-78930892D01*
X79201554Y-79026865D01*
X79371821Y-79086444D01*
X79371826Y-79086445D01*
X79551072Y-79106641D01*
X79551076Y-79106641D01*
X79551080Y-79106641D01*
X79730325Y-79086445D01*
X79730328Y-79086444D01*
X79730331Y-79086444D01*
X79900598Y-79026865D01*
X80053338Y-78930892D01*
X80180892Y-78803338D01*
X80276865Y-78650598D01*
X80336444Y-78480331D01*
X80354932Y-78316242D01*
X80381998Y-78251829D01*
X80439593Y-78212274D01*
X80464267Y-78206906D01*
X80504551Y-78202367D01*
X80628351Y-78188419D01*
X80628354Y-78188418D01*
X80628357Y-78188418D01*
X80798624Y-78128839D01*
X80951364Y-78032866D01*
X81078918Y-77905312D01*
X81174891Y-77752572D01*
X81234470Y-77582305D01*
X81241974Y-77515706D01*
X81254667Y-77403053D01*
X81254667Y-77403046D01*
X81234471Y-77223800D01*
X81234470Y-77223795D01*
X81174890Y-77053526D01*
X81094627Y-76925789D01*
X81078918Y-76900788D01*
X80951364Y-76773234D01*
X80798625Y-76677261D01*
X80628356Y-76617681D01*
X80628351Y-76617680D01*
X80449106Y-76597485D01*
X80449098Y-76597485D01*
X80269852Y-76617680D01*
X80269847Y-76617681D01*
X80099578Y-76677261D01*
X79946839Y-76773234D01*
X79819286Y-76900787D01*
X79723313Y-77053526D01*
X79663733Y-77223795D01*
X79663732Y-77223799D01*
X79645245Y-77387883D01*
X79618178Y-77452297D01*
X79560584Y-77491852D01*
X79535909Y-77497219D01*
X79371825Y-77515706D01*
X79371821Y-77515707D01*
X79201552Y-77575287D01*
X79048813Y-77671260D01*
X78921260Y-77798813D01*
X78825287Y-77951552D01*
X78765707Y-78121821D01*
X78765706Y-78121826D01*
X78745511Y-78301072D01*
X78745511Y-78301079D01*
X71000500Y-78301079D01*
X71000500Y-76050003D01*
X88344435Y-76050003D01*
X88364630Y-76229249D01*
X88364631Y-76229254D01*
X88424211Y-76399523D01*
X88518462Y-76549522D01*
X88520184Y-76552262D01*
X88647738Y-76679816D01*
X88683461Y-76702262D01*
X88796411Y-76773234D01*
X88800478Y-76775789D01*
X88954878Y-76829816D01*
X88970745Y-76835368D01*
X88970750Y-76835369D01*
X89149996Y-76855565D01*
X89150000Y-76855565D01*
X89150004Y-76855565D01*
X89329249Y-76835369D01*
X89329252Y-76835368D01*
X89329255Y-76835368D01*
X89499522Y-76775789D01*
X89652262Y-76679816D01*
X89779816Y-76552262D01*
X89875789Y-76399522D01*
X89935368Y-76229255D01*
X89938664Y-76200003D01*
X96194435Y-76200003D01*
X96214630Y-76379249D01*
X96214631Y-76379254D01*
X96274211Y-76549523D01*
X96354475Y-76677261D01*
X96370184Y-76702262D01*
X96497738Y-76829816D01*
X96588080Y-76886582D01*
X96610687Y-76900787D01*
X96650478Y-76925789D01*
X96820745Y-76985368D01*
X96820750Y-76985369D01*
X96999996Y-77005565D01*
X97000000Y-77005565D01*
X97000004Y-77005565D01*
X97179249Y-76985369D01*
X97179252Y-76985368D01*
X97179255Y-76985368D01*
X97349522Y-76925789D01*
X97502262Y-76829816D01*
X97629816Y-76702262D01*
X97725789Y-76549522D01*
X97785368Y-76379255D01*
X97802269Y-76229254D01*
X97805565Y-76200003D01*
X97805565Y-76199996D01*
X97785369Y-76020750D01*
X97785368Y-76020745D01*
X97732882Y-75870750D01*
X97725789Y-75850478D01*
X97629816Y-75697738D01*
X97502262Y-75570184D01*
X97349523Y-75474211D01*
X97179254Y-75414631D01*
X97179249Y-75414630D01*
X97000004Y-75394435D01*
X96999996Y-75394435D01*
X96820750Y-75414630D01*
X96820745Y-75414631D01*
X96650476Y-75474211D01*
X96497737Y-75570184D01*
X96370184Y-75697737D01*
X96274211Y-75850476D01*
X96214631Y-76020745D01*
X96214630Y-76020750D01*
X96194435Y-76199996D01*
X96194435Y-76200003D01*
X89938664Y-76200003D01*
X89955565Y-76050003D01*
X89955565Y-76049996D01*
X89935369Y-75870750D01*
X89935368Y-75870745D01*
X89875788Y-75700476D01*
X89836582Y-75638080D01*
X89779816Y-75547738D01*
X89652262Y-75420184D01*
X89643426Y-75414632D01*
X89499523Y-75324211D01*
X89329254Y-75264631D01*
X89329249Y-75264630D01*
X89150004Y-75244435D01*
X89149996Y-75244435D01*
X88970750Y-75264630D01*
X88970745Y-75264631D01*
X88800476Y-75324211D01*
X88647737Y-75420184D01*
X88520184Y-75547737D01*
X88424211Y-75700476D01*
X88364631Y-75870745D01*
X88364630Y-75870750D01*
X88344435Y-76049996D01*
X88344435Y-76050003D01*
X71000500Y-76050003D01*
X71000500Y-72646172D01*
X72818446Y-72646172D01*
X72838641Y-72825418D01*
X72838642Y-72825423D01*
X72898222Y-72995692D01*
X72994195Y-73148431D01*
X73121749Y-73275985D01*
X73274489Y-73371958D01*
X73444756Y-73431537D01*
X73444761Y-73431538D01*
X73624007Y-73451734D01*
X73624011Y-73451734D01*
X73624015Y-73451734D01*
X73803260Y-73431538D01*
X73803263Y-73431537D01*
X73803266Y-73431537D01*
X73973533Y-73371958D01*
X74126273Y-73275985D01*
X74253827Y-73148431D01*
X74349800Y-72995691D01*
X74409379Y-72825424D01*
X74409380Y-72825418D01*
X74429576Y-72646172D01*
X74429576Y-72646165D01*
X74409380Y-72466919D01*
X74409379Y-72466914D01*
X74373575Y-72364592D01*
X74349800Y-72296647D01*
X74253827Y-72143907D01*
X74126273Y-72016353D01*
X74103847Y-72002262D01*
X73973534Y-71920380D01*
X73803265Y-71860800D01*
X73803260Y-71860799D01*
X73624015Y-71840604D01*
X73624007Y-71840604D01*
X73444761Y-71860799D01*
X73444756Y-71860800D01*
X73274487Y-71920380D01*
X73121748Y-72016353D01*
X72994195Y-72143906D01*
X72898222Y-72296645D01*
X72838642Y-72466914D01*
X72838641Y-72466919D01*
X72818446Y-72646165D01*
X72818446Y-72646172D01*
X71000500Y-72646172D01*
X71000500Y-71000003D01*
X78444435Y-71000003D01*
X78464630Y-71179249D01*
X78464631Y-71179254D01*
X78524211Y-71349523D01*
X78593345Y-71459548D01*
X78620184Y-71502262D01*
X78747738Y-71629816D01*
X78900478Y-71725789D01*
X78991266Y-71757557D01*
X79070745Y-71785368D01*
X79070750Y-71785369D01*
X79249996Y-71805565D01*
X79250000Y-71805565D01*
X79250004Y-71805565D01*
X79436175Y-71784589D01*
X79436500Y-71787478D01*
X79493239Y-71790955D01*
X79549596Y-71832254D01*
X79574679Y-71897466D01*
X79568134Y-71948528D01*
X79547994Y-72006082D01*
X79547993Y-72006087D01*
X79527798Y-72185333D01*
X79527798Y-72185340D01*
X79547993Y-72364586D01*
X79547994Y-72364591D01*
X79607574Y-72534860D01*
X79703547Y-72687599D01*
X79831101Y-72815153D01*
X79983841Y-72911126D01*
X80154108Y-72970705D01*
X80154113Y-72970706D01*
X80333359Y-72990902D01*
X80333363Y-72990902D01*
X80333367Y-72990902D01*
X80512612Y-72970706D01*
X80512615Y-72970705D01*
X80512618Y-72970705D01*
X80682885Y-72911126D01*
X80835625Y-72815153D01*
X80963179Y-72687599D01*
X81059152Y-72534859D01*
X81118731Y-72364592D01*
X81125382Y-72305565D01*
X81138928Y-72185340D01*
X81138928Y-72185333D01*
X81118732Y-72006087D01*
X81118731Y-72006082D01*
X81098592Y-71948528D01*
X81059152Y-71835815D01*
X81056914Y-71832254D01*
X80997289Y-71737361D01*
X80963179Y-71683075D01*
X80835625Y-71555521D01*
X80747269Y-71500003D01*
X80682886Y-71459548D01*
X80512617Y-71399968D01*
X80512612Y-71399967D01*
X80333367Y-71379772D01*
X80333359Y-71379772D01*
X80147188Y-71400748D01*
X80146865Y-71397882D01*
X80089992Y-71394333D01*
X80033681Y-71352971D01*
X80008671Y-71287730D01*
X80015228Y-71236810D01*
X80035368Y-71179255D01*
X80035369Y-71179249D01*
X80055565Y-71000003D01*
X80055565Y-70999996D01*
X80050157Y-70951995D01*
X85242443Y-70951995D01*
X85262638Y-71131241D01*
X85262639Y-71131246D01*
X85322219Y-71301515D01*
X85371392Y-71379772D01*
X85418192Y-71454254D01*
X85545746Y-71581808D01*
X85698486Y-71677781D01*
X85835682Y-71725788D01*
X85868753Y-71737360D01*
X85868758Y-71737361D01*
X86048004Y-71757557D01*
X86048008Y-71757557D01*
X86048012Y-71757557D01*
X86227257Y-71737361D01*
X86227260Y-71737360D01*
X86227263Y-71737360D01*
X86397530Y-71677781D01*
X86550270Y-71581808D01*
X86632075Y-71500003D01*
X88694435Y-71500003D01*
X88714630Y-71679249D01*
X88714631Y-71679254D01*
X88774211Y-71849523D01*
X88870184Y-72002262D01*
X88997738Y-72129816D01*
X89150478Y-72225789D01*
X89320745Y-72285368D01*
X89320750Y-72285369D01*
X89499996Y-72305565D01*
X89500000Y-72305565D01*
X89500004Y-72305565D01*
X89679249Y-72285369D01*
X89679252Y-72285368D01*
X89679255Y-72285368D01*
X89849522Y-72225789D01*
X90002262Y-72129816D01*
X90129816Y-72002262D01*
X90225789Y-71849522D01*
X90285368Y-71679255D01*
X90285534Y-71677781D01*
X90305565Y-71500003D01*
X90305565Y-71499996D01*
X90285369Y-71320750D01*
X90285368Y-71320745D01*
X90278639Y-71301514D01*
X90225789Y-71150478D01*
X90213705Y-71131247D01*
X90131237Y-71000000D01*
X90129816Y-70997738D01*
X90002262Y-70870184D01*
X89849523Y-70774211D01*
X89679254Y-70714631D01*
X89679249Y-70714630D01*
X89500004Y-70694435D01*
X89499996Y-70694435D01*
X89320750Y-70714630D01*
X89320745Y-70714631D01*
X89150476Y-70774211D01*
X88997737Y-70870184D01*
X88870184Y-70997737D01*
X88774211Y-71150476D01*
X88714631Y-71320745D01*
X88714630Y-71320750D01*
X88694435Y-71499996D01*
X88694435Y-71500003D01*
X86632075Y-71500003D01*
X86677824Y-71454254D01*
X86773797Y-71301514D01*
X86833376Y-71131247D01*
X86848164Y-71000000D01*
X86853573Y-70951995D01*
X86853573Y-70951988D01*
X86833377Y-70772742D01*
X86833376Y-70772737D01*
X86773796Y-70602468D01*
X86677823Y-70449729D01*
X86550270Y-70322176D01*
X86397531Y-70226203D01*
X86227262Y-70166623D01*
X86227257Y-70166622D01*
X86048012Y-70146427D01*
X86048004Y-70146427D01*
X85868758Y-70166622D01*
X85868753Y-70166623D01*
X85698484Y-70226203D01*
X85545745Y-70322176D01*
X85418192Y-70449729D01*
X85322219Y-70602468D01*
X85262639Y-70772737D01*
X85262638Y-70772742D01*
X85242443Y-70951988D01*
X85242443Y-70951995D01*
X80050157Y-70951995D01*
X80035369Y-70820750D01*
X80035368Y-70820745D01*
X79975788Y-70650476D01*
X79879815Y-70497737D01*
X79752262Y-70370184D01*
X79599523Y-70274211D01*
X79429254Y-70214631D01*
X79429249Y-70214630D01*
X79250004Y-70194435D01*
X79249996Y-70194435D01*
X79070750Y-70214630D01*
X79070745Y-70214631D01*
X78900476Y-70274211D01*
X78747737Y-70370184D01*
X78620184Y-70497737D01*
X78524211Y-70650476D01*
X78464631Y-70820745D01*
X78464630Y-70820750D01*
X78444435Y-70999996D01*
X78444435Y-71000003D01*
X71000500Y-71000003D01*
X71000500Y-68750003D01*
X93694435Y-68750003D01*
X93714630Y-68929249D01*
X93714631Y-68929254D01*
X93774211Y-69099523D01*
X93870184Y-69252262D01*
X93997738Y-69379816D01*
X94150478Y-69475789D01*
X94320745Y-69535368D01*
X94320750Y-69535369D01*
X94499996Y-69555565D01*
X94500000Y-69555565D01*
X94500004Y-69555565D01*
X94679249Y-69535369D01*
X94679252Y-69535368D01*
X94679255Y-69535368D01*
X94849522Y-69475789D01*
X95002262Y-69379816D01*
X95129816Y-69252262D01*
X95225789Y-69099522D01*
X95285368Y-68929255D01*
X95305565Y-68750000D01*
X95285368Y-68570745D01*
X95225789Y-68400478D01*
X95129816Y-68247738D01*
X95002262Y-68120184D01*
X94849523Y-68024211D01*
X94679254Y-67964631D01*
X94679249Y-67964630D01*
X94500004Y-67944435D01*
X94499996Y-67944435D01*
X94320750Y-67964630D01*
X94320745Y-67964631D01*
X94150476Y-68024211D01*
X93997737Y-68120184D01*
X93870184Y-68247737D01*
X93774211Y-68400476D01*
X93714631Y-68570745D01*
X93714630Y-68570750D01*
X93694435Y-68749996D01*
X93694435Y-68750003D01*
X71000500Y-68750003D01*
X71000500Y-66250003D01*
X83444435Y-66250003D01*
X83464630Y-66429249D01*
X83464631Y-66429254D01*
X83524211Y-66599523D01*
X83618760Y-66749996D01*
X83620184Y-66752262D01*
X83747738Y-66879816D01*
X83900478Y-66975789D01*
X84070745Y-67035368D01*
X84070750Y-67035369D01*
X84249996Y-67055565D01*
X84250000Y-67055565D01*
X84250004Y-67055565D01*
X84429249Y-67035369D01*
X84429252Y-67035368D01*
X84429255Y-67035368D01*
X84599522Y-66975789D01*
X84752262Y-66879816D01*
X84879816Y-66752262D01*
X84881235Y-66750003D01*
X108944435Y-66750003D01*
X108964630Y-66929249D01*
X108964631Y-66929254D01*
X109024211Y-67099523D01*
X109120184Y-67252262D01*
X109247738Y-67379816D01*
X109400478Y-67475789D01*
X109570745Y-67535368D01*
X109570750Y-67535369D01*
X109749996Y-67555565D01*
X109750000Y-67555565D01*
X109750004Y-67555565D01*
X109929249Y-67535369D01*
X109929252Y-67535368D01*
X109929255Y-67535368D01*
X110099522Y-67475789D01*
X110252262Y-67379816D01*
X110379816Y-67252262D01*
X110475789Y-67099522D01*
X110535368Y-66929255D01*
X110535369Y-66929249D01*
X110555565Y-66750003D01*
X110944435Y-66750003D01*
X110964630Y-66929249D01*
X110964631Y-66929254D01*
X111024211Y-67099523D01*
X111120184Y-67252262D01*
X111247738Y-67379816D01*
X111400478Y-67475789D01*
X111570745Y-67535368D01*
X111570750Y-67535369D01*
X111749996Y-67555565D01*
X111750000Y-67555565D01*
X111750004Y-67555565D01*
X111929249Y-67535369D01*
X111929252Y-67535368D01*
X111929255Y-67535368D01*
X112099522Y-67475789D01*
X112252262Y-67379816D01*
X112379816Y-67252262D01*
X112475789Y-67099522D01*
X112535368Y-66929255D01*
X112535369Y-66929249D01*
X112555565Y-66750003D01*
X112944435Y-66750003D01*
X112964630Y-66929249D01*
X112964631Y-66929254D01*
X113024211Y-67099523D01*
X113120184Y-67252262D01*
X113247738Y-67379816D01*
X113400478Y-67475789D01*
X113570745Y-67535368D01*
X113570750Y-67535369D01*
X113749996Y-67555565D01*
X113750000Y-67555565D01*
X113750004Y-67555565D01*
X113929249Y-67535369D01*
X113929252Y-67535368D01*
X113929255Y-67535368D01*
X114099522Y-67475789D01*
X114252262Y-67379816D01*
X114379816Y-67252262D01*
X114475789Y-67099522D01*
X114535368Y-66929255D01*
X114535369Y-66929249D01*
X114555565Y-66750003D01*
X114944435Y-66750003D01*
X114964630Y-66929249D01*
X114964631Y-66929254D01*
X115024211Y-67099523D01*
X115120184Y-67252262D01*
X115247738Y-67379816D01*
X115400478Y-67475789D01*
X115570745Y-67535368D01*
X115570750Y-67535369D01*
X115749996Y-67555565D01*
X115750000Y-67555565D01*
X115750004Y-67555565D01*
X115929249Y-67535369D01*
X115929252Y-67535368D01*
X115929255Y-67535368D01*
X116099522Y-67475789D01*
X116252262Y-67379816D01*
X116379816Y-67252262D01*
X116475789Y-67099522D01*
X116535368Y-66929255D01*
X116535369Y-66929249D01*
X116555565Y-66750003D01*
X116555565Y-66749996D01*
X116535369Y-66570750D01*
X116535368Y-66570745D01*
X116475789Y-66400478D01*
X116379816Y-66247738D01*
X116344759Y-66212681D01*
X116311274Y-66151358D01*
X116316258Y-66081666D01*
X116344759Y-66037319D01*
X116379816Y-66002262D01*
X116475789Y-65849522D01*
X116535368Y-65679255D01*
X116555565Y-65500000D01*
X116549304Y-65444435D01*
X116535369Y-65320750D01*
X116535368Y-65320745D01*
X116475788Y-65150476D01*
X116436582Y-65088080D01*
X116379816Y-64997738D01*
X116252262Y-64870184D01*
X116219379Y-64849522D01*
X116099523Y-64774211D01*
X115929254Y-64714631D01*
X115929249Y-64714630D01*
X115750004Y-64694435D01*
X115749996Y-64694435D01*
X115570750Y-64714630D01*
X115570745Y-64714631D01*
X115400476Y-64774211D01*
X115247737Y-64870184D01*
X115120184Y-64997737D01*
X115024211Y-65150476D01*
X114964631Y-65320745D01*
X114964630Y-65320750D01*
X114944435Y-65499996D01*
X114944435Y-65500003D01*
X114964630Y-65679249D01*
X114964631Y-65679254D01*
X115024211Y-65849523D01*
X115120184Y-66002262D01*
X115155241Y-66037319D01*
X115188726Y-66098642D01*
X115183742Y-66168334D01*
X115155241Y-66212681D01*
X115120184Y-66247737D01*
X115024211Y-66400476D01*
X114964631Y-66570745D01*
X114964630Y-66570750D01*
X114944435Y-66749996D01*
X114944435Y-66750003D01*
X114555565Y-66750003D01*
X114555565Y-66749996D01*
X114535369Y-66570750D01*
X114535368Y-66570745D01*
X114475789Y-66400478D01*
X114379816Y-66247738D01*
X114344759Y-66212681D01*
X114311274Y-66151358D01*
X114316258Y-66081666D01*
X114344759Y-66037319D01*
X114379816Y-66002262D01*
X114475789Y-65849522D01*
X114535368Y-65679255D01*
X114555565Y-65500000D01*
X114549304Y-65444435D01*
X114535369Y-65320750D01*
X114535368Y-65320745D01*
X114475788Y-65150476D01*
X114436582Y-65088080D01*
X114379816Y-64997738D01*
X114252262Y-64870184D01*
X114219379Y-64849522D01*
X114099523Y-64774211D01*
X113929254Y-64714631D01*
X113929249Y-64714630D01*
X113750004Y-64694435D01*
X113749996Y-64694435D01*
X113570750Y-64714630D01*
X113570745Y-64714631D01*
X113400476Y-64774211D01*
X113247737Y-64870184D01*
X113120184Y-64997737D01*
X113024211Y-65150476D01*
X112964631Y-65320745D01*
X112964630Y-65320750D01*
X112944435Y-65499996D01*
X112944435Y-65500003D01*
X112964630Y-65679249D01*
X112964631Y-65679254D01*
X113024211Y-65849523D01*
X113120184Y-66002262D01*
X113155241Y-66037319D01*
X113188726Y-66098642D01*
X113183742Y-66168334D01*
X113155241Y-66212681D01*
X113120184Y-66247737D01*
X113024211Y-66400476D01*
X112964631Y-66570745D01*
X112964630Y-66570750D01*
X112944435Y-66749996D01*
X112944435Y-66750003D01*
X112555565Y-66750003D01*
X112555565Y-66749996D01*
X112535369Y-66570750D01*
X112535368Y-66570745D01*
X112475789Y-66400478D01*
X112379816Y-66247738D01*
X112344759Y-66212681D01*
X112311274Y-66151358D01*
X112316258Y-66081666D01*
X112344759Y-66037319D01*
X112379816Y-66002262D01*
X112475789Y-65849522D01*
X112535368Y-65679255D01*
X112555565Y-65500000D01*
X112549304Y-65444435D01*
X112535369Y-65320750D01*
X112535368Y-65320745D01*
X112475788Y-65150476D01*
X112436582Y-65088080D01*
X112379816Y-64997738D01*
X112252262Y-64870184D01*
X112219379Y-64849522D01*
X112099523Y-64774211D01*
X111929254Y-64714631D01*
X111929249Y-64714630D01*
X111750004Y-64694435D01*
X111749996Y-64694435D01*
X111570750Y-64714630D01*
X111570745Y-64714631D01*
X111400476Y-64774211D01*
X111247737Y-64870184D01*
X111120184Y-64997737D01*
X111024211Y-65150476D01*
X110964631Y-65320745D01*
X110964630Y-65320750D01*
X110944435Y-65499996D01*
X110944435Y-65500003D01*
X110964630Y-65679249D01*
X110964631Y-65679254D01*
X111024211Y-65849523D01*
X111120184Y-66002262D01*
X111155241Y-66037319D01*
X111188726Y-66098642D01*
X111183742Y-66168334D01*
X111155241Y-66212681D01*
X111120184Y-66247737D01*
X111024211Y-66400476D01*
X110964631Y-66570745D01*
X110964630Y-66570750D01*
X110944435Y-66749996D01*
X110944435Y-66750003D01*
X110555565Y-66750003D01*
X110555565Y-66749996D01*
X110535369Y-66570750D01*
X110535368Y-66570745D01*
X110475789Y-66400478D01*
X110379816Y-66247738D01*
X110344759Y-66212681D01*
X110311274Y-66151358D01*
X110316258Y-66081666D01*
X110344759Y-66037319D01*
X110379816Y-66002262D01*
X110475789Y-65849522D01*
X110535368Y-65679255D01*
X110555565Y-65500000D01*
X110549304Y-65444435D01*
X110535369Y-65320750D01*
X110535368Y-65320745D01*
X110475788Y-65150476D01*
X110436582Y-65088080D01*
X110379816Y-64997738D01*
X110252262Y-64870184D01*
X110219379Y-64849522D01*
X110099523Y-64774211D01*
X109929254Y-64714631D01*
X109929249Y-64714630D01*
X109750004Y-64694435D01*
X109749996Y-64694435D01*
X109570750Y-64714630D01*
X109570745Y-64714631D01*
X109400476Y-64774211D01*
X109247737Y-64870184D01*
X109120184Y-64997737D01*
X109024211Y-65150476D01*
X108964631Y-65320745D01*
X108964630Y-65320750D01*
X108944435Y-65499996D01*
X108944435Y-65500003D01*
X108964630Y-65679249D01*
X108964631Y-65679254D01*
X109024211Y-65849523D01*
X109120184Y-66002262D01*
X109155241Y-66037319D01*
X109188726Y-66098642D01*
X109183742Y-66168334D01*
X109155241Y-66212681D01*
X109120184Y-66247737D01*
X109024211Y-66400476D01*
X108964631Y-66570745D01*
X108964630Y-66570750D01*
X108944435Y-66749996D01*
X108944435Y-66750003D01*
X84881235Y-66750003D01*
X84975789Y-66599522D01*
X85035368Y-66429255D01*
X85035369Y-66429249D01*
X85055565Y-66250003D01*
X85055565Y-66249996D01*
X85035369Y-66070750D01*
X85035368Y-66070745D01*
X84975788Y-65900476D01*
X84879815Y-65747737D01*
X84752262Y-65620184D01*
X84599523Y-65524211D01*
X84429254Y-65464631D01*
X84429249Y-65464630D01*
X84250004Y-65444435D01*
X84249996Y-65444435D01*
X84070750Y-65464630D01*
X84070745Y-65464631D01*
X83900476Y-65524211D01*
X83747737Y-65620184D01*
X83620184Y-65747737D01*
X83524211Y-65900476D01*
X83464631Y-66070745D01*
X83464630Y-66070750D01*
X83444435Y-66249996D01*
X83444435Y-66250003D01*
X71000500Y-66250003D01*
X71000500Y-64500003D01*
X84194435Y-64500003D01*
X84214630Y-64679249D01*
X84214631Y-64679254D01*
X84274211Y-64849523D01*
X84367341Y-64997737D01*
X84370184Y-65002262D01*
X84497738Y-65129816D01*
X84650478Y-65225789D01*
X84820745Y-65285368D01*
X84820750Y-65285369D01*
X84999996Y-65305565D01*
X85000000Y-65305565D01*
X85000004Y-65305565D01*
X85179249Y-65285369D01*
X85179252Y-65285368D01*
X85179255Y-65285368D01*
X85349522Y-65225789D01*
X85502262Y-65129816D01*
X85629816Y-65002262D01*
X85725789Y-64849522D01*
X85785368Y-64679255D01*
X85805565Y-64500000D01*
X85785368Y-64320745D01*
X85725789Y-64150478D01*
X85629816Y-63997738D01*
X85502262Y-63870184D01*
X85349523Y-63774211D01*
X85179254Y-63714631D01*
X85179249Y-63714630D01*
X85000004Y-63694435D01*
X84999996Y-63694435D01*
X84820750Y-63714630D01*
X84820745Y-63714631D01*
X84650476Y-63774211D01*
X84497737Y-63870184D01*
X84370184Y-63997737D01*
X84274211Y-64150476D01*
X84214631Y-64320745D01*
X84214630Y-64320750D01*
X84194435Y-64499996D01*
X84194435Y-64500003D01*
X71000500Y-64500003D01*
X71000500Y-61750003D01*
X85944435Y-61750003D01*
X85964630Y-61929249D01*
X85964631Y-61929254D01*
X86024211Y-62099523D01*
X86120184Y-62252262D01*
X86247738Y-62379816D01*
X86400478Y-62475789D01*
X86570745Y-62535368D01*
X86570750Y-62535369D01*
X86749996Y-62555565D01*
X86750000Y-62555565D01*
X86750004Y-62555565D01*
X86929249Y-62535369D01*
X86929252Y-62535368D01*
X86929255Y-62535368D01*
X87099522Y-62475789D01*
X87252262Y-62379816D01*
X87379816Y-62252262D01*
X87475789Y-62099522D01*
X87535368Y-61929255D01*
X87535369Y-61929249D01*
X87555565Y-61750003D01*
X87555565Y-61749996D01*
X87535369Y-61570750D01*
X87535368Y-61570745D01*
X87475789Y-61400478D01*
X87381239Y-61250003D01*
X105194435Y-61250003D01*
X105214630Y-61429249D01*
X105214631Y-61429254D01*
X105274211Y-61599523D01*
X105368760Y-61749996D01*
X105370184Y-61752262D01*
X105497738Y-61879816D01*
X105650478Y-61975789D01*
X105820745Y-62035368D01*
X105820750Y-62035369D01*
X105999996Y-62055565D01*
X106000000Y-62055565D01*
X106000004Y-62055565D01*
X106179249Y-62035369D01*
X106179252Y-62035368D01*
X106179255Y-62035368D01*
X106349522Y-61975789D01*
X106502262Y-61879816D01*
X106629816Y-61752262D01*
X106725789Y-61599522D01*
X106785368Y-61429255D01*
X106785369Y-61429249D01*
X106805565Y-61250003D01*
X106805565Y-61249996D01*
X106785369Y-61070750D01*
X106785368Y-61070745D01*
X106733624Y-60922869D01*
X106725789Y-60900478D01*
X106629816Y-60747738D01*
X106594759Y-60712681D01*
X106561274Y-60651358D01*
X106566258Y-60581666D01*
X106594759Y-60537319D01*
X106608503Y-60523575D01*
X106629816Y-60502262D01*
X106725789Y-60349522D01*
X106785368Y-60179255D01*
X106785369Y-60179249D01*
X106805565Y-60000003D01*
X106805565Y-59999996D01*
X106785369Y-59820750D01*
X106785368Y-59820745D01*
X106773902Y-59787976D01*
X106725789Y-59650478D01*
X106716212Y-59635237D01*
X106629815Y-59497737D01*
X106594759Y-59462681D01*
X106561274Y-59401358D01*
X106566258Y-59331666D01*
X106594759Y-59287319D01*
X106629816Y-59252262D01*
X106725789Y-59099522D01*
X106785368Y-58929255D01*
X106805565Y-58750000D01*
X106796333Y-58668065D01*
X106785369Y-58570750D01*
X106785368Y-58570745D01*
X106725789Y-58400478D01*
X106629816Y-58247738D01*
X106502262Y-58120184D01*
X106349523Y-58024211D01*
X106179254Y-57964631D01*
X106179249Y-57964630D01*
X106000004Y-57944435D01*
X105999996Y-57944435D01*
X105820750Y-57964630D01*
X105820745Y-57964631D01*
X105650476Y-58024211D01*
X105497737Y-58120184D01*
X105370184Y-58247737D01*
X105274211Y-58400476D01*
X105214631Y-58570745D01*
X105214630Y-58570750D01*
X105194435Y-58749996D01*
X105194435Y-58750003D01*
X105214630Y-58929249D01*
X105214631Y-58929254D01*
X105274211Y-59099523D01*
X105370184Y-59252262D01*
X105405241Y-59287319D01*
X105438726Y-59348642D01*
X105433742Y-59418334D01*
X105405241Y-59462681D01*
X105370184Y-59497737D01*
X105274211Y-59650476D01*
X105214631Y-59820745D01*
X105214630Y-59820750D01*
X105194435Y-59999996D01*
X105194435Y-60000003D01*
X105214630Y-60179249D01*
X105214631Y-60179254D01*
X105274211Y-60349523D01*
X105370184Y-60502262D01*
X105405241Y-60537319D01*
X105438726Y-60598642D01*
X105433742Y-60668334D01*
X105405241Y-60712681D01*
X105370184Y-60747737D01*
X105274211Y-60900476D01*
X105214631Y-61070745D01*
X105214630Y-61070750D01*
X105194435Y-61249996D01*
X105194435Y-61250003D01*
X87381239Y-61250003D01*
X87379816Y-61247738D01*
X87252262Y-61120184D01*
X87099523Y-61024211D01*
X86929254Y-60964631D01*
X86929249Y-60964630D01*
X86750004Y-60944435D01*
X86749996Y-60944435D01*
X86570750Y-60964630D01*
X86570745Y-60964631D01*
X86400476Y-61024211D01*
X86247737Y-61120184D01*
X86120184Y-61247737D01*
X86024211Y-61400476D01*
X85964631Y-61570745D01*
X85964630Y-61570750D01*
X85944435Y-61749996D01*
X85944435Y-61750003D01*
X71000500Y-61750003D01*
X71000500Y-60021316D01*
X91632563Y-60021316D01*
X91652758Y-60200562D01*
X91652759Y-60200567D01*
X91712339Y-60370836D01*
X91785344Y-60487022D01*
X91808312Y-60523575D01*
X91935866Y-60651129D01*
X92088606Y-60747102D01*
X92258873Y-60806681D01*
X92258878Y-60806682D01*
X92438124Y-60826878D01*
X92438128Y-60826878D01*
X92438132Y-60826878D01*
X92617377Y-60806682D01*
X92617380Y-60806681D01*
X92617383Y-60806681D01*
X92787650Y-60747102D01*
X92940390Y-60651129D01*
X93067944Y-60523575D01*
X93163917Y-60370835D01*
X93223496Y-60200568D01*
X93223497Y-60200562D01*
X93230602Y-60137503D01*
X98244436Y-60137503D01*
X98264631Y-60316749D01*
X98264632Y-60316754D01*
X98324212Y-60487023D01*
X98410909Y-60625000D01*
X98420185Y-60639762D01*
X98547739Y-60767316D01*
X98700479Y-60863289D01*
X98806759Y-60900478D01*
X98870746Y-60922868D01*
X98870751Y-60922869D01*
X99049997Y-60943065D01*
X99050001Y-60943065D01*
X99050005Y-60943065D01*
X99229250Y-60922869D01*
X99229253Y-60922868D01*
X99229256Y-60922868D01*
X99399523Y-60863289D01*
X99552263Y-60767316D01*
X99679817Y-60639762D01*
X99775790Y-60487022D01*
X99835369Y-60316755D01*
X99848461Y-60200562D01*
X99855566Y-60137503D01*
X99855566Y-60137496D01*
X99835370Y-59958250D01*
X99835369Y-59958245D01*
X99787257Y-59820750D01*
X99775790Y-59787978D01*
X99679817Y-59635238D01*
X99552263Y-59507684D01*
X99536434Y-59497738D01*
X99399524Y-59411711D01*
X99229255Y-59352131D01*
X99229250Y-59352130D01*
X99050005Y-59331935D01*
X99049997Y-59331935D01*
X98870751Y-59352130D01*
X98870746Y-59352131D01*
X98700477Y-59411711D01*
X98547738Y-59507684D01*
X98420185Y-59635237D01*
X98324212Y-59787976D01*
X98264632Y-59958245D01*
X98264631Y-59958250D01*
X98244436Y-60137496D01*
X98244436Y-60137503D01*
X93230602Y-60137503D01*
X93243693Y-60021316D01*
X93243693Y-60021309D01*
X93223497Y-59842063D01*
X93223496Y-59842058D01*
X93216038Y-59820745D01*
X93163917Y-59671791D01*
X93067944Y-59519051D01*
X92940390Y-59391497D01*
X92877741Y-59352132D01*
X92787651Y-59295524D01*
X92617382Y-59235944D01*
X92617377Y-59235943D01*
X92438132Y-59215748D01*
X92438124Y-59215748D01*
X92258878Y-59235943D01*
X92258873Y-59235944D01*
X92088604Y-59295524D01*
X91935865Y-59391497D01*
X91808312Y-59519050D01*
X91712339Y-59671789D01*
X91652759Y-59842058D01*
X91652758Y-59842063D01*
X91632563Y-60021309D01*
X91632563Y-60021316D01*
X71000500Y-60021316D01*
X71000500Y-57862503D01*
X100144434Y-57862503D01*
X100164629Y-58041749D01*
X100164630Y-58041754D01*
X100224210Y-58212023D01*
X100320183Y-58364762D01*
X100447737Y-58492316D01*
X100600477Y-58588289D01*
X100770744Y-58647868D01*
X100770749Y-58647869D01*
X100949995Y-58668065D01*
X100949999Y-58668065D01*
X100950003Y-58668065D01*
X101129248Y-58647869D01*
X101129251Y-58647868D01*
X101129254Y-58647868D01*
X101299521Y-58588289D01*
X101452261Y-58492316D01*
X101579815Y-58364762D01*
X101675788Y-58212022D01*
X101735367Y-58041755D01*
X101744057Y-57964630D01*
X101755564Y-57862503D01*
X101755564Y-57862496D01*
X101735368Y-57683250D01*
X101735367Y-57683245D01*
X101675787Y-57512976D01*
X101579814Y-57360237D01*
X101452261Y-57232684D01*
X101299522Y-57136711D01*
X101129253Y-57077131D01*
X101129248Y-57077130D01*
X100950003Y-57056935D01*
X100949995Y-57056935D01*
X100770749Y-57077130D01*
X100770744Y-57077131D01*
X100600475Y-57136711D01*
X100447736Y-57232684D01*
X100320183Y-57360237D01*
X100224210Y-57512976D01*
X100164630Y-57683245D01*
X100164629Y-57683250D01*
X100144434Y-57862496D01*
X100144434Y-57862503D01*
X71000500Y-57862503D01*
X71000500Y-56347854D01*
X76234600Y-56347854D01*
X76269724Y-56478937D01*
X76337578Y-56596463D01*
X76433537Y-56692422D01*
X76551063Y-56760276D01*
X76682146Y-56795400D01*
X76682149Y-56795400D01*
X76817851Y-56795400D01*
X76817854Y-56795400D01*
X76948937Y-56760276D01*
X77066463Y-56692422D01*
X77162422Y-56596463D01*
X77215574Y-56504400D01*
X77266140Y-56456187D01*
X77334747Y-56442963D01*
X77388933Y-56461409D01*
X77475475Y-56515788D01*
X77645745Y-56575368D01*
X77645750Y-56575369D01*
X77824996Y-56595565D01*
X77825000Y-56595565D01*
X77825004Y-56595565D01*
X78004249Y-56575369D01*
X78004252Y-56575368D01*
X78004255Y-56575368D01*
X78174522Y-56515789D01*
X78327262Y-56419816D01*
X78454816Y-56292262D01*
X78550789Y-56139522D01*
X78610368Y-55969255D01*
X78610369Y-55969249D01*
X78630565Y-55790003D01*
X78630565Y-55789996D01*
X78610369Y-55610750D01*
X78610368Y-55610745D01*
X78550788Y-55440476D01*
X78454815Y-55287737D01*
X78327262Y-55160184D01*
X78174523Y-55064211D01*
X78004254Y-55004631D01*
X78004249Y-55004630D01*
X77825004Y-54984435D01*
X77824996Y-54984435D01*
X77645750Y-55004630D01*
X77645745Y-55004631D01*
X77475476Y-55064211D01*
X77322737Y-55160184D01*
X77195184Y-55287737D01*
X77099211Y-55440476D01*
X77039631Y-55610745D01*
X77039631Y-55610749D01*
X77032437Y-55674592D01*
X77005370Y-55739005D01*
X76947774Y-55778560D01*
X76877937Y-55780697D01*
X76877314Y-55780532D01*
X76817854Y-55764600D01*
X76682146Y-55764600D01*
X76551063Y-55799724D01*
X76551061Y-55799724D01*
X76551061Y-55799725D01*
X76433537Y-55867578D01*
X76433534Y-55867580D01*
X76337580Y-55963534D01*
X76337578Y-55963537D01*
X76269724Y-56081063D01*
X76234600Y-56212146D01*
X76234600Y-56347854D01*
X71000500Y-56347854D01*
X71000500Y-50567854D01*
X76234600Y-50567854D01*
X76269724Y-50698937D01*
X76337578Y-50816463D01*
X76433537Y-50912422D01*
X76551063Y-50980276D01*
X76682146Y-51015400D01*
X76682149Y-51015400D01*
X76817852Y-51015400D01*
X76817854Y-51015400D01*
X76877125Y-50999518D01*
X76946971Y-51001179D01*
X77004834Y-51040341D01*
X77032340Y-51104569D01*
X77032437Y-51105407D01*
X77039631Y-51169251D01*
X77039631Y-51169254D01*
X77099211Y-51339523D01*
X77195184Y-51492262D01*
X77322738Y-51619816D01*
X77475478Y-51715789D01*
X77645745Y-51775368D01*
X77645750Y-51775369D01*
X77824996Y-51795565D01*
X77825000Y-51795565D01*
X77825004Y-51795565D01*
X78004249Y-51775369D01*
X78004252Y-51775368D01*
X78004255Y-51775368D01*
X78174522Y-51715789D01*
X78327262Y-51619816D01*
X78447078Y-51500000D01*
X81629341Y-51500000D01*
X81649936Y-51735403D01*
X81649938Y-51735413D01*
X81711094Y-51963655D01*
X81711096Y-51963659D01*
X81711097Y-51963663D01*
X81783841Y-52119663D01*
X81810965Y-52177830D01*
X81810967Y-52177834D01*
X81919281Y-52332521D01*
X81946505Y-52371401D01*
X82113599Y-52538495D01*
X82208332Y-52604828D01*
X82307165Y-52674032D01*
X82307167Y-52674033D01*
X82307170Y-52674035D01*
X82521337Y-52773903D01*
X82749592Y-52835063D01*
X82926034Y-52850500D01*
X82984999Y-52855659D01*
X82985000Y-52855659D01*
X82985001Y-52855659D01*
X83043966Y-52850500D01*
X83220408Y-52835063D01*
X83448663Y-52773903D01*
X83662830Y-52674035D01*
X83856401Y-52538495D01*
X83978329Y-52416566D01*
X84039648Y-52383084D01*
X84109340Y-52388068D01*
X84165274Y-52429939D01*
X84182189Y-52460917D01*
X84231202Y-52592328D01*
X84231206Y-52592335D01*
X84317452Y-52707544D01*
X84317455Y-52707547D01*
X84432664Y-52793793D01*
X84432671Y-52793797D01*
X84567517Y-52844091D01*
X84567516Y-52844091D01*
X84574444Y-52844835D01*
X84627127Y-52850500D01*
X86422872Y-52850499D01*
X86482483Y-52844091D01*
X86617331Y-52793796D01*
X86732546Y-52707546D01*
X86818796Y-52592331D01*
X86869091Y-52457483D01*
X86874156Y-52410370D01*
X89657833Y-52410370D01*
X89657834Y-52410376D01*
X89664241Y-52469983D01*
X89714535Y-52604828D01*
X89714539Y-52604835D01*
X89800785Y-52720044D01*
X89800788Y-52720047D01*
X89915997Y-52806293D01*
X89916004Y-52806297D01*
X90050850Y-52856591D01*
X90050849Y-52856591D01*
X90057777Y-52857335D01*
X90110460Y-52863000D01*
X91906205Y-52862999D01*
X91965816Y-52856591D01*
X92100664Y-52806296D01*
X92215879Y-52720046D01*
X92302129Y-52604831D01*
X92352424Y-52469983D01*
X92356145Y-52435370D01*
X97741166Y-52435370D01*
X97741167Y-52435376D01*
X97747574Y-52494983D01*
X97797868Y-52629828D01*
X97797872Y-52629835D01*
X97884118Y-52745044D01*
X97884121Y-52745047D01*
X97999330Y-52831293D01*
X97999337Y-52831297D01*
X98134183Y-52881591D01*
X98134182Y-52881591D01*
X98141110Y-52882335D01*
X98193793Y-52888000D01*
X99989538Y-52887999D01*
X100049149Y-52881591D01*
X100183997Y-52831296D01*
X100299212Y-52745046D01*
X100385462Y-52629831D01*
X100435757Y-52494983D01*
X100442166Y-52435373D01*
X100442165Y-51475000D01*
X105729340Y-51475000D01*
X105749935Y-51710403D01*
X105749937Y-51710413D01*
X105811093Y-51938655D01*
X105811095Y-51938659D01*
X105811096Y-51938663D01*
X105895498Y-52119663D01*
X105910964Y-52152830D01*
X105910966Y-52152834D01*
X106019280Y-52307521D01*
X106046504Y-52346401D01*
X106213598Y-52513495D01*
X106310383Y-52581265D01*
X106407164Y-52649032D01*
X106407166Y-52649033D01*
X106407169Y-52649035D01*
X106621336Y-52748903D01*
X106849591Y-52810063D01*
X107026033Y-52825500D01*
X107084998Y-52830659D01*
X107084999Y-52830659D01*
X107085000Y-52830659D01*
X107143965Y-52825500D01*
X107320407Y-52810063D01*
X107548662Y-52748903D01*
X107762829Y-52649035D01*
X107956400Y-52513495D01*
X108078328Y-52391566D01*
X108139647Y-52358084D01*
X108209339Y-52363068D01*
X108265273Y-52404939D01*
X108282188Y-52435917D01*
X108331201Y-52567328D01*
X108331205Y-52567335D01*
X108417451Y-52682544D01*
X108417454Y-52682547D01*
X108532663Y-52768793D01*
X108532670Y-52768797D01*
X108667516Y-52819091D01*
X108667515Y-52819091D01*
X108674443Y-52819835D01*
X108727126Y-52825500D01*
X110522871Y-52825499D01*
X110582482Y-52819091D01*
X110717330Y-52768796D01*
X110832545Y-52682546D01*
X110918795Y-52567331D01*
X110969090Y-52432483D01*
X110975499Y-52372873D01*
X110975498Y-50577128D01*
X110969090Y-50517517D01*
X110967809Y-50514083D01*
X110918796Y-50382671D01*
X110918792Y-50382664D01*
X110832546Y-50267455D01*
X110832543Y-50267452D01*
X110717334Y-50181206D01*
X110717327Y-50181202D01*
X110582481Y-50130908D01*
X110582482Y-50130908D01*
X110522882Y-50124501D01*
X110522880Y-50124500D01*
X110522872Y-50124500D01*
X110522863Y-50124500D01*
X108727128Y-50124500D01*
X108727122Y-50124501D01*
X108667515Y-50130908D01*
X108532670Y-50181202D01*
X108532663Y-50181206D01*
X108417454Y-50267452D01*
X108417451Y-50267455D01*
X108331205Y-50382664D01*
X108331202Y-50382669D01*
X108282188Y-50514083D01*
X108240316Y-50570016D01*
X108174852Y-50594433D01*
X108106579Y-50579581D01*
X108078325Y-50558430D01*
X107956401Y-50436506D01*
X107956394Y-50436501D01*
X107950177Y-50432148D01*
X107879517Y-50382671D01*
X107762833Y-50300967D01*
X107762829Y-50300965D01*
X107708427Y-50275597D01*
X107548662Y-50201097D01*
X107548658Y-50201096D01*
X107548654Y-50201094D01*
X107320412Y-50139938D01*
X107320402Y-50139936D01*
X107085000Y-50119341D01*
X107084998Y-50119341D01*
X106849595Y-50139936D01*
X106849585Y-50139938D01*
X106621343Y-50201094D01*
X106621334Y-50201098D01*
X106407170Y-50300964D01*
X106407168Y-50300965D01*
X106213596Y-50436505D01*
X106046504Y-50603597D01*
X105910964Y-50797169D01*
X105910963Y-50797171D01*
X105811097Y-51011335D01*
X105811093Y-51011344D01*
X105749937Y-51239586D01*
X105749935Y-51239596D01*
X105729340Y-51474999D01*
X105729340Y-51475000D01*
X100442165Y-51475000D01*
X100442165Y-50639628D01*
X100435757Y-50580017D01*
X100435594Y-50579581D01*
X100385463Y-50445171D01*
X100385459Y-50445164D01*
X100299213Y-50329955D01*
X100299210Y-50329952D01*
X100184001Y-50243706D01*
X100183994Y-50243702D01*
X100049148Y-50193408D01*
X100049149Y-50193408D01*
X99989549Y-50187001D01*
X99989547Y-50187000D01*
X99989539Y-50187000D01*
X99989530Y-50187000D01*
X98193795Y-50187000D01*
X98193789Y-50187001D01*
X98134182Y-50193408D01*
X97999337Y-50243702D01*
X97999330Y-50243706D01*
X97884121Y-50329952D01*
X97884118Y-50329955D01*
X97797872Y-50445164D01*
X97797868Y-50445171D01*
X97747574Y-50580017D01*
X97741167Y-50639616D01*
X97741167Y-50639623D01*
X97741166Y-50639635D01*
X97741166Y-52435370D01*
X92356145Y-52435370D01*
X92358833Y-52410373D01*
X92358832Y-50614628D01*
X92352424Y-50555017D01*
X92347761Y-50542516D01*
X92302130Y-50420171D01*
X92302126Y-50420164D01*
X92215880Y-50304955D01*
X92215877Y-50304952D01*
X92100668Y-50218706D01*
X92100661Y-50218702D01*
X91965815Y-50168408D01*
X91965816Y-50168408D01*
X91906216Y-50162001D01*
X91906214Y-50162000D01*
X91906206Y-50162000D01*
X91906197Y-50162000D01*
X90110462Y-50162000D01*
X90110456Y-50162001D01*
X90050849Y-50168408D01*
X89916004Y-50218702D01*
X89915997Y-50218706D01*
X89800788Y-50304952D01*
X89800785Y-50304955D01*
X89714539Y-50420164D01*
X89714535Y-50420171D01*
X89664241Y-50555017D01*
X89658913Y-50604581D01*
X89657834Y-50614623D01*
X89657833Y-50614635D01*
X89657833Y-52410370D01*
X86874156Y-52410370D01*
X86875500Y-52397873D01*
X86875499Y-50602128D01*
X86869091Y-50542517D01*
X86867810Y-50539083D01*
X86818797Y-50407671D01*
X86818793Y-50407664D01*
X86732547Y-50292455D01*
X86732544Y-50292452D01*
X86617335Y-50206206D01*
X86617328Y-50206202D01*
X86482482Y-50155908D01*
X86482483Y-50155908D01*
X86422883Y-50149501D01*
X86422881Y-50149500D01*
X86422873Y-50149500D01*
X86422864Y-50149500D01*
X84627129Y-50149500D01*
X84627123Y-50149501D01*
X84567516Y-50155908D01*
X84432671Y-50206202D01*
X84432664Y-50206206D01*
X84317455Y-50292452D01*
X84317452Y-50292455D01*
X84231206Y-50407664D01*
X84231203Y-50407669D01*
X84182189Y-50539083D01*
X84140317Y-50595016D01*
X84074853Y-50619433D01*
X84006580Y-50604581D01*
X83978326Y-50583430D01*
X83856402Y-50461506D01*
X83856395Y-50461501D01*
X83662834Y-50325967D01*
X83662830Y-50325965D01*
X83617772Y-50304954D01*
X83448663Y-50226097D01*
X83448659Y-50226096D01*
X83448655Y-50226094D01*
X83220413Y-50164938D01*
X83220403Y-50164936D01*
X82985001Y-50144341D01*
X82984999Y-50144341D01*
X82749596Y-50164936D01*
X82749586Y-50164938D01*
X82521344Y-50226094D01*
X82521335Y-50226098D01*
X82307171Y-50325964D01*
X82307169Y-50325965D01*
X82113597Y-50461505D01*
X81946505Y-50628597D01*
X81810965Y-50822169D01*
X81810964Y-50822171D01*
X81711098Y-51036335D01*
X81711094Y-51036344D01*
X81649938Y-51264586D01*
X81649936Y-51264596D01*
X81629341Y-51499999D01*
X81629341Y-51500000D01*
X78447078Y-51500000D01*
X78454816Y-51492262D01*
X78550789Y-51339522D01*
X78610368Y-51169255D01*
X78610368Y-51169252D01*
X78610369Y-51169249D01*
X78630565Y-50990003D01*
X78630565Y-50989996D01*
X78610369Y-50810750D01*
X78610368Y-50810745D01*
X78571245Y-50698938D01*
X78550789Y-50640478D01*
X78550259Y-50639635D01*
X78473527Y-50517516D01*
X78454816Y-50487738D01*
X78327262Y-50360184D01*
X78174523Y-50264211D01*
X78004254Y-50204631D01*
X78004249Y-50204630D01*
X77825004Y-50184435D01*
X77824996Y-50184435D01*
X77645750Y-50204630D01*
X77645745Y-50204631D01*
X77475476Y-50264211D01*
X77388932Y-50318591D01*
X77321695Y-50337591D01*
X77254860Y-50317223D01*
X77215573Y-50275597D01*
X77210872Y-50267454D01*
X77162422Y-50183537D01*
X77066463Y-50087578D01*
X76948937Y-50019724D01*
X76817854Y-49984600D01*
X76682146Y-49984600D01*
X76551063Y-50019724D01*
X76551061Y-50019724D01*
X76551061Y-50019725D01*
X76433537Y-50087578D01*
X76433534Y-50087580D01*
X76337580Y-50183534D01*
X76337578Y-50183537D01*
X76269781Y-50300965D01*
X76269724Y-50301063D01*
X76234600Y-50432146D01*
X76234600Y-50567854D01*
X71000500Y-50567854D01*
X71000500Y-44504427D01*
X71000816Y-44495581D01*
X71015130Y-44295443D01*
X71015131Y-44295442D01*
X71015130Y-44295436D01*
X71017646Y-44277938D01*
X71059356Y-44086199D01*
X71064333Y-44069248D01*
X71132911Y-43885385D01*
X71140259Y-43869298D01*
X71202815Y-43754734D01*
X71234291Y-43697089D01*
X71243845Y-43682221D01*
X71361448Y-43525123D01*
X71373020Y-43511769D01*
X71511769Y-43373020D01*
X71525123Y-43361448D01*
X71682221Y-43243845D01*
X71697089Y-43234291D01*
X71869298Y-43140258D01*
X71885385Y-43132911D01*
X72069248Y-43064333D01*
X72086199Y-43059356D01*
X72277938Y-43017646D01*
X72295436Y-43015130D01*
X72495582Y-43000816D01*
X72504428Y-43000500D01*
X72565892Y-43000500D01*
X116934108Y-43000500D01*
X116995572Y-43000500D01*
X117004418Y-43000816D01*
G37*
%TD.AperFunction*%
%TD*%
M02*
