%TF.GenerationSoftware,KiCad,Pcbnew,8.0.1*%
%TF.CreationDate,2024-06-13T11:44:26+10:00*%
%TF.ProjectId,CLD,434c442e-6b69-4636-9164-5f7063625858,rev?*%
%TF.SameCoordinates,Original*%
%TF.FileFunction,Legend,Top*%
%TF.FilePolarity,Positive*%
%FSLAX46Y46*%
G04 Gerber Fmt 4.6, Leading zero omitted, Abs format (unit mm)*
G04 Created by KiCad (PCBNEW 8.0.1) date 2024-06-13 11:44:26*
%MOMM*%
%LPD*%
G01*
G04 APERTURE LIST*
%ADD10C,0.100000*%
%ADD11C,0.153000*%
%ADD12C,0.150000*%
%ADD13C,0.120000*%
G04 APERTURE END LIST*
D10*
X100962499Y-64250000D02*
X102062499Y-64250000D01*
X102462499Y-64250000D02*
X102462499Y-64250000D01*
X102862499Y-64250000D02*
X102862499Y-64250000D01*
X103262499Y-64250000D02*
X104362499Y-64250000D01*
X104762499Y-64250000D02*
X104762499Y-64250000D01*
X105162499Y-64250000D02*
X105162499Y-64250000D01*
X105562499Y-64250000D02*
X105712499Y-64250000D01*
X105712499Y-64250000D02*
X105712499Y-65350000D01*
X105712499Y-65750000D02*
X105712499Y-65750000D01*
X105712499Y-66150000D02*
X105712499Y-66150000D01*
X105712499Y-66550000D02*
X105712499Y-67650000D01*
X105712499Y-68050000D02*
X105712499Y-68050000D01*
X105712499Y-68450000D02*
X105712499Y-68450000D01*
X105712499Y-68850000D02*
X105712499Y-69950000D01*
X105712499Y-70350000D02*
X105712499Y-70350000D01*
X105712499Y-70750000D02*
X105712499Y-70750000D01*
X105712499Y-71150000D02*
X105712499Y-72250000D01*
X105712499Y-72500000D02*
X104612499Y-72500000D01*
X104212499Y-72500000D02*
X104212499Y-72500000D01*
X103812499Y-72500000D02*
X103812499Y-72500000D01*
X103412499Y-72500000D02*
X102312499Y-72500000D01*
X101912499Y-72500000D02*
X101912499Y-72500000D01*
X101512499Y-72500000D02*
X101512499Y-72500000D01*
X101112499Y-72500000D02*
X100962499Y-72500000D01*
X100962499Y-72500000D02*
X100962499Y-71400000D01*
X100962499Y-71000000D02*
X100962499Y-71000000D01*
X100962499Y-70600000D02*
X100962499Y-70600000D01*
X100962499Y-70200000D02*
X100962499Y-69100000D01*
X100962499Y-68700000D02*
X100962499Y-68700000D01*
X100962499Y-68300000D02*
X100962499Y-68300000D01*
X100962499Y-67900000D02*
X100962499Y-66800000D01*
X100962499Y-66400000D02*
X100962499Y-66400000D01*
X100962499Y-66000000D02*
X100962499Y-66000000D01*
X100962499Y-65600000D02*
X100962499Y-64500000D01*
X80091666Y-53432015D02*
X88091666Y-53432015D01*
X88091666Y-55932015D01*
X80091666Y-55932015D01*
X80091666Y-53432015D01*
X92091666Y-55932015D02*
X92091666Y-53432015D01*
X104841666Y-53432015D02*
X111841666Y-53432015D01*
X111841666Y-55932015D01*
X104841666Y-55932015D01*
X104841666Y-53432015D01*
X113500000Y-50500000D02*
X114600000Y-50500000D01*
X115000000Y-50500000D02*
X115000000Y-50500000D01*
X115400000Y-50500000D02*
X115400000Y-50500000D01*
X115800000Y-50500000D02*
X116900000Y-50500000D01*
X117300000Y-50500000D02*
X117300000Y-50500000D01*
X117700000Y-50500000D02*
X117700000Y-50500000D01*
X118100000Y-50500000D02*
X118250000Y-50500000D01*
X118250000Y-50500000D02*
X118250000Y-51600000D01*
X118250000Y-52000000D02*
X118250000Y-52000000D01*
X118250000Y-52400000D02*
X118250000Y-52400000D01*
X118250000Y-52800000D02*
X118250000Y-53900000D01*
X118250000Y-54300000D02*
X118250000Y-54300000D01*
X118250000Y-54700000D02*
X118250000Y-54700000D01*
X118250000Y-55100000D02*
X118250000Y-55750000D01*
X118250000Y-55750000D02*
X117150000Y-55750000D01*
X116750000Y-55750000D02*
X116750000Y-55750000D01*
X116350000Y-55750000D02*
X116350000Y-55750000D01*
X115950000Y-55750000D02*
X114850000Y-55750000D01*
X114450000Y-55750000D02*
X114450000Y-55750000D01*
X114050000Y-55750000D02*
X114050000Y-55750000D01*
X113650000Y-55750000D02*
X113500000Y-55750000D01*
X113500000Y-55750000D02*
X113500000Y-54650000D01*
X113500000Y-54250000D02*
X113500000Y-54250000D01*
X113500000Y-53850000D02*
X113500000Y-53850000D01*
X113500000Y-53450000D02*
X113500000Y-52350000D01*
X113500000Y-51950000D02*
X113500000Y-51950000D01*
X113500000Y-51550000D02*
X113500000Y-51550000D01*
X113500000Y-51150000D02*
X113500000Y-50500000D01*
X84000000Y-55932015D02*
X84000000Y-53432015D01*
X79631666Y-43587500D02*
X80731666Y-43587500D01*
X81131666Y-43587500D02*
X81131666Y-43587500D01*
X81531666Y-43587500D02*
X81531666Y-43587500D01*
X81931666Y-43587500D02*
X83031666Y-43587500D01*
X83431666Y-43587500D02*
X83431666Y-43587500D01*
X83831666Y-43587500D02*
X83831666Y-43587500D01*
X84231666Y-43587500D02*
X85331666Y-43587500D01*
X85731666Y-43587500D02*
X85731666Y-43587500D01*
X86131666Y-43587500D02*
X86131666Y-43587500D01*
X86531666Y-43587500D02*
X87631666Y-43587500D01*
X88031666Y-43587500D02*
X88031666Y-43587500D01*
X88431666Y-43587500D02*
X88431666Y-43587500D01*
X88831666Y-43587500D02*
X89931666Y-43587500D01*
X90331666Y-43587500D02*
X90331666Y-43587500D01*
X90731666Y-43587500D02*
X90731666Y-43587500D01*
X91131666Y-43587500D02*
X92231666Y-43587500D01*
X92631666Y-43587500D02*
X92631666Y-43587500D01*
X93031666Y-43587500D02*
X93031666Y-43587500D01*
X93431666Y-43587500D02*
X94531666Y-43587500D01*
X94931666Y-43587500D02*
X94931666Y-43587500D01*
X95331666Y-43587500D02*
X95331666Y-43587500D01*
X95731666Y-43587500D02*
X96831666Y-43587500D01*
X97231666Y-43587500D02*
X97231666Y-43587500D01*
X97631666Y-43587500D02*
X97631666Y-43587500D01*
X98031666Y-43587500D02*
X99131666Y-43587500D01*
X99531666Y-43587500D02*
X99531666Y-43587500D01*
X99931666Y-43587500D02*
X99931666Y-43587500D01*
X100331666Y-43587500D02*
X101431666Y-43587500D01*
X101831666Y-43587500D02*
X101831666Y-43587500D01*
X102231666Y-43587500D02*
X102231666Y-43587500D01*
X102631666Y-43587500D02*
X103731666Y-43587500D01*
X104131666Y-43587500D02*
X104131666Y-43587500D01*
X104531666Y-43587500D02*
X104531666Y-43587500D01*
X104931666Y-43587500D02*
X106031666Y-43587500D01*
X106431666Y-43587500D02*
X106431666Y-43587500D01*
X106831666Y-43587500D02*
X106831666Y-43587500D01*
X107231666Y-43587500D02*
X108331666Y-43587500D01*
X108731666Y-43587500D02*
X108731666Y-43587500D01*
X109131666Y-43587500D02*
X109131666Y-43587500D01*
X109531666Y-43587500D02*
X110631666Y-43587500D01*
X111031666Y-43587500D02*
X111031666Y-43587500D01*
X111431666Y-43587500D02*
X111431666Y-43587500D01*
X111831666Y-43587500D02*
X112441666Y-43587500D01*
X112441666Y-43587500D02*
X112441666Y-44687500D01*
X112441666Y-45087500D02*
X112441666Y-45087500D01*
X112441666Y-45487500D02*
X112441666Y-45487500D01*
X112441666Y-45887500D02*
X112441666Y-46637500D01*
X112441666Y-46637500D02*
X111341666Y-46637500D01*
X110941666Y-46637500D02*
X110941666Y-46637500D01*
X110541666Y-46637500D02*
X110541666Y-46637500D01*
X110141666Y-46637500D02*
X109041666Y-46637500D01*
X108641666Y-46637500D02*
X108641666Y-46637500D01*
X108241666Y-46637500D02*
X108241666Y-46637500D01*
X107841666Y-46637500D02*
X106741666Y-46637500D01*
X106341666Y-46637500D02*
X106341666Y-46637500D01*
X105941666Y-46637500D02*
X105941666Y-46637500D01*
X105541666Y-46637500D02*
X104441666Y-46637500D01*
X104041666Y-46637500D02*
X104041666Y-46637500D01*
X103641666Y-46637500D02*
X103641666Y-46637500D01*
X103241666Y-46637500D02*
X102141666Y-46637500D01*
X101741666Y-46637500D02*
X101741666Y-46637500D01*
X101341666Y-46637500D02*
X101341666Y-46637500D01*
X100941666Y-46637500D02*
X99841666Y-46637500D01*
X99441666Y-46637500D02*
X99441666Y-46637500D01*
X99041666Y-46637500D02*
X99041666Y-46637500D01*
X98641666Y-46637500D02*
X97541666Y-46637500D01*
X97141666Y-46637500D02*
X97141666Y-46637500D01*
X96741666Y-46637500D02*
X96741666Y-46637500D01*
X96341666Y-46637500D02*
X95241666Y-46637500D01*
X94841666Y-46637500D02*
X94841666Y-46637500D01*
X94441666Y-46637500D02*
X94441666Y-46637500D01*
X94041666Y-46637500D02*
X92941666Y-46637500D01*
X92541666Y-46637500D02*
X92541666Y-46637500D01*
X92141666Y-46637500D02*
X92141666Y-46637500D01*
X91741666Y-46637500D02*
X90641666Y-46637500D01*
X90241666Y-46637500D02*
X90241666Y-46637500D01*
X89841666Y-46637500D02*
X89841666Y-46637500D01*
X89441666Y-46637500D02*
X88341666Y-46637500D01*
X87941666Y-46637500D02*
X87941666Y-46637500D01*
X87541666Y-46637500D02*
X87541666Y-46637500D01*
X87141666Y-46637500D02*
X86041666Y-46637500D01*
X85641666Y-46637500D02*
X85641666Y-46637500D01*
X85241666Y-46637500D02*
X85241666Y-46637500D01*
X84841666Y-46637500D02*
X83741666Y-46637500D01*
X83341666Y-46637500D02*
X83341666Y-46637500D01*
X82941666Y-46637500D02*
X82941666Y-46637500D01*
X82541666Y-46637500D02*
X81441666Y-46637500D01*
X81041666Y-46637500D02*
X81041666Y-46637500D01*
X80641666Y-46637500D02*
X80641666Y-46637500D01*
X80241666Y-46637500D02*
X79631666Y-46637500D01*
X79631666Y-46637500D02*
X79631666Y-45537500D01*
X79631666Y-45137500D02*
X79631666Y-45137500D01*
X79631666Y-44737500D02*
X79631666Y-44737500D01*
X79631666Y-44337500D02*
X79631666Y-43587500D01*
X89091666Y-53432015D02*
X96091666Y-53432015D01*
X96091666Y-55932015D01*
X89091666Y-55932015D01*
X89091666Y-53432015D01*
X96841666Y-53432015D02*
X103841666Y-53432015D01*
X103841666Y-55932015D01*
X96841666Y-55932015D01*
X96841666Y-53432015D01*
X79341666Y-43287500D02*
X112841666Y-43287500D01*
X112841666Y-47037500D01*
X79341666Y-47037500D01*
X79341666Y-43287500D01*
X113250000Y-50250000D02*
X118500000Y-50250000D01*
X118500000Y-56000000D01*
X113250000Y-56000000D01*
X113250000Y-50250000D01*
X79341666Y-47537500D02*
X112841666Y-47537500D01*
X112841666Y-56787500D01*
X79341666Y-56787500D01*
X79341666Y-47537500D01*
X100091666Y-55932015D02*
X100091666Y-53432015D01*
X100712499Y-64000000D02*
X105962499Y-64000000D01*
X105962499Y-72750000D01*
X100712499Y-72750000D01*
X100712499Y-64000000D01*
D11*
X97287561Y-54157163D02*
X97620894Y-55157163D01*
X97620894Y-55157163D02*
X97954227Y-54157163D01*
X98287561Y-55157163D02*
X98287561Y-54157163D01*
X98763751Y-55157163D02*
X98763751Y-54157163D01*
X98763751Y-54157163D02*
X99335179Y-55157163D01*
X99335179Y-55157163D02*
X99335179Y-54157163D01*
X84588752Y-55157163D02*
X84588752Y-54157163D01*
X84588752Y-54633353D02*
X85160180Y-54633353D01*
X85160180Y-55157163D02*
X85160180Y-54157163D01*
X85636371Y-55157163D02*
X85636371Y-54157163D01*
X86636370Y-54204782D02*
X86541132Y-54157163D01*
X86541132Y-54157163D02*
X86398275Y-54157163D01*
X86398275Y-54157163D02*
X86255418Y-54204782D01*
X86255418Y-54204782D02*
X86160180Y-54300020D01*
X86160180Y-54300020D02*
X86112561Y-54395258D01*
X86112561Y-54395258D02*
X86064942Y-54585734D01*
X86064942Y-54585734D02*
X86064942Y-54728591D01*
X86064942Y-54728591D02*
X86112561Y-54919067D01*
X86112561Y-54919067D02*
X86160180Y-55014305D01*
X86160180Y-55014305D02*
X86255418Y-55109544D01*
X86255418Y-55109544D02*
X86398275Y-55157163D01*
X86398275Y-55157163D02*
X86493513Y-55157163D01*
X86493513Y-55157163D02*
X86636370Y-55109544D01*
X86636370Y-55109544D02*
X86683989Y-55061924D01*
X86683989Y-55061924D02*
X86683989Y-54728591D01*
X86683989Y-54728591D02*
X86493513Y-54728591D01*
X87112561Y-55157163D02*
X87112561Y-54157163D01*
X87112561Y-54633353D02*
X87683989Y-54633353D01*
X87683989Y-55157163D02*
X87683989Y-54157163D01*
X93454227Y-54204782D02*
X93358989Y-54157163D01*
X93358989Y-54157163D02*
X93216132Y-54157163D01*
X93216132Y-54157163D02*
X93073275Y-54204782D01*
X93073275Y-54204782D02*
X92978037Y-54300020D01*
X92978037Y-54300020D02*
X92930418Y-54395258D01*
X92930418Y-54395258D02*
X92882799Y-54585734D01*
X92882799Y-54585734D02*
X92882799Y-54728591D01*
X92882799Y-54728591D02*
X92930418Y-54919067D01*
X92930418Y-54919067D02*
X92978037Y-55014305D01*
X92978037Y-55014305D02*
X93073275Y-55109544D01*
X93073275Y-55109544D02*
X93216132Y-55157163D01*
X93216132Y-55157163D02*
X93311370Y-55157163D01*
X93311370Y-55157163D02*
X93454227Y-55109544D01*
X93454227Y-55109544D02*
X93501846Y-55061924D01*
X93501846Y-55061924D02*
X93501846Y-54728591D01*
X93501846Y-54728591D02*
X93311370Y-54728591D01*
X93930418Y-55157163D02*
X93930418Y-54157163D01*
X93930418Y-54157163D02*
X94501846Y-55157163D01*
X94501846Y-55157163D02*
X94501846Y-54157163D01*
X94978037Y-55157163D02*
X94978037Y-54157163D01*
X94978037Y-54157163D02*
X95216132Y-54157163D01*
X95216132Y-54157163D02*
X95358989Y-54204782D01*
X95358989Y-54204782D02*
X95454227Y-54300020D01*
X95454227Y-54300020D02*
X95501846Y-54395258D01*
X95501846Y-54395258D02*
X95549465Y-54585734D01*
X95549465Y-54585734D02*
X95549465Y-54728591D01*
X95549465Y-54728591D02*
X95501846Y-54919067D01*
X95501846Y-54919067D02*
X95454227Y-55014305D01*
X95454227Y-55014305D02*
X95358989Y-55109544D01*
X95358989Y-55109544D02*
X95216132Y-55157163D01*
X95216132Y-55157163D02*
X94978037Y-55157163D01*
X90406608Y-54157163D02*
X89930418Y-54157163D01*
X89930418Y-54157163D02*
X89882799Y-54633353D01*
X89882799Y-54633353D02*
X89930418Y-54585734D01*
X89930418Y-54585734D02*
X90025656Y-54538115D01*
X90025656Y-54538115D02*
X90263751Y-54538115D01*
X90263751Y-54538115D02*
X90358989Y-54585734D01*
X90358989Y-54585734D02*
X90406608Y-54633353D01*
X90406608Y-54633353D02*
X90454227Y-54728591D01*
X90454227Y-54728591D02*
X90454227Y-54966686D01*
X90454227Y-54966686D02*
X90406608Y-55061924D01*
X90406608Y-55061924D02*
X90358989Y-55109544D01*
X90358989Y-55109544D02*
X90263751Y-55157163D01*
X90263751Y-55157163D02*
X90025656Y-55157163D01*
X90025656Y-55157163D02*
X89930418Y-55109544D01*
X89930418Y-55109544D02*
X89882799Y-55061924D01*
X90739942Y-54157163D02*
X91073275Y-55157163D01*
X91073275Y-55157163D02*
X91406608Y-54157163D01*
X97430418Y-49407163D02*
X97430418Y-48407163D01*
X97430418Y-48407163D02*
X97811370Y-48407163D01*
X97811370Y-48407163D02*
X97906608Y-48454782D01*
X97906608Y-48454782D02*
X97954227Y-48502401D01*
X97954227Y-48502401D02*
X98001846Y-48597639D01*
X98001846Y-48597639D02*
X98001846Y-48740496D01*
X98001846Y-48740496D02*
X97954227Y-48835734D01*
X97954227Y-48835734D02*
X97906608Y-48883353D01*
X97906608Y-48883353D02*
X97811370Y-48930972D01*
X97811370Y-48930972D02*
X97430418Y-48930972D01*
X98573275Y-49407163D02*
X98478037Y-49359544D01*
X98478037Y-49359544D02*
X98430418Y-49311924D01*
X98430418Y-49311924D02*
X98382799Y-49216686D01*
X98382799Y-49216686D02*
X98382799Y-48930972D01*
X98382799Y-48930972D02*
X98430418Y-48835734D01*
X98430418Y-48835734D02*
X98478037Y-48788115D01*
X98478037Y-48788115D02*
X98573275Y-48740496D01*
X98573275Y-48740496D02*
X98716132Y-48740496D01*
X98716132Y-48740496D02*
X98811370Y-48788115D01*
X98811370Y-48788115D02*
X98858989Y-48835734D01*
X98858989Y-48835734D02*
X98906608Y-48930972D01*
X98906608Y-48930972D02*
X98906608Y-49216686D01*
X98906608Y-49216686D02*
X98858989Y-49311924D01*
X98858989Y-49311924D02*
X98811370Y-49359544D01*
X98811370Y-49359544D02*
X98716132Y-49407163D01*
X98716132Y-49407163D02*
X98573275Y-49407163D01*
X99239942Y-48740496D02*
X99430418Y-49407163D01*
X99430418Y-49407163D02*
X99620894Y-48930972D01*
X99620894Y-48930972D02*
X99811370Y-49407163D01*
X99811370Y-49407163D02*
X100001846Y-48740496D01*
X100763751Y-49359544D02*
X100668513Y-49407163D01*
X100668513Y-49407163D02*
X100478037Y-49407163D01*
X100478037Y-49407163D02*
X100382799Y-49359544D01*
X100382799Y-49359544D02*
X100335180Y-49264305D01*
X100335180Y-49264305D02*
X100335180Y-48883353D01*
X100335180Y-48883353D02*
X100382799Y-48788115D01*
X100382799Y-48788115D02*
X100478037Y-48740496D01*
X100478037Y-48740496D02*
X100668513Y-48740496D01*
X100668513Y-48740496D02*
X100763751Y-48788115D01*
X100763751Y-48788115D02*
X100811370Y-48883353D01*
X100811370Y-48883353D02*
X100811370Y-48978591D01*
X100811370Y-48978591D02*
X100335180Y-49073829D01*
X101239942Y-49407163D02*
X101239942Y-48740496D01*
X101239942Y-48930972D02*
X101287561Y-48835734D01*
X101287561Y-48835734D02*
X101335180Y-48788115D01*
X101335180Y-48788115D02*
X101430418Y-48740496D01*
X101430418Y-48740496D02*
X101525656Y-48740496D01*
X101620895Y-49502401D02*
X102382799Y-49502401D01*
X102620895Y-49407163D02*
X102620895Y-48407163D01*
X103097085Y-48740496D02*
X103097085Y-49407163D01*
X103097085Y-48835734D02*
X103144704Y-48788115D01*
X103144704Y-48788115D02*
X103239942Y-48740496D01*
X103239942Y-48740496D02*
X103382799Y-48740496D01*
X103382799Y-48740496D02*
X103478037Y-48788115D01*
X103478037Y-48788115D02*
X103525656Y-48883353D01*
X103525656Y-48883353D02*
X103525656Y-49407163D01*
X107406608Y-49407163D02*
X106930418Y-49407163D01*
X106930418Y-49407163D02*
X106930418Y-48407163D01*
X107882799Y-49407163D02*
X107787561Y-49359544D01*
X107787561Y-49359544D02*
X107739942Y-49311924D01*
X107739942Y-49311924D02*
X107692323Y-49216686D01*
X107692323Y-49216686D02*
X107692323Y-48930972D01*
X107692323Y-48930972D02*
X107739942Y-48835734D01*
X107739942Y-48835734D02*
X107787561Y-48788115D01*
X107787561Y-48788115D02*
X107882799Y-48740496D01*
X107882799Y-48740496D02*
X108025656Y-48740496D01*
X108025656Y-48740496D02*
X108120894Y-48788115D01*
X108120894Y-48788115D02*
X108168513Y-48835734D01*
X108168513Y-48835734D02*
X108216132Y-48930972D01*
X108216132Y-48930972D02*
X108216132Y-49216686D01*
X108216132Y-49216686D02*
X108168513Y-49311924D01*
X108168513Y-49311924D02*
X108120894Y-49359544D01*
X108120894Y-49359544D02*
X108025656Y-49407163D01*
X108025656Y-49407163D02*
X107882799Y-49407163D01*
X109073275Y-49407163D02*
X109073275Y-48883353D01*
X109073275Y-48883353D02*
X109025656Y-48788115D01*
X109025656Y-48788115D02*
X108930418Y-48740496D01*
X108930418Y-48740496D02*
X108739942Y-48740496D01*
X108739942Y-48740496D02*
X108644704Y-48788115D01*
X109073275Y-49359544D02*
X108978037Y-49407163D01*
X108978037Y-49407163D02*
X108739942Y-49407163D01*
X108739942Y-49407163D02*
X108644704Y-49359544D01*
X108644704Y-49359544D02*
X108597085Y-49264305D01*
X108597085Y-49264305D02*
X108597085Y-49169067D01*
X108597085Y-49169067D02*
X108644704Y-49073829D01*
X108644704Y-49073829D02*
X108739942Y-49026210D01*
X108739942Y-49026210D02*
X108978037Y-49026210D01*
X108978037Y-49026210D02*
X109073275Y-48978591D01*
X109978037Y-49407163D02*
X109978037Y-48407163D01*
X109978037Y-49359544D02*
X109882799Y-49407163D01*
X109882799Y-49407163D02*
X109692323Y-49407163D01*
X109692323Y-49407163D02*
X109597085Y-49359544D01*
X109597085Y-49359544D02*
X109549466Y-49311924D01*
X109549466Y-49311924D02*
X109501847Y-49216686D01*
X109501847Y-49216686D02*
X109501847Y-48930972D01*
X109501847Y-48930972D02*
X109549466Y-48835734D01*
X109549466Y-48835734D02*
X109597085Y-48788115D01*
X109597085Y-48788115D02*
X109692323Y-48740496D01*
X109692323Y-48740496D02*
X109882799Y-48740496D01*
X109882799Y-48740496D02*
X109978037Y-48788115D01*
X89930418Y-49026210D02*
X90692323Y-49026210D01*
X90311370Y-49407163D02*
X90311370Y-48645258D01*
X91644703Y-48407163D02*
X91168513Y-48407163D01*
X91168513Y-48407163D02*
X91120894Y-48883353D01*
X91120894Y-48883353D02*
X91168513Y-48835734D01*
X91168513Y-48835734D02*
X91263751Y-48788115D01*
X91263751Y-48788115D02*
X91501846Y-48788115D01*
X91501846Y-48788115D02*
X91597084Y-48835734D01*
X91597084Y-48835734D02*
X91644703Y-48883353D01*
X91644703Y-48883353D02*
X91692322Y-48978591D01*
X91692322Y-48978591D02*
X91692322Y-49216686D01*
X91692322Y-49216686D02*
X91644703Y-49311924D01*
X91644703Y-49311924D02*
X91597084Y-49359544D01*
X91597084Y-49359544D02*
X91501846Y-49407163D01*
X91501846Y-49407163D02*
X91263751Y-49407163D01*
X91263751Y-49407163D02*
X91168513Y-49359544D01*
X91168513Y-49359544D02*
X91120894Y-49311924D01*
X91978037Y-48407163D02*
X92311370Y-49407163D01*
X92311370Y-49407163D02*
X92644703Y-48407163D01*
X92739942Y-49502401D02*
X93501846Y-49502401D01*
X93739942Y-49407163D02*
X93739942Y-48407163D01*
X94216132Y-48740496D02*
X94216132Y-49407163D01*
X94216132Y-48835734D02*
X94263751Y-48788115D01*
X94263751Y-48788115D02*
X94358989Y-48740496D01*
X94358989Y-48740496D02*
X94501846Y-48740496D01*
X94501846Y-48740496D02*
X94597084Y-48788115D01*
X94597084Y-48788115D02*
X94644703Y-48883353D01*
X94644703Y-48883353D02*
X94644703Y-49407163D01*
X105954227Y-55157163D02*
X105382799Y-55157163D01*
X105668513Y-55157163D02*
X105668513Y-54157163D01*
X105668513Y-54157163D02*
X105573275Y-54300020D01*
X105573275Y-54300020D02*
X105478037Y-54395258D01*
X105478037Y-54395258D02*
X105382799Y-54442877D01*
X106573275Y-54157163D02*
X106668513Y-54157163D01*
X106668513Y-54157163D02*
X106763751Y-54204782D01*
X106763751Y-54204782D02*
X106811370Y-54252401D01*
X106811370Y-54252401D02*
X106858989Y-54347639D01*
X106858989Y-54347639D02*
X106906608Y-54538115D01*
X106906608Y-54538115D02*
X106906608Y-54776210D01*
X106906608Y-54776210D02*
X106858989Y-54966686D01*
X106858989Y-54966686D02*
X106811370Y-55061924D01*
X106811370Y-55061924D02*
X106763751Y-55109544D01*
X106763751Y-55109544D02*
X106668513Y-55157163D01*
X106668513Y-55157163D02*
X106573275Y-55157163D01*
X106573275Y-55157163D02*
X106478037Y-55109544D01*
X106478037Y-55109544D02*
X106430418Y-55061924D01*
X106430418Y-55061924D02*
X106382799Y-54966686D01*
X106382799Y-54966686D02*
X106335180Y-54776210D01*
X106335180Y-54776210D02*
X106335180Y-54538115D01*
X106335180Y-54538115D02*
X106382799Y-54347639D01*
X106382799Y-54347639D02*
X106430418Y-54252401D01*
X106430418Y-54252401D02*
X106478037Y-54204782D01*
X106478037Y-54204782D02*
X106573275Y-54157163D01*
X107287561Y-54871448D02*
X107763751Y-54871448D01*
X107192323Y-55157163D02*
X107525656Y-54157163D01*
X107525656Y-54157163D02*
X107858989Y-55157163D01*
X108858990Y-54157163D02*
X109478037Y-54157163D01*
X109478037Y-54157163D02*
X109144704Y-54538115D01*
X109144704Y-54538115D02*
X109287561Y-54538115D01*
X109287561Y-54538115D02*
X109382799Y-54585734D01*
X109382799Y-54585734D02*
X109430418Y-54633353D01*
X109430418Y-54633353D02*
X109478037Y-54728591D01*
X109478037Y-54728591D02*
X109478037Y-54966686D01*
X109478037Y-54966686D02*
X109430418Y-55061924D01*
X109430418Y-55061924D02*
X109382799Y-55109544D01*
X109382799Y-55109544D02*
X109287561Y-55157163D01*
X109287561Y-55157163D02*
X109001847Y-55157163D01*
X109001847Y-55157163D02*
X108906609Y-55109544D01*
X108906609Y-55109544D02*
X108858990Y-55061924D01*
X110097085Y-54157163D02*
X110192323Y-54157163D01*
X110192323Y-54157163D02*
X110287561Y-54204782D01*
X110287561Y-54204782D02*
X110335180Y-54252401D01*
X110335180Y-54252401D02*
X110382799Y-54347639D01*
X110382799Y-54347639D02*
X110430418Y-54538115D01*
X110430418Y-54538115D02*
X110430418Y-54776210D01*
X110430418Y-54776210D02*
X110382799Y-54966686D01*
X110382799Y-54966686D02*
X110335180Y-55061924D01*
X110335180Y-55061924D02*
X110287561Y-55109544D01*
X110287561Y-55109544D02*
X110192323Y-55157163D01*
X110192323Y-55157163D02*
X110097085Y-55157163D01*
X110097085Y-55157163D02*
X110001847Y-55109544D01*
X110001847Y-55109544D02*
X109954228Y-55061924D01*
X109954228Y-55061924D02*
X109906609Y-54966686D01*
X109906609Y-54966686D02*
X109858990Y-54776210D01*
X109858990Y-54776210D02*
X109858990Y-54538115D01*
X109858990Y-54538115D02*
X109906609Y-54347639D01*
X109906609Y-54347639D02*
X109954228Y-54252401D01*
X109954228Y-54252401D02*
X110001847Y-54204782D01*
X110001847Y-54204782D02*
X110097085Y-54157163D01*
X110716133Y-54157163D02*
X111049466Y-55157163D01*
X111049466Y-55157163D02*
X111382799Y-54157163D01*
X115154761Y-51774424D02*
X115107142Y-51822044D01*
X115107142Y-51822044D02*
X114964285Y-51869663D01*
X114964285Y-51869663D02*
X114869047Y-51869663D01*
X114869047Y-51869663D02*
X114726190Y-51822044D01*
X114726190Y-51822044D02*
X114630952Y-51726805D01*
X114630952Y-51726805D02*
X114583333Y-51631567D01*
X114583333Y-51631567D02*
X114535714Y-51441091D01*
X114535714Y-51441091D02*
X114535714Y-51298234D01*
X114535714Y-51298234D02*
X114583333Y-51107758D01*
X114583333Y-51107758D02*
X114630952Y-51012520D01*
X114630952Y-51012520D02*
X114726190Y-50917282D01*
X114726190Y-50917282D02*
X114869047Y-50869663D01*
X114869047Y-50869663D02*
X114964285Y-50869663D01*
X114964285Y-50869663D02*
X115107142Y-50917282D01*
X115107142Y-50917282D02*
X115154761Y-50964901D01*
X116011904Y-51869663D02*
X116011904Y-51345853D01*
X116011904Y-51345853D02*
X115964285Y-51250615D01*
X115964285Y-51250615D02*
X115869047Y-51202996D01*
X115869047Y-51202996D02*
X115678571Y-51202996D01*
X115678571Y-51202996D02*
X115583333Y-51250615D01*
X116011904Y-51822044D02*
X115916666Y-51869663D01*
X115916666Y-51869663D02*
X115678571Y-51869663D01*
X115678571Y-51869663D02*
X115583333Y-51822044D01*
X115583333Y-51822044D02*
X115535714Y-51726805D01*
X115535714Y-51726805D02*
X115535714Y-51631567D01*
X115535714Y-51631567D02*
X115583333Y-51536329D01*
X115583333Y-51536329D02*
X115678571Y-51488710D01*
X115678571Y-51488710D02*
X115916666Y-51488710D01*
X115916666Y-51488710D02*
X116011904Y-51441091D01*
X116488095Y-51202996D02*
X116488095Y-51869663D01*
X116488095Y-51298234D02*
X116535714Y-51250615D01*
X116535714Y-51250615D02*
X116630952Y-51202996D01*
X116630952Y-51202996D02*
X116773809Y-51202996D01*
X116773809Y-51202996D02*
X116869047Y-51250615D01*
X116869047Y-51250615D02*
X116916666Y-51345853D01*
X116916666Y-51345853D02*
X116916666Y-51869663D01*
X101801251Y-69619663D02*
X101801251Y-68619663D01*
X102467917Y-68619663D02*
X102658393Y-68619663D01*
X102658393Y-68619663D02*
X102753631Y-68667282D01*
X102753631Y-68667282D02*
X102848869Y-68762520D01*
X102848869Y-68762520D02*
X102896488Y-68952996D01*
X102896488Y-68952996D02*
X102896488Y-69286329D01*
X102896488Y-69286329D02*
X102848869Y-69476805D01*
X102848869Y-69476805D02*
X102753631Y-69572044D01*
X102753631Y-69572044D02*
X102658393Y-69619663D01*
X102658393Y-69619663D02*
X102467917Y-69619663D01*
X102467917Y-69619663D02*
X102372679Y-69572044D01*
X102372679Y-69572044D02*
X102277441Y-69476805D01*
X102277441Y-69476805D02*
X102229822Y-69286329D01*
X102229822Y-69286329D02*
X102229822Y-68952996D01*
X102229822Y-68952996D02*
X102277441Y-68762520D01*
X102277441Y-68762520D02*
X102372679Y-68667282D01*
X102372679Y-68667282D02*
X102467917Y-68619663D01*
X103086965Y-69714901D02*
X103848869Y-69714901D01*
X104039346Y-68714901D02*
X104086965Y-68667282D01*
X104086965Y-68667282D02*
X104182203Y-68619663D01*
X104182203Y-68619663D02*
X104420298Y-68619663D01*
X104420298Y-68619663D02*
X104515536Y-68667282D01*
X104515536Y-68667282D02*
X104563155Y-68714901D01*
X104563155Y-68714901D02*
X104610774Y-68810139D01*
X104610774Y-68810139D02*
X104610774Y-68905377D01*
X104610774Y-68905377D02*
X104563155Y-69048234D01*
X104563155Y-69048234D02*
X103991727Y-69619663D01*
X103991727Y-69619663D02*
X104610774Y-69619663D01*
X101801251Y-65869663D02*
X101801251Y-64869663D01*
X102467917Y-64869663D02*
X102658393Y-64869663D01*
X102658393Y-64869663D02*
X102753631Y-64917282D01*
X102753631Y-64917282D02*
X102848869Y-65012520D01*
X102848869Y-65012520D02*
X102896488Y-65202996D01*
X102896488Y-65202996D02*
X102896488Y-65536329D01*
X102896488Y-65536329D02*
X102848869Y-65726805D01*
X102848869Y-65726805D02*
X102753631Y-65822044D01*
X102753631Y-65822044D02*
X102658393Y-65869663D01*
X102658393Y-65869663D02*
X102467917Y-65869663D01*
X102467917Y-65869663D02*
X102372679Y-65822044D01*
X102372679Y-65822044D02*
X102277441Y-65726805D01*
X102277441Y-65726805D02*
X102229822Y-65536329D01*
X102229822Y-65536329D02*
X102229822Y-65202996D01*
X102229822Y-65202996D02*
X102277441Y-65012520D01*
X102277441Y-65012520D02*
X102372679Y-64917282D01*
X102372679Y-64917282D02*
X102467917Y-64869663D01*
X103086965Y-65964901D02*
X103848869Y-65964901D01*
X104610774Y-65869663D02*
X104039346Y-65869663D01*
X104325060Y-65869663D02*
X104325060Y-64869663D01*
X104325060Y-64869663D02*
X104229822Y-65012520D01*
X104229822Y-65012520D02*
X104134584Y-65107758D01*
X104134584Y-65107758D02*
X104039346Y-65155377D01*
D10*
G36*
X90841666Y-45383026D02*
G01*
X90841666Y-44796844D01*
X90958902Y-44796844D01*
X90958902Y-44679607D01*
X91076139Y-44679607D01*
X91076139Y-44562370D01*
X91545085Y-44562370D01*
X91545085Y-44679607D01*
X91662321Y-44679607D01*
X91662321Y-44914080D01*
X91545085Y-44914080D01*
X91545085Y-44796844D01*
X91427848Y-44796844D01*
X91427848Y-44679607D01*
X91193375Y-44679607D01*
X91193375Y-44796844D01*
X91076139Y-44796844D01*
X91076139Y-45383026D01*
X91193375Y-45383026D01*
X91193375Y-45500263D01*
X91427848Y-45500263D01*
X91427848Y-45383026D01*
X91545085Y-45383026D01*
X91545085Y-45265790D01*
X91662321Y-45265790D01*
X91662321Y-45500263D01*
X91545085Y-45500263D01*
X91545085Y-45617500D01*
X91076139Y-45617500D01*
X91076139Y-45500263D01*
X90958902Y-45500263D01*
X90958902Y-45383026D01*
X90841666Y-45383026D01*
G37*
G36*
X92243619Y-44679607D02*
G01*
X92360856Y-44679607D01*
X92360856Y-44796844D01*
X92478093Y-44796844D01*
X92478093Y-44914080D01*
X92595329Y-44914080D01*
X92595329Y-45617500D01*
X92360856Y-45617500D01*
X92360856Y-45265790D01*
X92009146Y-45265790D01*
X92009146Y-45617500D01*
X91774673Y-45617500D01*
X91774673Y-45148553D01*
X92009146Y-45148553D01*
X92360856Y-45148553D01*
X92360856Y-44914080D01*
X92243619Y-44914080D01*
X92243619Y-44796844D01*
X92126383Y-44796844D01*
X92126383Y-44914080D01*
X92009146Y-44914080D01*
X92009146Y-45148553D01*
X91774673Y-45148553D01*
X91774673Y-44914080D01*
X91891910Y-44914080D01*
X91891910Y-44796844D01*
X92009146Y-44796844D01*
X92009146Y-44679607D01*
X92126383Y-44679607D01*
X92126383Y-44562370D01*
X92243619Y-44562370D01*
X92243619Y-44679607D01*
G37*
G36*
X92707681Y-45617500D02*
G01*
X92707681Y-44562370D01*
X92942154Y-44562370D01*
X92942154Y-44679607D01*
X93059391Y-44679607D01*
X93059391Y-44796844D01*
X93176627Y-44796844D01*
X93176627Y-44914080D01*
X93293864Y-44914080D01*
X93293864Y-44562370D01*
X93528337Y-44562370D01*
X93528337Y-45617500D01*
X93293864Y-45617500D01*
X93293864Y-45265790D01*
X93176627Y-45265790D01*
X93176627Y-45148553D01*
X93059391Y-45148553D01*
X93059391Y-45031317D01*
X92942154Y-45031317D01*
X92942154Y-45617500D01*
X92707681Y-45617500D01*
G37*
G36*
X94573696Y-45617500D02*
G01*
X94573696Y-45500263D01*
X94690933Y-45500263D01*
X94690933Y-44679607D01*
X94573696Y-44679607D01*
X94573696Y-44562370D01*
X95042642Y-44562370D01*
X95042642Y-44679607D01*
X94925406Y-44679607D01*
X94925406Y-45500263D01*
X95159879Y-45500263D01*
X95159879Y-45383026D01*
X95277116Y-45383026D01*
X95277116Y-45265790D01*
X95394352Y-45265790D01*
X95394352Y-45617500D01*
X94573696Y-45617500D01*
G37*
G36*
X96092887Y-44679607D02*
G01*
X96210123Y-44679607D01*
X96210123Y-44796844D01*
X96327360Y-44796844D01*
X96327360Y-45383026D01*
X96210123Y-45383026D01*
X96210123Y-45500263D01*
X96092887Y-45500263D01*
X96092887Y-45617500D01*
X95741177Y-45617500D01*
X95741177Y-45500263D01*
X95623940Y-45500263D01*
X95623940Y-45383026D01*
X95741177Y-45383026D01*
X95858414Y-45383026D01*
X95858414Y-45500263D01*
X95975650Y-45500263D01*
X95975650Y-45383026D01*
X96092887Y-45383026D01*
X96092887Y-44796844D01*
X95975650Y-44796844D01*
X95975650Y-44679607D01*
X95858414Y-44679607D01*
X95858414Y-44796844D01*
X95741177Y-44796844D01*
X95741177Y-45383026D01*
X95623940Y-45383026D01*
X95506704Y-45383026D01*
X95506704Y-44796844D01*
X95623940Y-44796844D01*
X95623940Y-44679607D01*
X95741177Y-44679607D01*
X95741177Y-44562370D01*
X96092887Y-44562370D01*
X96092887Y-44679607D01*
G37*
G36*
X96908658Y-44679607D02*
G01*
X97025894Y-44679607D01*
X97025894Y-44796844D01*
X97143131Y-44796844D01*
X97143131Y-44914080D01*
X97260368Y-44914080D01*
X97260368Y-45617500D01*
X97025894Y-45617500D01*
X97025894Y-45265790D01*
X96674185Y-45265790D01*
X96674185Y-45617500D01*
X96439712Y-45617500D01*
X96439712Y-45148553D01*
X96674185Y-45148553D01*
X97025894Y-45148553D01*
X97025894Y-44914080D01*
X96908658Y-44914080D01*
X96908658Y-44796844D01*
X96791421Y-44796844D01*
X96791421Y-44914080D01*
X96674185Y-44914080D01*
X96674185Y-45148553D01*
X96439712Y-45148553D01*
X96439712Y-44914080D01*
X96556948Y-44914080D01*
X96556948Y-44796844D01*
X96674185Y-44796844D01*
X96674185Y-44679607D01*
X96791421Y-44679607D01*
X96791421Y-44562370D01*
X96908658Y-44562370D01*
X96908658Y-44679607D01*
G37*
G36*
X97958902Y-44679607D02*
G01*
X98076139Y-44679607D01*
X98076139Y-44796844D01*
X98193375Y-44796844D01*
X98193375Y-45383026D01*
X98076139Y-45383026D01*
X98076139Y-45500263D01*
X97958902Y-45500263D01*
X97958902Y-45617500D01*
X97372719Y-45617500D01*
X97372719Y-45500263D01*
X97489956Y-45500263D01*
X97489956Y-44679607D01*
X97724429Y-44679607D01*
X97724429Y-45500263D01*
X97841666Y-45500263D01*
X97841666Y-45383026D01*
X97958902Y-45383026D01*
X97958902Y-44796844D01*
X97841666Y-44796844D01*
X97841666Y-44679607D01*
X97724429Y-44679607D01*
X97489956Y-44679607D01*
X97372719Y-44679607D01*
X97372719Y-44562370D01*
X97958902Y-44562370D01*
X97958902Y-44679607D01*
G37*
G36*
X99824917Y-44679607D02*
G01*
X99942154Y-44679607D01*
X99942154Y-44796844D01*
X100059391Y-44796844D01*
X100059391Y-45383026D01*
X99942154Y-45383026D01*
X99942154Y-45500263D01*
X99824917Y-45500263D01*
X99824917Y-45617500D01*
X99238735Y-45617500D01*
X99238735Y-45500263D01*
X99355971Y-45500263D01*
X99355971Y-44679607D01*
X99590444Y-44679607D01*
X99590444Y-45500263D01*
X99707681Y-45500263D01*
X99707681Y-45383026D01*
X99824917Y-45383026D01*
X99824917Y-44796844D01*
X99707681Y-44796844D01*
X99707681Y-44679607D01*
X99590444Y-44679607D01*
X99355971Y-44679607D01*
X99238735Y-44679607D01*
X99238735Y-44562370D01*
X99824917Y-44562370D01*
X99824917Y-44679607D01*
G37*
G36*
X100875162Y-44679607D02*
G01*
X100992398Y-44679607D01*
X100992398Y-45031317D01*
X100875162Y-45031317D01*
X100875162Y-45265790D01*
X100992398Y-45265790D01*
X100992398Y-45617500D01*
X100757925Y-45617500D01*
X100757925Y-45265790D01*
X100640689Y-45265790D01*
X100640689Y-45148553D01*
X100523452Y-45148553D01*
X100523452Y-45617500D01*
X100171742Y-45617500D01*
X100171742Y-45500263D01*
X100288979Y-45500263D01*
X100288979Y-44679607D01*
X100523452Y-44679607D01*
X100523452Y-45031317D01*
X100757925Y-45031317D01*
X100757925Y-44679607D01*
X100523452Y-44679607D01*
X100288979Y-44679607D01*
X100171742Y-44679607D01*
X100171742Y-44562370D01*
X100875162Y-44562370D01*
X100875162Y-44679607D01*
G37*
G36*
X101690933Y-45500263D02*
G01*
X101808169Y-45500263D01*
X101808169Y-45617500D01*
X101339223Y-45617500D01*
X101339223Y-45500263D01*
X101456460Y-45500263D01*
X101456460Y-44679607D01*
X101339223Y-44679607D01*
X101339223Y-44562370D01*
X101808169Y-44562370D01*
X101808169Y-44679607D01*
X101690933Y-44679607D01*
X101690933Y-45500263D01*
G37*
G36*
X102037758Y-45265790D02*
G01*
X102037758Y-44562370D01*
X102272231Y-44562370D01*
X102272231Y-45265790D01*
X102389467Y-45265790D01*
X102389467Y-45383026D01*
X102506704Y-45383026D01*
X102506704Y-45265790D01*
X102623940Y-45265790D01*
X102623940Y-44562370D01*
X102858414Y-44562370D01*
X102858414Y-45265790D01*
X102741177Y-45265790D01*
X102741177Y-45383026D01*
X102623940Y-45383026D01*
X102623940Y-45500263D01*
X102506704Y-45500263D01*
X102506704Y-45617500D01*
X102389467Y-45617500D01*
X102389467Y-45500263D01*
X102272231Y-45500263D01*
X102272231Y-45383026D01*
X102154994Y-45383026D01*
X102154994Y-45265790D01*
X102037758Y-45265790D01*
G37*
G36*
X102970765Y-45617500D02*
G01*
X102970765Y-45500263D01*
X103088002Y-45500263D01*
X103088002Y-44679607D01*
X102970765Y-44679607D01*
X102970765Y-44562370D01*
X103791421Y-44562370D01*
X103791421Y-44914080D01*
X103674185Y-44914080D01*
X103674185Y-44796844D01*
X103556948Y-44796844D01*
X103556948Y-44679607D01*
X103322475Y-44679607D01*
X103322475Y-45031317D01*
X103439712Y-45031317D01*
X103439712Y-44914080D01*
X103556948Y-44914080D01*
X103556948Y-45265790D01*
X103439712Y-45265790D01*
X103439712Y-45148553D01*
X103322475Y-45148553D01*
X103322475Y-45500263D01*
X103556948Y-45500263D01*
X103556948Y-45383026D01*
X103674185Y-45383026D01*
X103674185Y-45265790D01*
X103791421Y-45265790D01*
X103791421Y-45617500D01*
X102970765Y-45617500D01*
G37*
G36*
X104607192Y-44679607D02*
G01*
X104724429Y-44679607D01*
X104724429Y-45031317D01*
X104607192Y-45031317D01*
X104607192Y-45265790D01*
X104724429Y-45265790D01*
X104724429Y-45617500D01*
X104489956Y-45617500D01*
X104489956Y-45265790D01*
X104372719Y-45265790D01*
X104372719Y-45148553D01*
X104255483Y-45148553D01*
X104255483Y-45617500D01*
X103903773Y-45617500D01*
X103903773Y-45500263D01*
X104021010Y-45500263D01*
X104021010Y-44679607D01*
X104255483Y-44679607D01*
X104255483Y-45031317D01*
X104489956Y-45031317D01*
X104489956Y-44679607D01*
X104255483Y-44679607D01*
X104021010Y-44679607D01*
X103903773Y-44679607D01*
X103903773Y-44562370D01*
X104607192Y-44562370D01*
X104607192Y-44679607D01*
G37*
D11*
X81314942Y-55157163D02*
X80838752Y-55157163D01*
X80838752Y-55157163D02*
X80838752Y-54157163D01*
X81838752Y-54157163D02*
X82029228Y-54157163D01*
X82029228Y-54157163D02*
X82124466Y-54204782D01*
X82124466Y-54204782D02*
X82219704Y-54300020D01*
X82219704Y-54300020D02*
X82267323Y-54490496D01*
X82267323Y-54490496D02*
X82267323Y-54823829D01*
X82267323Y-54823829D02*
X82219704Y-55014305D01*
X82219704Y-55014305D02*
X82124466Y-55109544D01*
X82124466Y-55109544D02*
X82029228Y-55157163D01*
X82029228Y-55157163D02*
X81838752Y-55157163D01*
X81838752Y-55157163D02*
X81743514Y-55109544D01*
X81743514Y-55109544D02*
X81648276Y-55014305D01*
X81648276Y-55014305D02*
X81600657Y-54823829D01*
X81600657Y-54823829D02*
X81600657Y-54490496D01*
X81600657Y-54490496D02*
X81648276Y-54300020D01*
X81648276Y-54300020D02*
X81743514Y-54204782D01*
X81743514Y-54204782D02*
X81838752Y-54157163D01*
X82600657Y-54157163D02*
X82838752Y-55157163D01*
X82838752Y-55157163D02*
X83029228Y-54442877D01*
X83029228Y-54442877D02*
X83219704Y-55157163D01*
X83219704Y-55157163D02*
X83457800Y-54157163D01*
X101204227Y-54204782D02*
X101108989Y-54157163D01*
X101108989Y-54157163D02*
X100966132Y-54157163D01*
X100966132Y-54157163D02*
X100823275Y-54204782D01*
X100823275Y-54204782D02*
X100728037Y-54300020D01*
X100728037Y-54300020D02*
X100680418Y-54395258D01*
X100680418Y-54395258D02*
X100632799Y-54585734D01*
X100632799Y-54585734D02*
X100632799Y-54728591D01*
X100632799Y-54728591D02*
X100680418Y-54919067D01*
X100680418Y-54919067D02*
X100728037Y-55014305D01*
X100728037Y-55014305D02*
X100823275Y-55109544D01*
X100823275Y-55109544D02*
X100966132Y-55157163D01*
X100966132Y-55157163D02*
X101061370Y-55157163D01*
X101061370Y-55157163D02*
X101204227Y-55109544D01*
X101204227Y-55109544D02*
X101251846Y-55061924D01*
X101251846Y-55061924D02*
X101251846Y-54728591D01*
X101251846Y-54728591D02*
X101061370Y-54728591D01*
X101680418Y-55157163D02*
X101680418Y-54157163D01*
X101680418Y-54157163D02*
X102251846Y-55157163D01*
X102251846Y-55157163D02*
X102251846Y-54157163D01*
X102728037Y-55157163D02*
X102728037Y-54157163D01*
X102728037Y-54157163D02*
X102966132Y-54157163D01*
X102966132Y-54157163D02*
X103108989Y-54204782D01*
X103108989Y-54204782D02*
X103204227Y-54300020D01*
X103204227Y-54300020D02*
X103251846Y-54395258D01*
X103251846Y-54395258D02*
X103299465Y-54585734D01*
X103299465Y-54585734D02*
X103299465Y-54728591D01*
X103299465Y-54728591D02*
X103251846Y-54919067D01*
X103251846Y-54919067D02*
X103204227Y-55014305D01*
X103204227Y-55014305D02*
X103108989Y-55109544D01*
X103108989Y-55109544D02*
X102966132Y-55157163D01*
X102966132Y-55157163D02*
X102728037Y-55157163D01*
X82001846Y-49311924D02*
X81954227Y-49359544D01*
X81954227Y-49359544D02*
X81811370Y-49407163D01*
X81811370Y-49407163D02*
X81716132Y-49407163D01*
X81716132Y-49407163D02*
X81573275Y-49359544D01*
X81573275Y-49359544D02*
X81478037Y-49264305D01*
X81478037Y-49264305D02*
X81430418Y-49169067D01*
X81430418Y-49169067D02*
X81382799Y-48978591D01*
X81382799Y-48978591D02*
X81382799Y-48835734D01*
X81382799Y-48835734D02*
X81430418Y-48645258D01*
X81430418Y-48645258D02*
X81478037Y-48550020D01*
X81478037Y-48550020D02*
X81573275Y-48454782D01*
X81573275Y-48454782D02*
X81716132Y-48407163D01*
X81716132Y-48407163D02*
X81811370Y-48407163D01*
X81811370Y-48407163D02*
X81954227Y-48454782D01*
X81954227Y-48454782D02*
X82001846Y-48502401D01*
X82858989Y-49407163D02*
X82858989Y-48883353D01*
X82858989Y-48883353D02*
X82811370Y-48788115D01*
X82811370Y-48788115D02*
X82716132Y-48740496D01*
X82716132Y-48740496D02*
X82525656Y-48740496D01*
X82525656Y-48740496D02*
X82430418Y-48788115D01*
X82858989Y-49359544D02*
X82763751Y-49407163D01*
X82763751Y-49407163D02*
X82525656Y-49407163D01*
X82525656Y-49407163D02*
X82430418Y-49359544D01*
X82430418Y-49359544D02*
X82382799Y-49264305D01*
X82382799Y-49264305D02*
X82382799Y-49169067D01*
X82382799Y-49169067D02*
X82430418Y-49073829D01*
X82430418Y-49073829D02*
X82525656Y-49026210D01*
X82525656Y-49026210D02*
X82763751Y-49026210D01*
X82763751Y-49026210D02*
X82858989Y-48978591D01*
X83335180Y-48740496D02*
X83335180Y-49407163D01*
X83335180Y-48835734D02*
X83382799Y-48788115D01*
X83382799Y-48788115D02*
X83478037Y-48740496D01*
X83478037Y-48740496D02*
X83620894Y-48740496D01*
X83620894Y-48740496D02*
X83716132Y-48788115D01*
X83716132Y-48788115D02*
X83763751Y-48883353D01*
X83763751Y-48883353D02*
X83763751Y-49407163D01*
X84001847Y-49502401D02*
X84763751Y-49502401D01*
X85335180Y-48883353D02*
X85478037Y-48930972D01*
X85478037Y-48930972D02*
X85525656Y-48978591D01*
X85525656Y-48978591D02*
X85573275Y-49073829D01*
X85573275Y-49073829D02*
X85573275Y-49216686D01*
X85573275Y-49216686D02*
X85525656Y-49311924D01*
X85525656Y-49311924D02*
X85478037Y-49359544D01*
X85478037Y-49359544D02*
X85382799Y-49407163D01*
X85382799Y-49407163D02*
X85001847Y-49407163D01*
X85001847Y-49407163D02*
X85001847Y-48407163D01*
X85001847Y-48407163D02*
X85335180Y-48407163D01*
X85335180Y-48407163D02*
X85430418Y-48454782D01*
X85430418Y-48454782D02*
X85478037Y-48502401D01*
X85478037Y-48502401D02*
X85525656Y-48597639D01*
X85525656Y-48597639D02*
X85525656Y-48692877D01*
X85525656Y-48692877D02*
X85478037Y-48788115D01*
X85478037Y-48788115D02*
X85430418Y-48835734D01*
X85430418Y-48835734D02*
X85335180Y-48883353D01*
X85335180Y-48883353D02*
X85001847Y-48883353D01*
X86430418Y-48740496D02*
X86430418Y-49407163D01*
X86001847Y-48740496D02*
X86001847Y-49264305D01*
X86001847Y-49264305D02*
X86049466Y-49359544D01*
X86049466Y-49359544D02*
X86144704Y-49407163D01*
X86144704Y-49407163D02*
X86287561Y-49407163D01*
X86287561Y-49407163D02*
X86382799Y-49359544D01*
X86382799Y-49359544D02*
X86430418Y-49311924D01*
X86858990Y-49359544D02*
X86954228Y-49407163D01*
X86954228Y-49407163D02*
X87144704Y-49407163D01*
X87144704Y-49407163D02*
X87239942Y-49359544D01*
X87239942Y-49359544D02*
X87287561Y-49264305D01*
X87287561Y-49264305D02*
X87287561Y-49216686D01*
X87287561Y-49216686D02*
X87239942Y-49121448D01*
X87239942Y-49121448D02*
X87144704Y-49073829D01*
X87144704Y-49073829D02*
X87001847Y-49073829D01*
X87001847Y-49073829D02*
X86906609Y-49026210D01*
X86906609Y-49026210D02*
X86858990Y-48930972D01*
X86858990Y-48930972D02*
X86858990Y-48883353D01*
X86858990Y-48883353D02*
X86906609Y-48788115D01*
X86906609Y-48788115D02*
X87001847Y-48740496D01*
X87001847Y-48740496D02*
X87144704Y-48740496D01*
X87144704Y-48740496D02*
X87239942Y-48788115D01*
X113695895Y-52369663D02*
X114267323Y-52369663D01*
X113981609Y-53369663D02*
X113981609Y-52369663D01*
X114505419Y-53369663D02*
X115029228Y-52702996D01*
X114505419Y-52702996D02*
X115029228Y-53369663D01*
X116124466Y-52322044D02*
X115267324Y-53607758D01*
X117029228Y-53369663D02*
X116695895Y-52893472D01*
X116457800Y-53369663D02*
X116457800Y-52369663D01*
X116457800Y-52369663D02*
X116838752Y-52369663D01*
X116838752Y-52369663D02*
X116933990Y-52417282D01*
X116933990Y-52417282D02*
X116981609Y-52464901D01*
X116981609Y-52464901D02*
X117029228Y-52560139D01*
X117029228Y-52560139D02*
X117029228Y-52702996D01*
X117029228Y-52702996D02*
X116981609Y-52798234D01*
X116981609Y-52798234D02*
X116933990Y-52845853D01*
X116933990Y-52845853D02*
X116838752Y-52893472D01*
X116838752Y-52893472D02*
X116457800Y-52893472D01*
X117362562Y-53369663D02*
X117886371Y-52702996D01*
X117362562Y-52702996D02*
X117886371Y-53369663D01*
D12*
X113604761Y-61265057D02*
X113509523Y-61217438D01*
X113509523Y-61217438D02*
X113414285Y-61122200D01*
X113414285Y-61122200D02*
X113271428Y-60979342D01*
X113271428Y-60979342D02*
X113176190Y-60931723D01*
X113176190Y-60931723D02*
X113080952Y-60931723D01*
X113128571Y-61169819D02*
X113033333Y-61122200D01*
X113033333Y-61122200D02*
X112938095Y-61026961D01*
X112938095Y-61026961D02*
X112890476Y-60836485D01*
X112890476Y-60836485D02*
X112890476Y-60503152D01*
X112890476Y-60503152D02*
X112938095Y-60312676D01*
X112938095Y-60312676D02*
X113033333Y-60217438D01*
X113033333Y-60217438D02*
X113128571Y-60169819D01*
X113128571Y-60169819D02*
X113319047Y-60169819D01*
X113319047Y-60169819D02*
X113414285Y-60217438D01*
X113414285Y-60217438D02*
X113509523Y-60312676D01*
X113509523Y-60312676D02*
X113557142Y-60503152D01*
X113557142Y-60503152D02*
X113557142Y-60836485D01*
X113557142Y-60836485D02*
X113509523Y-61026961D01*
X113509523Y-61026961D02*
X113414285Y-61122200D01*
X113414285Y-61122200D02*
X113319047Y-61169819D01*
X113319047Y-61169819D02*
X113128571Y-61169819D01*
X114509523Y-61169819D02*
X113938095Y-61169819D01*
X114223809Y-61169819D02*
X114223809Y-60169819D01*
X114223809Y-60169819D02*
X114128571Y-60312676D01*
X114128571Y-60312676D02*
X114033333Y-60407914D01*
X114033333Y-60407914D02*
X113938095Y-60455533D01*
X98203754Y-65439456D02*
X97631335Y-65338441D01*
X97799693Y-65843517D02*
X97092587Y-65136410D01*
X97092587Y-65136410D02*
X97361961Y-64867036D01*
X97361961Y-64867036D02*
X97462976Y-64833364D01*
X97462976Y-64833364D02*
X97530319Y-64833364D01*
X97530319Y-64833364D02*
X97631335Y-64867036D01*
X97631335Y-64867036D02*
X97732350Y-64968051D01*
X97732350Y-64968051D02*
X97766022Y-65069067D01*
X97766022Y-65069067D02*
X97766022Y-65136410D01*
X97766022Y-65136410D02*
X97732350Y-65237425D01*
X97732350Y-65237425D02*
X97462976Y-65506799D01*
X98338441Y-64361960D02*
X98809846Y-64833364D01*
X97900709Y-64260945D02*
X98237426Y-64934380D01*
X98237426Y-64934380D02*
X98675159Y-64496647D01*
X96109580Y-76916666D02*
X96157200Y-76964285D01*
X96157200Y-76964285D02*
X96204819Y-77107142D01*
X96204819Y-77107142D02*
X96204819Y-77202380D01*
X96204819Y-77202380D02*
X96157200Y-77345237D01*
X96157200Y-77345237D02*
X96061961Y-77440475D01*
X96061961Y-77440475D02*
X95966723Y-77488094D01*
X95966723Y-77488094D02*
X95776247Y-77535713D01*
X95776247Y-77535713D02*
X95633390Y-77535713D01*
X95633390Y-77535713D02*
X95442914Y-77488094D01*
X95442914Y-77488094D02*
X95347676Y-77440475D01*
X95347676Y-77440475D02*
X95252438Y-77345237D01*
X95252438Y-77345237D02*
X95204819Y-77202380D01*
X95204819Y-77202380D02*
X95204819Y-77107142D01*
X95204819Y-77107142D02*
X95252438Y-76964285D01*
X95252438Y-76964285D02*
X95300057Y-76916666D01*
X95204819Y-76583332D02*
X95204819Y-75916666D01*
X95204819Y-75916666D02*
X96204819Y-76345237D01*
X83386411Y-81872112D02*
X83386411Y-81939456D01*
X83386411Y-81939456D02*
X83319067Y-82074143D01*
X83319067Y-82074143D02*
X83251724Y-82141486D01*
X83251724Y-82141486D02*
X83117037Y-82208830D01*
X83117037Y-82208830D02*
X82982350Y-82208830D01*
X82982350Y-82208830D02*
X82881335Y-82175158D01*
X82881335Y-82175158D02*
X82712976Y-82074143D01*
X82712976Y-82074143D02*
X82611961Y-81973128D01*
X82611961Y-81973128D02*
X82510945Y-81804769D01*
X82510945Y-81804769D02*
X82477274Y-81703754D01*
X82477274Y-81703754D02*
X82477274Y-81569067D01*
X82477274Y-81569067D02*
X82544617Y-81434380D01*
X82544617Y-81434380D02*
X82611961Y-81367036D01*
X82611961Y-81367036D02*
X82746648Y-81299693D01*
X82746648Y-81299693D02*
X82813991Y-81299693D01*
X84127189Y-81266021D02*
X83723128Y-81670082D01*
X83925159Y-81468051D02*
X83218052Y-80760945D01*
X83218052Y-80760945D02*
X83251724Y-80929303D01*
X83251724Y-80929303D02*
X83251724Y-81063990D01*
X83251724Y-81063990D02*
X83218052Y-81165006D01*
X77258333Y-46024819D02*
X76925000Y-45548628D01*
X76686905Y-46024819D02*
X76686905Y-45024819D01*
X76686905Y-45024819D02*
X77067857Y-45024819D01*
X77067857Y-45024819D02*
X77163095Y-45072438D01*
X77163095Y-45072438D02*
X77210714Y-45120057D01*
X77210714Y-45120057D02*
X77258333Y-45215295D01*
X77258333Y-45215295D02*
X77258333Y-45358152D01*
X77258333Y-45358152D02*
X77210714Y-45453390D01*
X77210714Y-45453390D02*
X77163095Y-45501009D01*
X77163095Y-45501009D02*
X77067857Y-45548628D01*
X77067857Y-45548628D02*
X76686905Y-45548628D01*
X77734524Y-46024819D02*
X77925000Y-46024819D01*
X77925000Y-46024819D02*
X78020238Y-45977200D01*
X78020238Y-45977200D02*
X78067857Y-45929580D01*
X78067857Y-45929580D02*
X78163095Y-45786723D01*
X78163095Y-45786723D02*
X78210714Y-45596247D01*
X78210714Y-45596247D02*
X78210714Y-45215295D01*
X78210714Y-45215295D02*
X78163095Y-45120057D01*
X78163095Y-45120057D02*
X78115476Y-45072438D01*
X78115476Y-45072438D02*
X78020238Y-45024819D01*
X78020238Y-45024819D02*
X77829762Y-45024819D01*
X77829762Y-45024819D02*
X77734524Y-45072438D01*
X77734524Y-45072438D02*
X77686905Y-45120057D01*
X77686905Y-45120057D02*
X77639286Y-45215295D01*
X77639286Y-45215295D02*
X77639286Y-45453390D01*
X77639286Y-45453390D02*
X77686905Y-45548628D01*
X77686905Y-45548628D02*
X77734524Y-45596247D01*
X77734524Y-45596247D02*
X77829762Y-45643866D01*
X77829762Y-45643866D02*
X78020238Y-45643866D01*
X78020238Y-45643866D02*
X78115476Y-45596247D01*
X78115476Y-45596247D02*
X78163095Y-45548628D01*
X78163095Y-45548628D02*
X78210714Y-45453390D01*
X90627888Y-73636411D02*
X90560544Y-73636411D01*
X90560544Y-73636411D02*
X90425857Y-73569067D01*
X90425857Y-73569067D02*
X90358514Y-73501724D01*
X90358514Y-73501724D02*
X90291170Y-73367037D01*
X90291170Y-73367037D02*
X90291170Y-73232350D01*
X90291170Y-73232350D02*
X90324842Y-73131335D01*
X90324842Y-73131335D02*
X90425857Y-72962976D01*
X90425857Y-72962976D02*
X90526872Y-72861961D01*
X90526872Y-72861961D02*
X90695231Y-72760945D01*
X90695231Y-72760945D02*
X90796246Y-72727274D01*
X90796246Y-72727274D02*
X90930933Y-72727274D01*
X90930933Y-72727274D02*
X91065620Y-72794617D01*
X91065620Y-72794617D02*
X91132964Y-72861961D01*
X91132964Y-72861961D02*
X91200307Y-72996648D01*
X91200307Y-72996648D02*
X91200307Y-73063991D01*
X91638040Y-73838441D02*
X91166636Y-74309846D01*
X91739055Y-73400709D02*
X91065620Y-73737426D01*
X91065620Y-73737426D02*
X91503353Y-74175159D01*
X74690180Y-53056666D02*
X73975895Y-53056666D01*
X73975895Y-53056666D02*
X73833038Y-53009047D01*
X73833038Y-53009047D02*
X73737800Y-52913809D01*
X73737800Y-52913809D02*
X73690180Y-52770952D01*
X73690180Y-52770952D02*
X73690180Y-52675714D01*
X74690180Y-53961428D02*
X74690180Y-53770952D01*
X74690180Y-53770952D02*
X74642561Y-53675714D01*
X74642561Y-53675714D02*
X74594942Y-53628095D01*
X74594942Y-53628095D02*
X74452085Y-53532857D01*
X74452085Y-53532857D02*
X74261609Y-53485238D01*
X74261609Y-53485238D02*
X73880657Y-53485238D01*
X73880657Y-53485238D02*
X73785419Y-53532857D01*
X73785419Y-53532857D02*
X73737800Y-53580476D01*
X73737800Y-53580476D02*
X73690180Y-53675714D01*
X73690180Y-53675714D02*
X73690180Y-53866190D01*
X73690180Y-53866190D02*
X73737800Y-53961428D01*
X73737800Y-53961428D02*
X73785419Y-54009047D01*
X73785419Y-54009047D02*
X73880657Y-54056666D01*
X73880657Y-54056666D02*
X74118752Y-54056666D01*
X74118752Y-54056666D02*
X74213990Y-54009047D01*
X74213990Y-54009047D02*
X74261609Y-53961428D01*
X74261609Y-53961428D02*
X74309228Y-53866190D01*
X74309228Y-53866190D02*
X74309228Y-53675714D01*
X74309228Y-53675714D02*
X74261609Y-53580476D01*
X74261609Y-53580476D02*
X74213990Y-53532857D01*
X74213990Y-53532857D02*
X74118752Y-53485238D01*
X72960549Y-71795828D02*
X72960549Y-71863172D01*
X72960549Y-71863172D02*
X72893205Y-71997859D01*
X72893205Y-71997859D02*
X72825862Y-72065202D01*
X72825862Y-72065202D02*
X72691175Y-72132546D01*
X72691175Y-72132546D02*
X72556488Y-72132546D01*
X72556488Y-72132546D02*
X72455473Y-72098874D01*
X72455473Y-72098874D02*
X72287114Y-71997859D01*
X72287114Y-71997859D02*
X72186099Y-71896844D01*
X72186099Y-71896844D02*
X72085083Y-71728485D01*
X72085083Y-71728485D02*
X72051412Y-71627470D01*
X72051412Y-71627470D02*
X72051412Y-71492783D01*
X72051412Y-71492783D02*
X72118755Y-71358096D01*
X72118755Y-71358096D02*
X72186099Y-71290752D01*
X72186099Y-71290752D02*
X72320786Y-71223409D01*
X72320786Y-71223409D02*
X72388129Y-71223409D01*
X73701327Y-71189737D02*
X73297266Y-71593798D01*
X73499297Y-71391767D02*
X72792190Y-70684661D01*
X72792190Y-70684661D02*
X72825862Y-70853019D01*
X72825862Y-70853019D02*
X72825862Y-70987706D01*
X72825862Y-70987706D02*
X72792190Y-71088722D01*
X74374763Y-70516302D02*
X73970702Y-70920363D01*
X74172732Y-70718332D02*
X73465625Y-70011225D01*
X73465625Y-70011225D02*
X73499297Y-70179584D01*
X73499297Y-70179584D02*
X73499297Y-70314271D01*
X73499297Y-70314271D02*
X73465625Y-70415286D01*
X83371203Y-73745068D02*
X83472218Y-73172649D01*
X82967142Y-73341007D02*
X83674249Y-72633901D01*
X83674249Y-72633901D02*
X83943623Y-72903275D01*
X83943623Y-72903275D02*
X83977295Y-73004290D01*
X83977295Y-73004290D02*
X83977295Y-73071633D01*
X83977295Y-73071633D02*
X83943623Y-73172649D01*
X83943623Y-73172649D02*
X83842608Y-73273664D01*
X83842608Y-73273664D02*
X83741592Y-73307336D01*
X83741592Y-73307336D02*
X83674249Y-73307336D01*
X83674249Y-73307336D02*
X83573234Y-73273664D01*
X83573234Y-73273664D02*
X83303860Y-73004290D01*
X84684401Y-73644053D02*
X84549714Y-73509366D01*
X84549714Y-73509366D02*
X84448699Y-73475694D01*
X84448699Y-73475694D02*
X84381356Y-73475694D01*
X84381356Y-73475694D02*
X84212997Y-73509366D01*
X84212997Y-73509366D02*
X84044638Y-73610381D01*
X84044638Y-73610381D02*
X83775264Y-73879755D01*
X83775264Y-73879755D02*
X83741592Y-73980771D01*
X83741592Y-73980771D02*
X83741592Y-74048114D01*
X83741592Y-74048114D02*
X83775264Y-74149129D01*
X83775264Y-74149129D02*
X83909951Y-74283816D01*
X83909951Y-74283816D02*
X84010966Y-74317488D01*
X84010966Y-74317488D02*
X84078310Y-74317488D01*
X84078310Y-74317488D02*
X84179325Y-74283816D01*
X84179325Y-74283816D02*
X84347684Y-74115458D01*
X84347684Y-74115458D02*
X84381356Y-74014442D01*
X84381356Y-74014442D02*
X84381356Y-73947099D01*
X84381356Y-73947099D02*
X84347684Y-73846084D01*
X84347684Y-73846084D02*
X84212997Y-73711397D01*
X84212997Y-73711397D02*
X84111982Y-73677725D01*
X84111982Y-73677725D02*
X84044638Y-73677725D01*
X84044638Y-73677725D02*
X83943623Y-73711397D01*
X78096753Y-75177724D02*
X77524333Y-75750144D01*
X77524333Y-75750144D02*
X77490661Y-75851159D01*
X77490661Y-75851159D02*
X77490661Y-75918503D01*
X77490661Y-75918503D02*
X77524333Y-76019518D01*
X77524333Y-76019518D02*
X77659020Y-76154205D01*
X77659020Y-76154205D02*
X77760035Y-76187877D01*
X77760035Y-76187877D02*
X77827379Y-76187877D01*
X77827379Y-76187877D02*
X77928394Y-76154205D01*
X77928394Y-76154205D02*
X78500814Y-75581785D01*
X78904875Y-76457251D02*
X78433470Y-76928655D01*
X79005890Y-76019518D02*
X78332455Y-76356236D01*
X78332455Y-76356236D02*
X78770188Y-76793968D01*
X95203754Y-61439456D02*
X94631335Y-61338441D01*
X94799693Y-61843517D02*
X94092587Y-61136410D01*
X94092587Y-61136410D02*
X94361961Y-60867036D01*
X94361961Y-60867036D02*
X94462976Y-60833364D01*
X94462976Y-60833364D02*
X94530319Y-60833364D01*
X94530319Y-60833364D02*
X94631335Y-60867036D01*
X94631335Y-60867036D02*
X94732350Y-60968051D01*
X94732350Y-60968051D02*
X94766022Y-61069067D01*
X94766022Y-61069067D02*
X94766022Y-61136410D01*
X94766022Y-61136410D02*
X94732350Y-61237425D01*
X94732350Y-61237425D02*
X94462976Y-61506799D01*
X94732350Y-60496647D02*
X95170083Y-60058914D01*
X95170083Y-60058914D02*
X95203754Y-60563990D01*
X95203754Y-60563990D02*
X95304770Y-60462975D01*
X95304770Y-60462975D02*
X95405785Y-60429303D01*
X95405785Y-60429303D02*
X95473128Y-60429303D01*
X95473128Y-60429303D02*
X95574144Y-60462975D01*
X95574144Y-60462975D02*
X95742502Y-60631334D01*
X95742502Y-60631334D02*
X95776174Y-60732349D01*
X95776174Y-60732349D02*
X95776174Y-60799693D01*
X95776174Y-60799693D02*
X95742502Y-60900708D01*
X95742502Y-60900708D02*
X95540472Y-61102738D01*
X95540472Y-61102738D02*
X95439457Y-61136410D01*
X95439457Y-61136410D02*
X95372113Y-61136410D01*
X92111384Y-58834254D02*
X92111384Y-58901598D01*
X92111384Y-58901598D02*
X92044040Y-59036285D01*
X92044040Y-59036285D02*
X91976697Y-59103628D01*
X91976697Y-59103628D02*
X91842010Y-59170972D01*
X91842010Y-59170972D02*
X91707323Y-59170972D01*
X91707323Y-59170972D02*
X91606308Y-59137300D01*
X91606308Y-59137300D02*
X91437949Y-59036285D01*
X91437949Y-59036285D02*
X91336934Y-58935270D01*
X91336934Y-58935270D02*
X91235918Y-58766911D01*
X91235918Y-58766911D02*
X91202247Y-58665896D01*
X91202247Y-58665896D02*
X91202247Y-58531209D01*
X91202247Y-58531209D02*
X91269590Y-58396522D01*
X91269590Y-58396522D02*
X91336934Y-58329178D01*
X91336934Y-58329178D02*
X91471621Y-58261835D01*
X91471621Y-58261835D02*
X91538964Y-58261835D01*
X92515445Y-58564880D02*
X92650132Y-58430193D01*
X92650132Y-58430193D02*
X92683804Y-58329178D01*
X92683804Y-58329178D02*
X92683804Y-58261835D01*
X92683804Y-58261835D02*
X92650132Y-58093476D01*
X92650132Y-58093476D02*
X92549117Y-57925117D01*
X92549117Y-57925117D02*
X92279743Y-57655743D01*
X92279743Y-57655743D02*
X92178727Y-57622071D01*
X92178727Y-57622071D02*
X92111384Y-57622071D01*
X92111384Y-57622071D02*
X92010369Y-57655743D01*
X92010369Y-57655743D02*
X91875682Y-57790430D01*
X91875682Y-57790430D02*
X91842010Y-57891445D01*
X91842010Y-57891445D02*
X91842010Y-57958789D01*
X91842010Y-57958789D02*
X91875682Y-58059804D01*
X91875682Y-58059804D02*
X92044040Y-58228163D01*
X92044040Y-58228163D02*
X92145056Y-58261835D01*
X92145056Y-58261835D02*
X92212399Y-58261835D01*
X92212399Y-58261835D02*
X92313414Y-58228163D01*
X92313414Y-58228163D02*
X92448101Y-58093476D01*
X92448101Y-58093476D02*
X92481773Y-57992461D01*
X92481773Y-57992461D02*
X92481773Y-57925117D01*
X92481773Y-57925117D02*
X92448101Y-57824102D01*
X106583333Y-74954819D02*
X106250000Y-74478628D01*
X106011905Y-74954819D02*
X106011905Y-73954819D01*
X106011905Y-73954819D02*
X106392857Y-73954819D01*
X106392857Y-73954819D02*
X106488095Y-74002438D01*
X106488095Y-74002438D02*
X106535714Y-74050057D01*
X106535714Y-74050057D02*
X106583333Y-74145295D01*
X106583333Y-74145295D02*
X106583333Y-74288152D01*
X106583333Y-74288152D02*
X106535714Y-74383390D01*
X106535714Y-74383390D02*
X106488095Y-74431009D01*
X106488095Y-74431009D02*
X106392857Y-74478628D01*
X106392857Y-74478628D02*
X106011905Y-74478628D01*
X106916667Y-73954819D02*
X107583333Y-73954819D01*
X107583333Y-73954819D02*
X107154762Y-74954819D01*
X106508333Y-79954819D02*
X106175000Y-79478628D01*
X105936905Y-79954819D02*
X105936905Y-78954819D01*
X105936905Y-78954819D02*
X106317857Y-78954819D01*
X106317857Y-78954819D02*
X106413095Y-79002438D01*
X106413095Y-79002438D02*
X106460714Y-79050057D01*
X106460714Y-79050057D02*
X106508333Y-79145295D01*
X106508333Y-79145295D02*
X106508333Y-79288152D01*
X106508333Y-79288152D02*
X106460714Y-79383390D01*
X106460714Y-79383390D02*
X106413095Y-79431009D01*
X106413095Y-79431009D02*
X106317857Y-79478628D01*
X106317857Y-79478628D02*
X105936905Y-79478628D01*
X106889286Y-79050057D02*
X106936905Y-79002438D01*
X106936905Y-79002438D02*
X107032143Y-78954819D01*
X107032143Y-78954819D02*
X107270238Y-78954819D01*
X107270238Y-78954819D02*
X107365476Y-79002438D01*
X107365476Y-79002438D02*
X107413095Y-79050057D01*
X107413095Y-79050057D02*
X107460714Y-79145295D01*
X107460714Y-79145295D02*
X107460714Y-79240533D01*
X107460714Y-79240533D02*
X107413095Y-79383390D01*
X107413095Y-79383390D02*
X106841667Y-79954819D01*
X106841667Y-79954819D02*
X107460714Y-79954819D01*
X86921376Y-68511177D02*
X86348956Y-69083597D01*
X86348956Y-69083597D02*
X86315284Y-69184612D01*
X86315284Y-69184612D02*
X86315284Y-69251956D01*
X86315284Y-69251956D02*
X86348956Y-69352971D01*
X86348956Y-69352971D02*
X86483643Y-69487658D01*
X86483643Y-69487658D02*
X86584658Y-69521330D01*
X86584658Y-69521330D02*
X86652002Y-69521330D01*
X86652002Y-69521330D02*
X86753017Y-69487658D01*
X86753017Y-69487658D02*
X87325437Y-68915238D01*
X87325437Y-70329452D02*
X86921376Y-69925391D01*
X87123406Y-70127421D02*
X87830513Y-69420315D01*
X87830513Y-69420315D02*
X87662154Y-69453986D01*
X87662154Y-69453986D02*
X87527467Y-69453986D01*
X87527467Y-69453986D02*
X87426452Y-69420315D01*
X77966666Y-66689819D02*
X77966666Y-67404104D01*
X77966666Y-67404104D02*
X77919047Y-67546961D01*
X77919047Y-67546961D02*
X77823809Y-67642200D01*
X77823809Y-67642200D02*
X77680952Y-67689819D01*
X77680952Y-67689819D02*
X77585714Y-67689819D01*
X78919047Y-66689819D02*
X78442857Y-66689819D01*
X78442857Y-66689819D02*
X78395238Y-67166009D01*
X78395238Y-67166009D02*
X78442857Y-67118390D01*
X78442857Y-67118390D02*
X78538095Y-67070771D01*
X78538095Y-67070771D02*
X78776190Y-67070771D01*
X78776190Y-67070771D02*
X78871428Y-67118390D01*
X78871428Y-67118390D02*
X78919047Y-67166009D01*
X78919047Y-67166009D02*
X78966666Y-67261247D01*
X78966666Y-67261247D02*
X78966666Y-67499342D01*
X78966666Y-67499342D02*
X78919047Y-67594580D01*
X78919047Y-67594580D02*
X78871428Y-67642200D01*
X78871428Y-67642200D02*
X78776190Y-67689819D01*
X78776190Y-67689819D02*
X78538095Y-67689819D01*
X78538095Y-67689819D02*
X78442857Y-67642200D01*
X78442857Y-67642200D02*
X78395238Y-67594580D01*
X80310543Y-70805728D02*
X80411558Y-70233309D01*
X79906482Y-70401667D02*
X80613589Y-69694561D01*
X80613589Y-69694561D02*
X80882963Y-69963935D01*
X80882963Y-69963935D02*
X80916635Y-70064950D01*
X80916635Y-70064950D02*
X80916635Y-70132293D01*
X80916635Y-70132293D02*
X80882963Y-70233309D01*
X80882963Y-70233309D02*
X80781948Y-70334324D01*
X80781948Y-70334324D02*
X80680932Y-70367996D01*
X80680932Y-70367996D02*
X80613589Y-70367996D01*
X80613589Y-70367996D02*
X80512574Y-70334324D01*
X80512574Y-70334324D02*
X80243200Y-70064950D01*
X81657413Y-70738385D02*
X81320696Y-70401667D01*
X81320696Y-70401667D02*
X80950306Y-70704713D01*
X80950306Y-70704713D02*
X81017650Y-70704713D01*
X81017650Y-70704713D02*
X81118665Y-70738385D01*
X81118665Y-70738385D02*
X81287024Y-70906744D01*
X81287024Y-70906744D02*
X81320696Y-71007759D01*
X81320696Y-71007759D02*
X81320696Y-71075102D01*
X81320696Y-71075102D02*
X81287024Y-71176118D01*
X81287024Y-71176118D02*
X81118665Y-71344476D01*
X81118665Y-71344476D02*
X81017650Y-71378148D01*
X81017650Y-71378148D02*
X80950306Y-71378148D01*
X80950306Y-71378148D02*
X80849291Y-71344476D01*
X80849291Y-71344476D02*
X80680932Y-71176118D01*
X80680932Y-71176118D02*
X80647261Y-71075102D01*
X80647261Y-71075102D02*
X80647261Y-71007759D01*
X71857142Y-59524819D02*
X71523809Y-59048628D01*
X71285714Y-59524819D02*
X71285714Y-58524819D01*
X71285714Y-58524819D02*
X71666666Y-58524819D01*
X71666666Y-58524819D02*
X71761904Y-58572438D01*
X71761904Y-58572438D02*
X71809523Y-58620057D01*
X71809523Y-58620057D02*
X71857142Y-58715295D01*
X71857142Y-58715295D02*
X71857142Y-58858152D01*
X71857142Y-58858152D02*
X71809523Y-58953390D01*
X71809523Y-58953390D02*
X71761904Y-59001009D01*
X71761904Y-59001009D02*
X71666666Y-59048628D01*
X71666666Y-59048628D02*
X71285714Y-59048628D01*
X72809523Y-59524819D02*
X72238095Y-59524819D01*
X72523809Y-59524819D02*
X72523809Y-58524819D01*
X72523809Y-58524819D02*
X72428571Y-58667676D01*
X72428571Y-58667676D02*
X72333333Y-58762914D01*
X72333333Y-58762914D02*
X72238095Y-58810533D01*
X73428571Y-58524819D02*
X73523809Y-58524819D01*
X73523809Y-58524819D02*
X73619047Y-58572438D01*
X73619047Y-58572438D02*
X73666666Y-58620057D01*
X73666666Y-58620057D02*
X73714285Y-58715295D01*
X73714285Y-58715295D02*
X73761904Y-58905771D01*
X73761904Y-58905771D02*
X73761904Y-59143866D01*
X73761904Y-59143866D02*
X73714285Y-59334342D01*
X73714285Y-59334342D02*
X73666666Y-59429580D01*
X73666666Y-59429580D02*
X73619047Y-59477200D01*
X73619047Y-59477200D02*
X73523809Y-59524819D01*
X73523809Y-59524819D02*
X73428571Y-59524819D01*
X73428571Y-59524819D02*
X73333333Y-59477200D01*
X73333333Y-59477200D02*
X73285714Y-59429580D01*
X73285714Y-59429580D02*
X73238095Y-59334342D01*
X73238095Y-59334342D02*
X73190476Y-59143866D01*
X73190476Y-59143866D02*
X73190476Y-58905771D01*
X73190476Y-58905771D02*
X73238095Y-58715295D01*
X73238095Y-58715295D02*
X73285714Y-58620057D01*
X73285714Y-58620057D02*
X73333333Y-58572438D01*
X73333333Y-58572438D02*
X73428571Y-58524819D01*
X85310543Y-58453754D02*
X85411558Y-57881335D01*
X84906482Y-58049693D02*
X85613589Y-57342587D01*
X85613589Y-57342587D02*
X85882963Y-57611961D01*
X85882963Y-57611961D02*
X85916635Y-57712976D01*
X85916635Y-57712976D02*
X85916635Y-57780319D01*
X85916635Y-57780319D02*
X85882963Y-57881335D01*
X85882963Y-57881335D02*
X85781948Y-57982350D01*
X85781948Y-57982350D02*
X85680932Y-58016022D01*
X85680932Y-58016022D02*
X85613589Y-58016022D01*
X85613589Y-58016022D02*
X85512574Y-57982350D01*
X85512574Y-57982350D02*
X85243200Y-57712976D01*
X86118665Y-58453754D02*
X86084993Y-58352739D01*
X86084993Y-58352739D02*
X86084993Y-58285396D01*
X86084993Y-58285396D02*
X86118665Y-58184380D01*
X86118665Y-58184380D02*
X86152337Y-58150709D01*
X86152337Y-58150709D02*
X86253352Y-58117037D01*
X86253352Y-58117037D02*
X86320696Y-58117037D01*
X86320696Y-58117037D02*
X86421711Y-58150709D01*
X86421711Y-58150709D02*
X86556398Y-58285396D01*
X86556398Y-58285396D02*
X86590070Y-58386411D01*
X86590070Y-58386411D02*
X86590070Y-58453754D01*
X86590070Y-58453754D02*
X86556398Y-58554770D01*
X86556398Y-58554770D02*
X86522726Y-58588441D01*
X86522726Y-58588441D02*
X86421711Y-58622113D01*
X86421711Y-58622113D02*
X86354367Y-58622113D01*
X86354367Y-58622113D02*
X86253352Y-58588441D01*
X86253352Y-58588441D02*
X86118665Y-58453754D01*
X86118665Y-58453754D02*
X86017650Y-58420083D01*
X86017650Y-58420083D02*
X85950306Y-58420083D01*
X85950306Y-58420083D02*
X85849291Y-58453754D01*
X85849291Y-58453754D02*
X85714604Y-58588441D01*
X85714604Y-58588441D02*
X85680932Y-58689457D01*
X85680932Y-58689457D02*
X85680932Y-58756800D01*
X85680932Y-58756800D02*
X85714604Y-58857815D01*
X85714604Y-58857815D02*
X85849291Y-58992502D01*
X85849291Y-58992502D02*
X85950306Y-59026174D01*
X85950306Y-59026174D02*
X86017650Y-59026174D01*
X86017650Y-59026174D02*
X86118665Y-58992502D01*
X86118665Y-58992502D02*
X86253352Y-58857815D01*
X86253352Y-58857815D02*
X86287024Y-58756800D01*
X86287024Y-58756800D02*
X86287024Y-58689457D01*
X86287024Y-58689457D02*
X86253352Y-58588441D01*
X96377887Y-67886412D02*
X96310543Y-67886412D01*
X96310543Y-67886412D02*
X96175856Y-67819068D01*
X96175856Y-67819068D02*
X96108513Y-67751725D01*
X96108513Y-67751725D02*
X96041169Y-67617038D01*
X96041169Y-67617038D02*
X96041169Y-67482351D01*
X96041169Y-67482351D02*
X96074841Y-67381336D01*
X96074841Y-67381336D02*
X96175856Y-67212977D01*
X96175856Y-67212977D02*
X96276871Y-67111962D01*
X96276871Y-67111962D02*
X96445230Y-67010946D01*
X96445230Y-67010946D02*
X96546245Y-66977275D01*
X96546245Y-66977275D02*
X96680932Y-66977275D01*
X96680932Y-66977275D02*
X96815619Y-67044618D01*
X96815619Y-67044618D02*
X96882963Y-67111962D01*
X96882963Y-67111962D02*
X96950306Y-67246649D01*
X96950306Y-67246649D02*
X96950306Y-67313992D01*
X97657413Y-67886412D02*
X97320696Y-67549694D01*
X97320696Y-67549694D02*
X96950306Y-67852740D01*
X96950306Y-67852740D02*
X97017650Y-67852740D01*
X97017650Y-67852740D02*
X97118665Y-67886412D01*
X97118665Y-67886412D02*
X97287024Y-68054771D01*
X97287024Y-68054771D02*
X97320696Y-68155786D01*
X97320696Y-68155786D02*
X97320696Y-68223129D01*
X97320696Y-68223129D02*
X97287024Y-68324145D01*
X97287024Y-68324145D02*
X97118665Y-68492503D01*
X97118665Y-68492503D02*
X97017650Y-68526175D01*
X97017650Y-68526175D02*
X96950306Y-68526175D01*
X96950306Y-68526175D02*
X96849291Y-68492503D01*
X96849291Y-68492503D02*
X96680932Y-68324145D01*
X96680932Y-68324145D02*
X96647261Y-68223129D01*
X96647261Y-68223129D02*
X96647261Y-68155786D01*
X84127887Y-59636411D02*
X84060543Y-59636411D01*
X84060543Y-59636411D02*
X83925856Y-59569067D01*
X83925856Y-59569067D02*
X83858513Y-59501724D01*
X83858513Y-59501724D02*
X83791169Y-59367037D01*
X83791169Y-59367037D02*
X83791169Y-59232350D01*
X83791169Y-59232350D02*
X83824841Y-59131335D01*
X83824841Y-59131335D02*
X83925856Y-58962976D01*
X83925856Y-58962976D02*
X84026871Y-58861961D01*
X84026871Y-58861961D02*
X84195230Y-58760945D01*
X84195230Y-58760945D02*
X84296245Y-58727274D01*
X84296245Y-58727274D02*
X84430932Y-58727274D01*
X84430932Y-58727274D02*
X84565619Y-58794617D01*
X84565619Y-58794617D02*
X84632963Y-58861961D01*
X84632963Y-58861961D02*
X84700306Y-58996648D01*
X84700306Y-58996648D02*
X84700306Y-59063991D01*
X85373741Y-59602739D02*
X85239054Y-59468052D01*
X85239054Y-59468052D02*
X85138039Y-59434380D01*
X85138039Y-59434380D02*
X85070696Y-59434380D01*
X85070696Y-59434380D02*
X84902337Y-59468052D01*
X84902337Y-59468052D02*
X84733978Y-59569067D01*
X84733978Y-59569067D02*
X84464604Y-59838441D01*
X84464604Y-59838441D02*
X84430932Y-59939457D01*
X84430932Y-59939457D02*
X84430932Y-60006800D01*
X84430932Y-60006800D02*
X84464604Y-60107815D01*
X84464604Y-60107815D02*
X84599291Y-60242502D01*
X84599291Y-60242502D02*
X84700306Y-60276174D01*
X84700306Y-60276174D02*
X84767650Y-60276174D01*
X84767650Y-60276174D02*
X84868665Y-60242502D01*
X84868665Y-60242502D02*
X85037024Y-60074144D01*
X85037024Y-60074144D02*
X85070696Y-59973128D01*
X85070696Y-59973128D02*
X85070696Y-59905785D01*
X85070696Y-59905785D02*
X85037024Y-59804770D01*
X85037024Y-59804770D02*
X84902337Y-59670083D01*
X84902337Y-59670083D02*
X84801322Y-59636411D01*
X84801322Y-59636411D02*
X84733978Y-59636411D01*
X84733978Y-59636411D02*
X84632963Y-59670083D01*
X101904818Y-59649404D02*
X102714341Y-59649404D01*
X102714341Y-59649404D02*
X102809579Y-59601785D01*
X102809579Y-59601785D02*
X102857199Y-59554166D01*
X102857199Y-59554166D02*
X102904818Y-59458928D01*
X102904818Y-59458928D02*
X102904818Y-59268452D01*
X102904818Y-59268452D02*
X102857199Y-59173214D01*
X102857199Y-59173214D02*
X102809579Y-59125595D01*
X102809579Y-59125595D02*
X102714341Y-59077976D01*
X102714341Y-59077976D02*
X101904818Y-59077976D01*
X102000056Y-58649404D02*
X101952437Y-58601785D01*
X101952437Y-58601785D02*
X101904818Y-58506547D01*
X101904818Y-58506547D02*
X101904818Y-58268452D01*
X101904818Y-58268452D02*
X101952437Y-58173214D01*
X101952437Y-58173214D02*
X102000056Y-58125595D01*
X102000056Y-58125595D02*
X102095294Y-58077976D01*
X102095294Y-58077976D02*
X102190532Y-58077976D01*
X102190532Y-58077976D02*
X102333389Y-58125595D01*
X102333389Y-58125595D02*
X102904818Y-58697023D01*
X102904818Y-58697023D02*
X102904818Y-58077976D01*
X84511912Y-70763345D02*
X84511912Y-70830689D01*
X84511912Y-70830689D02*
X84444568Y-70965376D01*
X84444568Y-70965376D02*
X84377225Y-71032719D01*
X84377225Y-71032719D02*
X84242538Y-71100063D01*
X84242538Y-71100063D02*
X84107851Y-71100063D01*
X84107851Y-71100063D02*
X84006836Y-71066391D01*
X84006836Y-71066391D02*
X83838477Y-70965376D01*
X83838477Y-70965376D02*
X83737462Y-70864361D01*
X83737462Y-70864361D02*
X83636446Y-70696002D01*
X83636446Y-70696002D02*
X83602775Y-70594987D01*
X83602775Y-70594987D02*
X83602775Y-70460300D01*
X83602775Y-70460300D02*
X83670118Y-70325613D01*
X83670118Y-70325613D02*
X83737462Y-70258269D01*
X83737462Y-70258269D02*
X83872149Y-70190926D01*
X83872149Y-70190926D02*
X83939492Y-70190926D01*
X84579255Y-70022567D02*
X84478240Y-70056239D01*
X84478240Y-70056239D02*
X84410897Y-70056239D01*
X84410897Y-70056239D02*
X84309881Y-70022567D01*
X84309881Y-70022567D02*
X84276210Y-69988895D01*
X84276210Y-69988895D02*
X84242538Y-69887880D01*
X84242538Y-69887880D02*
X84242538Y-69820536D01*
X84242538Y-69820536D02*
X84276210Y-69719521D01*
X84276210Y-69719521D02*
X84410897Y-69584834D01*
X84410897Y-69584834D02*
X84511912Y-69551162D01*
X84511912Y-69551162D02*
X84579255Y-69551162D01*
X84579255Y-69551162D02*
X84680271Y-69584834D01*
X84680271Y-69584834D02*
X84713942Y-69618506D01*
X84713942Y-69618506D02*
X84747614Y-69719521D01*
X84747614Y-69719521D02*
X84747614Y-69786865D01*
X84747614Y-69786865D02*
X84713942Y-69887880D01*
X84713942Y-69887880D02*
X84579255Y-70022567D01*
X84579255Y-70022567D02*
X84545584Y-70123582D01*
X84545584Y-70123582D02*
X84545584Y-70190926D01*
X84545584Y-70190926D02*
X84579255Y-70291941D01*
X84579255Y-70291941D02*
X84713942Y-70426628D01*
X84713942Y-70426628D02*
X84814958Y-70460300D01*
X84814958Y-70460300D02*
X84882301Y-70460300D01*
X84882301Y-70460300D02*
X84983316Y-70426628D01*
X84983316Y-70426628D02*
X85118003Y-70291941D01*
X85118003Y-70291941D02*
X85151675Y-70190926D01*
X85151675Y-70190926D02*
X85151675Y-70123582D01*
X85151675Y-70123582D02*
X85118003Y-70022567D01*
X85118003Y-70022567D02*
X84983316Y-69887880D01*
X84983316Y-69887880D02*
X84882301Y-69854208D01*
X84882301Y-69854208D02*
X84814958Y-69854208D01*
X84814958Y-69854208D02*
X84713942Y-69887880D01*
X99238095Y-79454819D02*
X99238095Y-80264342D01*
X99238095Y-80264342D02*
X99285714Y-80359580D01*
X99285714Y-80359580D02*
X99333333Y-80407200D01*
X99333333Y-80407200D02*
X99428571Y-80454819D01*
X99428571Y-80454819D02*
X99619047Y-80454819D01*
X99619047Y-80454819D02*
X99714285Y-80407200D01*
X99714285Y-80407200D02*
X99761904Y-80359580D01*
X99761904Y-80359580D02*
X99809523Y-80264342D01*
X99809523Y-80264342D02*
X99809523Y-79454819D01*
X100190476Y-79454819D02*
X100809523Y-79454819D01*
X100809523Y-79454819D02*
X100476190Y-79835771D01*
X100476190Y-79835771D02*
X100619047Y-79835771D01*
X100619047Y-79835771D02*
X100714285Y-79883390D01*
X100714285Y-79883390D02*
X100761904Y-79931009D01*
X100761904Y-79931009D02*
X100809523Y-80026247D01*
X100809523Y-80026247D02*
X100809523Y-80264342D01*
X100809523Y-80264342D02*
X100761904Y-80359580D01*
X100761904Y-80359580D02*
X100714285Y-80407200D01*
X100714285Y-80407200D02*
X100619047Y-80454819D01*
X100619047Y-80454819D02*
X100333333Y-80454819D01*
X100333333Y-80454819D02*
X100238095Y-80407200D01*
X100238095Y-80407200D02*
X100190476Y-80359580D01*
X113204819Y-69166666D02*
X113204819Y-69642856D01*
X113204819Y-69642856D02*
X112204819Y-69642856D01*
X113204819Y-68309523D02*
X113204819Y-68880951D01*
X113204819Y-68595237D02*
X112204819Y-68595237D01*
X112204819Y-68595237D02*
X112347676Y-68690475D01*
X112347676Y-68690475D02*
X112442914Y-68785713D01*
X112442914Y-68785713D02*
X112490533Y-68880951D01*
X94898170Y-72321605D02*
X95234888Y-72658323D01*
X94292079Y-72186918D02*
X94898170Y-72321605D01*
X94898170Y-72321605D02*
X94763483Y-71715514D01*
X95032857Y-71580827D02*
X95032857Y-71513483D01*
X95032857Y-71513483D02*
X95066529Y-71412468D01*
X95066529Y-71412468D02*
X95234888Y-71244109D01*
X95234888Y-71244109D02*
X95335903Y-71210437D01*
X95335903Y-71210437D02*
X95403246Y-71210437D01*
X95403246Y-71210437D02*
X95504262Y-71244109D01*
X95504262Y-71244109D02*
X95571605Y-71311453D01*
X95571605Y-71311453D02*
X95638949Y-71446140D01*
X95638949Y-71446140D02*
X95638949Y-72254262D01*
X95638949Y-72254262D02*
X96076681Y-71816529D01*
X87708333Y-81859580D02*
X87660714Y-81907200D01*
X87660714Y-81907200D02*
X87517857Y-81954819D01*
X87517857Y-81954819D02*
X87422619Y-81954819D01*
X87422619Y-81954819D02*
X87279762Y-81907200D01*
X87279762Y-81907200D02*
X87184524Y-81811961D01*
X87184524Y-81811961D02*
X87136905Y-81716723D01*
X87136905Y-81716723D02*
X87089286Y-81526247D01*
X87089286Y-81526247D02*
X87089286Y-81383390D01*
X87089286Y-81383390D02*
X87136905Y-81192914D01*
X87136905Y-81192914D02*
X87184524Y-81097676D01*
X87184524Y-81097676D02*
X87279762Y-81002438D01*
X87279762Y-81002438D02*
X87422619Y-80954819D01*
X87422619Y-80954819D02*
X87517857Y-80954819D01*
X87517857Y-80954819D02*
X87660714Y-81002438D01*
X87660714Y-81002438D02*
X87708333Y-81050057D01*
X88041667Y-80954819D02*
X88660714Y-80954819D01*
X88660714Y-80954819D02*
X88327381Y-81335771D01*
X88327381Y-81335771D02*
X88470238Y-81335771D01*
X88470238Y-81335771D02*
X88565476Y-81383390D01*
X88565476Y-81383390D02*
X88613095Y-81431009D01*
X88613095Y-81431009D02*
X88660714Y-81526247D01*
X88660714Y-81526247D02*
X88660714Y-81764342D01*
X88660714Y-81764342D02*
X88613095Y-81859580D01*
X88613095Y-81859580D02*
X88565476Y-81907200D01*
X88565476Y-81907200D02*
X88470238Y-81954819D01*
X88470238Y-81954819D02*
X88184524Y-81954819D01*
X88184524Y-81954819D02*
X88089286Y-81907200D01*
X88089286Y-81907200D02*
X88041667Y-81859580D01*
X102754580Y-77642857D02*
X102802200Y-77690476D01*
X102802200Y-77690476D02*
X102849819Y-77833333D01*
X102849819Y-77833333D02*
X102849819Y-77928571D01*
X102849819Y-77928571D02*
X102802200Y-78071428D01*
X102802200Y-78071428D02*
X102706961Y-78166666D01*
X102706961Y-78166666D02*
X102611723Y-78214285D01*
X102611723Y-78214285D02*
X102421247Y-78261904D01*
X102421247Y-78261904D02*
X102278390Y-78261904D01*
X102278390Y-78261904D02*
X102087914Y-78214285D01*
X102087914Y-78214285D02*
X101992676Y-78166666D01*
X101992676Y-78166666D02*
X101897438Y-78071428D01*
X101897438Y-78071428D02*
X101849819Y-77928571D01*
X101849819Y-77928571D02*
X101849819Y-77833333D01*
X101849819Y-77833333D02*
X101897438Y-77690476D01*
X101897438Y-77690476D02*
X101945057Y-77642857D01*
X102849819Y-76690476D02*
X102849819Y-77261904D01*
X102849819Y-76976190D02*
X101849819Y-76976190D01*
X101849819Y-76976190D02*
X101992676Y-77071428D01*
X101992676Y-77071428D02*
X102087914Y-77166666D01*
X102087914Y-77166666D02*
X102135533Y-77261904D01*
X101849819Y-76357142D02*
X101849819Y-75738095D01*
X101849819Y-75738095D02*
X102230771Y-76071428D01*
X102230771Y-76071428D02*
X102230771Y-75928571D01*
X102230771Y-75928571D02*
X102278390Y-75833333D01*
X102278390Y-75833333D02*
X102326009Y-75785714D01*
X102326009Y-75785714D02*
X102421247Y-75738095D01*
X102421247Y-75738095D02*
X102659342Y-75738095D01*
X102659342Y-75738095D02*
X102754580Y-75785714D01*
X102754580Y-75785714D02*
X102802200Y-75833333D01*
X102802200Y-75833333D02*
X102849819Y-75928571D01*
X102849819Y-75928571D02*
X102849819Y-76214285D01*
X102849819Y-76214285D02*
X102802200Y-76309523D01*
X102802200Y-76309523D02*
X102754580Y-76357142D01*
X87708333Y-72859580D02*
X87660714Y-72907200D01*
X87660714Y-72907200D02*
X87517857Y-72954819D01*
X87517857Y-72954819D02*
X87422619Y-72954819D01*
X87422619Y-72954819D02*
X87279762Y-72907200D01*
X87279762Y-72907200D02*
X87184524Y-72811961D01*
X87184524Y-72811961D02*
X87136905Y-72716723D01*
X87136905Y-72716723D02*
X87089286Y-72526247D01*
X87089286Y-72526247D02*
X87089286Y-72383390D01*
X87089286Y-72383390D02*
X87136905Y-72192914D01*
X87136905Y-72192914D02*
X87184524Y-72097676D01*
X87184524Y-72097676D02*
X87279762Y-72002438D01*
X87279762Y-72002438D02*
X87422619Y-71954819D01*
X87422619Y-71954819D02*
X87517857Y-71954819D01*
X87517857Y-71954819D02*
X87660714Y-72002438D01*
X87660714Y-72002438D02*
X87708333Y-72050057D01*
X88089286Y-72050057D02*
X88136905Y-72002438D01*
X88136905Y-72002438D02*
X88232143Y-71954819D01*
X88232143Y-71954819D02*
X88470238Y-71954819D01*
X88470238Y-71954819D02*
X88565476Y-72002438D01*
X88565476Y-72002438D02*
X88613095Y-72050057D01*
X88613095Y-72050057D02*
X88660714Y-72145295D01*
X88660714Y-72145295D02*
X88660714Y-72240533D01*
X88660714Y-72240533D02*
X88613095Y-72383390D01*
X88613095Y-72383390D02*
X88041667Y-72954819D01*
X88041667Y-72954819D02*
X88660714Y-72954819D01*
X84829819Y-77761904D02*
X85639342Y-77761904D01*
X85639342Y-77761904D02*
X85734580Y-77714285D01*
X85734580Y-77714285D02*
X85782200Y-77666666D01*
X85782200Y-77666666D02*
X85829819Y-77571428D01*
X85829819Y-77571428D02*
X85829819Y-77380952D01*
X85829819Y-77380952D02*
X85782200Y-77285714D01*
X85782200Y-77285714D02*
X85734580Y-77238095D01*
X85734580Y-77238095D02*
X85639342Y-77190476D01*
X85639342Y-77190476D02*
X84829819Y-77190476D01*
X84829819Y-76238095D02*
X84829819Y-76714285D01*
X84829819Y-76714285D02*
X85306009Y-76761904D01*
X85306009Y-76761904D02*
X85258390Y-76714285D01*
X85258390Y-76714285D02*
X85210771Y-76619047D01*
X85210771Y-76619047D02*
X85210771Y-76380952D01*
X85210771Y-76380952D02*
X85258390Y-76285714D01*
X85258390Y-76285714D02*
X85306009Y-76238095D01*
X85306009Y-76238095D02*
X85401247Y-76190476D01*
X85401247Y-76190476D02*
X85639342Y-76190476D01*
X85639342Y-76190476D02*
X85734580Y-76238095D01*
X85734580Y-76238095D02*
X85782200Y-76285714D01*
X85782200Y-76285714D02*
X85829819Y-76380952D01*
X85829819Y-76380952D02*
X85829819Y-76619047D01*
X85829819Y-76619047D02*
X85782200Y-76714285D01*
X85782200Y-76714285D02*
X85734580Y-76761904D01*
X112083333Y-78024819D02*
X111750000Y-77548628D01*
X111511905Y-78024819D02*
X111511905Y-77024819D01*
X111511905Y-77024819D02*
X111892857Y-77024819D01*
X111892857Y-77024819D02*
X111988095Y-77072438D01*
X111988095Y-77072438D02*
X112035714Y-77120057D01*
X112035714Y-77120057D02*
X112083333Y-77215295D01*
X112083333Y-77215295D02*
X112083333Y-77358152D01*
X112083333Y-77358152D02*
X112035714Y-77453390D01*
X112035714Y-77453390D02*
X111988095Y-77501009D01*
X111988095Y-77501009D02*
X111892857Y-77548628D01*
X111892857Y-77548628D02*
X111511905Y-77548628D01*
X113035714Y-78024819D02*
X112464286Y-78024819D01*
X112750000Y-78024819D02*
X112750000Y-77024819D01*
X112750000Y-77024819D02*
X112654762Y-77167676D01*
X112654762Y-77167676D02*
X112559524Y-77262914D01*
X112559524Y-77262914D02*
X112464286Y-77310533D01*
D13*
%TO.C,Q1*%
X111960000Y-57930000D02*
X106280000Y-57930000D01*
X111960000Y-63300000D02*
X105840000Y-63300000D01*
X105768378Y-58194730D02*
X105528378Y-57864730D01*
X106008378Y-57864730D01*
X105768378Y-58194730D01*
G36*
X105768378Y-58194730D02*
G01*
X105528378Y-57864730D01*
X106008378Y-57864730D01*
X105768378Y-58194730D01*
G37*
%TO.C,R4*%
X96952719Y-63318404D02*
X97288252Y-62982871D01*
X97691646Y-64057331D02*
X98027179Y-63721798D01*
%TO.C,J3*%
X89678333Y-52842500D02*
X89678333Y-51512500D01*
X91008333Y-52842500D02*
X89678333Y-52842500D01*
X92278333Y-50182500D02*
X94878333Y-50182500D01*
X92278333Y-52842500D02*
X92278333Y-50182500D01*
X92278333Y-52842500D02*
X94878333Y-52842500D01*
X94878333Y-52842500D02*
X94878333Y-50182500D01*
%TO.C,C7*%
X96490000Y-76834420D02*
X96490000Y-77115580D01*
X97510000Y-76834420D02*
X97510000Y-77115580D01*
%TO.C,C1*%
X81914747Y-80115755D02*
X82113558Y-79916944D01*
X82635996Y-80837004D02*
X82834807Y-80638193D01*
%TO.C,R9*%
X77187742Y-46477500D02*
X77662258Y-46477500D01*
X77187742Y-47522500D02*
X77662258Y-47522500D01*
%TO.C,C4*%
X92289970Y-75761219D02*
X92488781Y-75960030D01*
X93011219Y-75039970D02*
X93210030Y-75238781D01*
%TO.C,J6*%
X74245000Y-48720000D02*
X75945000Y-48720000D01*
X74245000Y-58060000D02*
X75945000Y-58060000D01*
%TO.C,C11*%
X73711989Y-71836942D02*
X73910800Y-71638131D01*
X74433238Y-72558191D02*
X74632049Y-72359380D01*
%TO.C,J4*%
X81655000Y-50170000D02*
X81655000Y-52830000D01*
X84254999Y-50170000D02*
X81655000Y-50170000D01*
X84254999Y-50170000D02*
X84254999Y-52830000D01*
X84254999Y-52830000D02*
X81655000Y-52830000D01*
X85525000Y-50170000D02*
X86855000Y-50170000D01*
X86855000Y-50170000D02*
X86855000Y-51500000D01*
%TO.C,D1*%
X102412499Y-67985000D02*
X104697499Y-67985000D01*
X104697499Y-66515000D02*
X102412499Y-66515000D01*
X104697499Y-67985000D02*
X104697499Y-66515000D01*
%TO.C,R6*%
X82548303Y-75139204D02*
X82212770Y-74803671D01*
X83287230Y-74400277D02*
X82951697Y-74064744D01*
%TO.C,U4*%
X76439807Y-77912167D02*
X75060948Y-76533309D01*
X76439807Y-77912167D02*
X77818665Y-79291026D01*
X80060193Y-74291781D02*
X78681335Y-72912922D01*
X80060193Y-74291781D02*
X81439052Y-75670639D01*
X78486881Y-72386128D02*
X78083830Y-72449767D01*
X78147470Y-72046717D01*
X78486881Y-72386128D01*
G36*
X78486881Y-72386128D02*
G01*
X78083830Y-72449767D01*
X78147470Y-72046717D01*
X78486881Y-72386128D01*
G37*
%TO.C,R3*%
X95452719Y-61818404D02*
X95788252Y-61482871D01*
X96191646Y-62557331D02*
X96527179Y-62221798D01*
%TO.C,C9*%
X92526106Y-59212086D02*
X92724917Y-59013275D01*
X93247355Y-59933335D02*
X93446166Y-59734524D01*
%TO.C,R7*%
X106987258Y-75477500D02*
X106512742Y-75477500D01*
X106987258Y-76522500D02*
X106512742Y-76522500D01*
%TO.C,R2*%
X106987258Y-77477500D02*
X106512742Y-77477500D01*
X106987258Y-78522500D02*
X106512742Y-78522500D01*
%TO.C,U1*%
X85384638Y-66020101D02*
X85720514Y-65684225D01*
X85720514Y-66355977D02*
X85384638Y-66020101D01*
X90154073Y-70789536D02*
X90277817Y-70913280D01*
X90489949Y-60914790D02*
X90154073Y-61250666D01*
X90825825Y-61250666D02*
X90489949Y-60914790D01*
X90825825Y-70789536D02*
X90659655Y-70955706D01*
X95259384Y-65684225D02*
X95595260Y-66020101D01*
X95595260Y-66020101D02*
X95259384Y-66355977D01*
X90426309Y-71528463D02*
X90086898Y-71189052D01*
X90489949Y-71125412D01*
X90426309Y-71528463D01*
G36*
X90426309Y-71528463D02*
G01*
X90086898Y-71189052D01*
X90489949Y-71125412D01*
X90426309Y-71528463D01*
G37*
%TO.C,J5*%
X76535000Y-59830000D02*
X76535000Y-59765000D01*
X76535000Y-66235000D02*
X76535000Y-66170000D01*
X80065000Y-59765000D02*
X76535000Y-59765000D01*
X80065000Y-59830000D02*
X80065000Y-59765000D01*
X80065000Y-66235000D02*
X76535000Y-66235000D01*
X80065000Y-66235000D02*
X80065000Y-66170000D01*
X81390000Y-66170000D02*
X80065000Y-66170000D01*
%TO.C,R5*%
X79548303Y-72139204D02*
X79212770Y-71803671D01*
X80287230Y-71400277D02*
X79951697Y-71064744D01*
%TO.C,R10*%
X72262742Y-59977500D02*
X72737258Y-59977500D01*
X72262742Y-61022500D02*
X72737258Y-61022500D01*
%TO.C,R8*%
X87288252Y-60557331D02*
X86952719Y-60221798D01*
X88027179Y-59818404D02*
X87691646Y-59482871D01*
%TO.C,D2*%
X102412499Y-71985000D02*
X104697499Y-71985000D01*
X104697499Y-70515000D02*
X102412499Y-70515000D01*
X104697499Y-71985000D02*
X104697499Y-70515000D01*
%TO.C,C5*%
X98488781Y-69960030D02*
X98289970Y-69761219D01*
X99210030Y-69238781D02*
X99011219Y-69039970D01*
%TO.C,C6*%
X85988781Y-61710030D02*
X85789970Y-61511219D01*
X86710030Y-60988781D02*
X86511219Y-60789970D01*
%TO.C,U2*%
X98439999Y-59000000D02*
X98440000Y-58200000D01*
X98439999Y-59000000D02*
X98440000Y-59800000D01*
X101560001Y-59000000D02*
X101560000Y-58200000D01*
X101560001Y-59000000D02*
X101560000Y-59800000D01*
X101840000Y-57940000D02*
X101510000Y-57700000D01*
X101840000Y-57460000D01*
X101840000Y-57940000D01*
G36*
X101840000Y-57940000D02*
G01*
X101510000Y-57700000D01*
X101840000Y-57460000D01*
X101840000Y-57940000D01*
G37*
%TO.C,J1*%
X105754999Y-50145000D02*
X105754999Y-52805000D01*
X108354999Y-50145000D02*
X105754999Y-50145000D01*
X108354999Y-50145000D02*
X108354999Y-52805000D01*
X108354999Y-52805000D02*
X105754999Y-52805000D01*
X109624999Y-50145000D02*
X110954999Y-50145000D01*
X110954999Y-50145000D02*
X110954999Y-51475000D01*
%TO.C,C8*%
X85238781Y-71039970D02*
X85039970Y-71238781D01*
X85960030Y-71761219D02*
X85761219Y-71960030D01*
%TO.C,U3*%
X98440000Y-77000000D02*
X98440000Y-76200000D01*
X98440000Y-77000000D02*
X98440000Y-77800000D01*
X101560000Y-77000000D02*
X101560000Y-76200000D01*
X101560000Y-77000000D02*
X101560000Y-77800000D01*
X98490000Y-78300000D02*
X98160000Y-78540000D01*
X98160000Y-78060000D01*
X98490000Y-78300000D01*
G36*
X98490000Y-78300000D02*
G01*
X98160000Y-78540000D01*
X98160000Y-78060000D01*
X98490000Y-78300000D01*
G37*
%TO.C,L1*%
X108550000Y-67750000D02*
X108550000Y-70250000D01*
X116950000Y-70250000D02*
X116950000Y-67750000D01*
%TO.C,Y2*%
X91785177Y-72636396D02*
X94613604Y-75464823D01*
X94613604Y-75464823D02*
X98714823Y-71363604D01*
%TO.C,J2*%
X97761666Y-52867500D02*
X97761666Y-51537500D01*
X99091666Y-52867500D02*
X97761666Y-52867500D01*
X100361666Y-50207500D02*
X102961666Y-50207500D01*
X100361666Y-52867500D02*
X100361666Y-50207500D01*
X100361666Y-52867500D02*
X102961666Y-52867500D01*
X102961666Y-52867500D02*
X102961666Y-50207500D01*
%TO.C,C3*%
X88015580Y-79490000D02*
X87734420Y-79490000D01*
X88015580Y-80510000D02*
X87734420Y-80510000D01*
%TO.C,C13*%
X103315000Y-77140580D02*
X103315000Y-76859420D01*
X104335000Y-77140580D02*
X104335000Y-76859420D01*
%TO.C,C2*%
X87734420Y-73490000D02*
X88015580Y-73490000D01*
X87734420Y-74510000D02*
X88015580Y-74510000D01*
%TO.C,D3*%
X114265000Y-54015000D02*
X114265000Y-55485000D01*
X114265000Y-55485000D02*
X116550000Y-55485000D01*
X116550000Y-54015000D02*
X114265000Y-54015000D01*
%TO.C,U5*%
X88012500Y-75440000D02*
X87212500Y-75440000D01*
X88012500Y-75440000D02*
X88812500Y-75440000D01*
X88012500Y-78560000D02*
X87212500Y-78560000D01*
X88012500Y-78560000D02*
X88812500Y-78560000D01*
X86712500Y-75490000D02*
X86472500Y-75160000D01*
X86952500Y-75160000D01*
X86712500Y-75490000D01*
G36*
X86712500Y-75490000D02*
G01*
X86472500Y-75160000D01*
X86952500Y-75160000D01*
X86712500Y-75490000D01*
G37*
%TO.C,R1*%
X112977064Y-74840000D02*
X111522936Y-74840000D01*
X112977064Y-76660000D02*
X111522936Y-76660000D01*
%TD*%
M02*
