%TF.GenerationSoftware,KiCad,Pcbnew,8.0.1*%
%TF.CreationDate,2024-06-13T11:44:25+10:00*%
%TF.ProjectId,CLD,434c442e-6b69-4636-9164-5f7063625858,rev?*%
%TF.SameCoordinates,Original*%
%TF.FileFunction,Copper,L4,Bot*%
%TF.FilePolarity,Positive*%
%FSLAX46Y46*%
G04 Gerber Fmt 4.6, Leading zero omitted, Abs format (unit mm)*
G04 Created by KiCad (PCBNEW 8.0.1) date 2024-06-13 11:44:25*
%MOMM*%
%LPD*%
G01*
G04 APERTURE LIST*
%TA.AperFunction,ComponentPad*%
%ADD10R,1.700000X1.700000*%
%TD*%
%TA.AperFunction,ComponentPad*%
%ADD11O,1.700000X1.700000*%
%TD*%
%TA.AperFunction,ComponentPad*%
%ADD12O,2.100000X1.000000*%
%TD*%
%TA.AperFunction,ComponentPad*%
%ADD13O,1.800000X1.000000*%
%TD*%
%TA.AperFunction,ViaPad*%
%ADD14C,0.600000*%
%TD*%
%TA.AperFunction,ViaPad*%
%ADD15C,4.500000*%
%TD*%
%TA.AperFunction,Conductor*%
%ADD16C,0.200000*%
%TD*%
G04 APERTURE END LIST*
D10*
%TO.P,J3,1,Pin_1*%
%TO.N,+5V*%
X91008333Y-51512500D03*
D11*
%TO.P,J3,2,Pin_2*%
%TO.N,GND*%
X93548333Y-51512500D03*
%TD*%
D12*
%TO.P,J6,S1,SHIELD*%
%TO.N,GND*%
X77250000Y-49070000D03*
D13*
X73070000Y-49070000D03*
D12*
X77250000Y-57710000D03*
D13*
X73070000Y-57710000D03*
%TD*%
D10*
%TO.P,J4,1,Pin_1*%
%TO.N,/Can_H*%
X85525000Y-51500000D03*
D11*
%TO.P,J4,2,Pin_2*%
%TO.N,/Can_L*%
X82985000Y-51500000D03*
%TD*%
D10*
%TO.P,J1,1,Pin_1*%
%TO.N,VDD*%
X109624999Y-51475000D03*
D11*
%TO.P,J1,2,Pin_2*%
%TO.N,Net-(J1-Pin_2)*%
X107084999Y-51475000D03*
%TD*%
D10*
%TO.P,J2,1,Pin_1*%
%TO.N,VDD*%
X99091666Y-51537500D03*
D11*
%TO.P,J2,2,Pin_2*%
%TO.N,GND*%
X101631666Y-51537500D03*
%TD*%
D14*
%TO.N,GND*%
X72000000Y-53750000D03*
X75250000Y-53500000D03*
X72000000Y-50750000D03*
X73750000Y-52000000D03*
X72000000Y-71250000D03*
X72250000Y-62500000D03*
X72250000Y-66250000D03*
X103000000Y-81000000D03*
%TO.N,+3.3V*%
X89150000Y-76050000D03*
X88650000Y-80000000D03*
X97000000Y-76200000D03*
%TO.N,GND*%
X104250000Y-60000000D03*
X85875000Y-77000000D03*
X101250000Y-73500000D03*
X106500000Y-73000000D03*
D15*
X116250000Y-45500000D03*
D14*
X115500000Y-60000000D03*
X85250000Y-74500000D03*
X88125000Y-77000000D03*
X95000000Y-58250000D03*
X117000000Y-62500000D03*
X117000000Y-58000000D03*
X103000000Y-74500000D03*
X80250000Y-65500000D03*
X93093324Y-72530330D03*
X98000000Y-73750000D03*
X74000000Y-69000000D03*
X104250000Y-61500000D03*
D15*
X73250000Y-45500000D03*
D14*
X106500000Y-68750000D03*
X82922785Y-79828966D03*
X96000000Y-48500000D03*
X117250000Y-48500000D03*
X102750000Y-60000000D03*
X106500000Y-71500000D03*
X107575000Y-76000000D03*
X89000000Y-67500000D03*
X87500000Y-66000000D03*
X102500000Y-63500000D03*
X118000000Y-68750000D03*
X80000000Y-48500000D03*
X91250000Y-71750000D03*
X83750000Y-78000000D03*
X96500000Y-56250000D03*
X97406676Y-71469670D03*
X77000000Y-69500000D03*
X89500000Y-57500000D03*
X101500000Y-62500000D03*
X89125000Y-77000000D03*
X88000000Y-48500000D03*
X74500000Y-49000000D03*
X90750000Y-57500000D03*
X86875000Y-77000000D03*
X92000000Y-67000000D03*
X91500000Y-81750000D03*
X110500000Y-81000000D03*
X87125000Y-80000000D03*
X106500000Y-70250000D03*
X92000000Y-65000000D03*
X96750000Y-80750000D03*
X93000000Y-66000000D03*
X103500000Y-63500000D03*
X110500000Y-45000000D03*
X76000000Y-58000000D03*
X118000000Y-74750000D03*
X88625000Y-74000000D03*
X82250000Y-74000000D03*
X110750000Y-75750000D03*
D15*
X116250000Y-80000000D03*
D14*
X76500000Y-44000000D03*
X78500000Y-49000000D03*
X80250000Y-64250000D03*
X100500000Y-61500000D03*
X88125000Y-75000000D03*
X95750000Y-57500000D03*
X104500000Y-73750000D03*
X92201992Y-74951992D03*
X80000000Y-58000000D03*
X89500000Y-65000000D03*
X85000000Y-72000000D03*
X76250000Y-64250000D03*
X84250000Y-58000000D03*
X82000000Y-45000000D03*
X74250000Y-76250000D03*
X104500000Y-72500000D03*
X76500000Y-82000000D03*
X78250000Y-74750000D03*
X108750000Y-75750000D03*
X103500000Y-60750000D03*
D15*
X73250000Y-80000000D03*
D14*
X77000000Y-74000000D03*
X99000000Y-56250000D03*
%TO.N,+3.3V*%
X92438128Y-60021313D03*
X86048008Y-70951992D03*
X94500000Y-68750000D03*
X84250000Y-66250000D03*
X99050001Y-60137500D03*
X85000000Y-64500000D03*
X86750000Y-61750000D03*
X89500000Y-71500000D03*
%TO.N,VDD*%
X100949999Y-57862500D03*
%TO.N,+5V*%
X73624011Y-72646169D03*
X77825000Y-50990000D03*
X77825000Y-55790000D03*
%TO.N,/Can_L*%
X79551076Y-78301076D03*
X79250000Y-71000000D03*
%TO.N,/Can_H*%
X80449102Y-77403050D03*
X80333363Y-72185337D03*
%TO.N,Net-(L1-Pad1)*%
X106000000Y-58750000D03*
X111750000Y-66750000D03*
X109750000Y-65500000D03*
X106000000Y-61250000D03*
X115750000Y-66750000D03*
X113750000Y-66750000D03*
X109750000Y-66750000D03*
X113750000Y-65500000D03*
X115750000Y-65500000D03*
X106000000Y-60000000D03*
X111750000Y-65500000D03*
%TD*%
D16*
%TO.N,+5V*%
X73624011Y-72646169D02*
X73400000Y-72422158D01*
X73400000Y-70448529D02*
X74750000Y-69098529D01*
X73400000Y-72422158D02*
X73400000Y-70448529D01*
X77525001Y-55490001D02*
X77825000Y-55790000D01*
X74750000Y-69098529D02*
X74750000Y-57250000D01*
X77825000Y-50990000D02*
X77825000Y-55790000D01*
X76509999Y-55490001D02*
X77525001Y-55490001D01*
X74750000Y-57250000D02*
X76509999Y-55490001D01*
%TO.N,/Can_L*%
X79551076Y-78301076D02*
X79250000Y-78000000D01*
X79250000Y-71000000D02*
X81750000Y-68500000D01*
X81750000Y-68500000D02*
X81750000Y-52735000D01*
X79250000Y-78000000D02*
X79250000Y-71000000D01*
X81750000Y-52735000D02*
X82985000Y-51500000D01*
X82416637Y-52068363D02*
X82985000Y-51500000D01*
%TO.N,/Can_H*%
X80398026Y-72250000D02*
X80500000Y-72250000D01*
X80449102Y-77403050D02*
X80449102Y-72301076D01*
X83583363Y-70583363D02*
X83583363Y-53441637D01*
X81981389Y-72185337D02*
X83583363Y-70583363D01*
X80333363Y-72185337D02*
X81981389Y-72185337D01*
X80333363Y-72185337D02*
X80398026Y-72250000D01*
X80449102Y-72301076D02*
X80333363Y-72185337D01*
X83583363Y-53441637D02*
X85525000Y-51500000D01*
%TD*%
%TA.AperFunction,Conductor*%
%TO.N,GND*%
G36*
X117004418Y-43000816D02*
G01*
X117204561Y-43015130D01*
X117222063Y-43017647D01*
X117413797Y-43059355D01*
X117430755Y-43064334D01*
X117614609Y-43132909D01*
X117630701Y-43140259D01*
X117802904Y-43234288D01*
X117817784Y-43243849D01*
X117974867Y-43361441D01*
X117988237Y-43373027D01*
X118126972Y-43511762D01*
X118138558Y-43525132D01*
X118256146Y-43682210D01*
X118265711Y-43697095D01*
X118359740Y-43869298D01*
X118367090Y-43885390D01*
X118435662Y-44069236D01*
X118440646Y-44086212D01*
X118482351Y-44277931D01*
X118484869Y-44295442D01*
X118499184Y-44495580D01*
X118499500Y-44504427D01*
X118499500Y-64485253D01*
X118479815Y-64552292D01*
X118427011Y-64598047D01*
X118357853Y-64607991D01*
X118294297Y-64578966D01*
X118287819Y-64572934D01*
X117143776Y-63428892D01*
X117143761Y-63428877D01*
X117143737Y-63428855D01*
X117103519Y-63392728D01*
X117103507Y-63392718D01*
X117082856Y-63376076D01*
X117038974Y-63344433D01*
X116908100Y-63284663D01*
X116841055Y-63264976D01*
X116793582Y-63258150D01*
X116698638Y-63244500D01*
X116698636Y-63244500D01*
X108510747Y-63244500D01*
X108443708Y-63224815D01*
X108423066Y-63208181D01*
X108151520Y-62936636D01*
X108136027Y-62917738D01*
X107776326Y-62378186D01*
X107755518Y-62311487D01*
X107755500Y-62309403D01*
X107755500Y-58301359D01*
X107752602Y-58247311D01*
X107752602Y-58247310D01*
X107749770Y-58220977D01*
X107749767Y-58220950D01*
X107741114Y-58167554D01*
X107741114Y-58167552D01*
X107741112Y-58167547D01*
X107739554Y-58161659D01*
X107742239Y-58160948D01*
X107738094Y-58103169D01*
X107771565Y-58041839D01*
X107832880Y-58008340D01*
X107859266Y-58005500D01*
X108707848Y-58005500D01*
X108725875Y-58005119D01*
X108729157Y-58005050D01*
X108739622Y-58004608D01*
X108760959Y-58003254D01*
X108901138Y-57970830D01*
X108966277Y-57945557D01*
X109091639Y-57874956D01*
X112259813Y-55437898D01*
X112323827Y-55379251D01*
X112352538Y-55348005D01*
X112403589Y-55281842D01*
X112405564Y-55279282D01*
X112405564Y-55279281D01*
X112405567Y-55279278D01*
X112465338Y-55148401D01*
X112485023Y-55081362D01*
X112485024Y-55081358D01*
X112505500Y-54938942D01*
X112505500Y-50051362D01*
X112502603Y-49997322D01*
X112499769Y-49970964D01*
X112491114Y-49917552D01*
X112440832Y-49782743D01*
X112407347Y-49721420D01*
X112321123Y-49606239D01*
X112321118Y-49606234D01*
X112321113Y-49606228D01*
X111393776Y-48678892D01*
X111393770Y-48678886D01*
X111393761Y-48678877D01*
X111393737Y-48678855D01*
X111353519Y-48642728D01*
X111353507Y-48642718D01*
X111332856Y-48626076D01*
X111288974Y-48594433D01*
X111158100Y-48534663D01*
X111091055Y-48514976D01*
X111043582Y-48508150D01*
X110948638Y-48494500D01*
X98051362Y-48494500D01*
X98051360Y-48494500D01*
X97997311Y-48497397D01*
X97997310Y-48497397D01*
X97970977Y-48500229D01*
X97970950Y-48500232D01*
X97917554Y-48508885D01*
X97917552Y-48508885D01*
X97782747Y-48559166D01*
X97721422Y-48592651D01*
X97606240Y-48678876D01*
X97606228Y-48678886D01*
X96678892Y-49606223D01*
X96678855Y-49606262D01*
X96642728Y-49646480D01*
X96642718Y-49646492D01*
X96626076Y-49667143D01*
X96594433Y-49711025D01*
X96534663Y-49841899D01*
X96514976Y-49908944D01*
X96513738Y-49917554D01*
X96494501Y-50051359D01*
X96494500Y-50051363D01*
X96494500Y-52948640D01*
X96497397Y-53002688D01*
X96497397Y-53002689D01*
X96500229Y-53029022D01*
X96500232Y-53029049D01*
X96508885Y-53082445D01*
X96508885Y-53082447D01*
X96516819Y-53103717D01*
X96559168Y-53217257D01*
X96592653Y-53278580D01*
X96678877Y-53393761D01*
X96678881Y-53393765D01*
X96678886Y-53393771D01*
X99958181Y-56673065D01*
X99991666Y-56734388D01*
X99994500Y-56760746D01*
X99994500Y-58448640D01*
X99997397Y-58502688D01*
X99997397Y-58502689D01*
X100000229Y-58529022D01*
X100000232Y-58529049D01*
X100008885Y-58582445D01*
X100008885Y-58582447D01*
X100059166Y-58717252D01*
X100059168Y-58717257D01*
X100092653Y-58778580D01*
X100178877Y-58893761D01*
X100178881Y-58893765D01*
X100178886Y-58893771D01*
X100433696Y-59148580D01*
X100606239Y-59321123D01*
X100606255Y-59321137D01*
X100606262Y-59321144D01*
X100646480Y-59357271D01*
X100646492Y-59357281D01*
X100646500Y-59357288D01*
X100667142Y-59373922D01*
X100711026Y-59405567D01*
X100841903Y-59465338D01*
X100908942Y-59485023D01*
X100908946Y-59485024D01*
X101051362Y-59505500D01*
X101051365Y-59505500D01*
X103948640Y-59505500D01*
X103958786Y-59504955D01*
X104002678Y-59502603D01*
X104002686Y-59502602D01*
X104002688Y-59502602D01*
X104002689Y-59502602D01*
X104009682Y-59501849D01*
X104029036Y-59499769D01*
X104029046Y-59499767D01*
X104029049Y-59499767D01*
X104038648Y-59498211D01*
X104082448Y-59491114D01*
X104217257Y-59440832D01*
X104278580Y-59407347D01*
X104393761Y-59321123D01*
X104532820Y-59182063D01*
X104594141Y-59148580D01*
X104663833Y-59153564D01*
X104719767Y-59195435D01*
X104744184Y-59260900D01*
X104744500Y-59269746D01*
X104744500Y-61698640D01*
X104747397Y-61752688D01*
X104747397Y-61752689D01*
X104750229Y-61779022D01*
X104750232Y-61779049D01*
X104758885Y-61832445D01*
X104758885Y-61832447D01*
X104809166Y-61967252D01*
X104809168Y-61967257D01*
X104842653Y-62028580D01*
X104928877Y-62143761D01*
X104958181Y-62173065D01*
X104991666Y-62234386D01*
X104994500Y-62260746D01*
X104994500Y-63220728D01*
X105008023Y-63336871D01*
X105017279Y-63376076D01*
X105021114Y-63392322D01*
X105060958Y-63502247D01*
X105060963Y-63502257D01*
X105167150Y-63714630D01*
X105244927Y-63870184D01*
X105308704Y-63997738D01*
X105385073Y-64150476D01*
X105481409Y-64343149D01*
X105494500Y-64398603D01*
X105494500Y-65944325D01*
X105494499Y-65944325D01*
X105499200Y-66013091D01*
X105503793Y-66046533D01*
X105503795Y-66046541D01*
X105508821Y-66070745D01*
X105517805Y-66114014D01*
X105575915Y-66245637D01*
X105612943Y-66304888D01*
X105612944Y-66304889D01*
X105612957Y-66304904D01*
X105614856Y-66307292D01*
X105616297Y-66308859D01*
X105670111Y-66372574D01*
X105705779Y-66414805D01*
X105705781Y-66414807D01*
X105705783Y-66414809D01*
X107714012Y-68199902D01*
X107910309Y-68374388D01*
X107926321Y-68388036D01*
X107934290Y-68394547D01*
X107941863Y-68400476D01*
X107950827Y-68407495D01*
X108913633Y-69129600D01*
X108928476Y-69140318D01*
X108935837Y-69145433D01*
X108950997Y-69155567D01*
X109081874Y-69215338D01*
X109148913Y-69235023D01*
X109148917Y-69235024D01*
X109291333Y-69255500D01*
X109291336Y-69255500D01*
X116204125Y-69255500D01*
X116204129Y-69255500D01*
X116238834Y-69254307D01*
X116255821Y-69253138D01*
X116282229Y-69250406D01*
X116290359Y-69249566D01*
X116290360Y-69249565D01*
X116290366Y-69249565D01*
X116428634Y-69209772D01*
X116492345Y-69181089D01*
X116492346Y-69181088D01*
X116492347Y-69181087D01*
X116492592Y-69180977D01*
X116494288Y-69179854D01*
X116613802Y-69103952D01*
X118285673Y-67670920D01*
X118288163Y-67668450D01*
X118349617Y-67635205D01*
X118419288Y-67640463D01*
X118475057Y-67682553D01*
X118499218Y-67748113D01*
X118499500Y-67756474D01*
X118499500Y-80995572D01*
X118499184Y-81004419D01*
X118484869Y-81204557D01*
X118482351Y-81222068D01*
X118440646Y-81413787D01*
X118435662Y-81430763D01*
X118367090Y-81614609D01*
X118359740Y-81630701D01*
X118265711Y-81802904D01*
X118256146Y-81817789D01*
X118138558Y-81974867D01*
X118126972Y-81988237D01*
X117988237Y-82126972D01*
X117974867Y-82138558D01*
X117817789Y-82256146D01*
X117802904Y-82265711D01*
X117630701Y-82359740D01*
X117614609Y-82367090D01*
X117430763Y-82435662D01*
X117413787Y-82440646D01*
X117222068Y-82482351D01*
X117204557Y-82484869D01*
X117023779Y-82497799D01*
X117004417Y-82499184D01*
X116995572Y-82499500D01*
X72504428Y-82499500D01*
X72495582Y-82499184D01*
X72473622Y-82497613D01*
X72295442Y-82484869D01*
X72277931Y-82482351D01*
X72086212Y-82440646D01*
X72069236Y-82435662D01*
X71885390Y-82367090D01*
X71869298Y-82359740D01*
X71697095Y-82265711D01*
X71682210Y-82256146D01*
X71525132Y-82138558D01*
X71511762Y-82126972D01*
X71373027Y-81988237D01*
X71361441Y-81974867D01*
X71243849Y-81817784D01*
X71234288Y-81802904D01*
X71140259Y-81630701D01*
X71132909Y-81614609D01*
X71072091Y-81451551D01*
X71064334Y-81430755D01*
X71059355Y-81413797D01*
X71017647Y-81222063D01*
X71015130Y-81204556D01*
X71000816Y-81004418D01*
X71000500Y-80995572D01*
X71000500Y-80000003D01*
X87844435Y-80000003D01*
X87864630Y-80179249D01*
X87864631Y-80179254D01*
X87924211Y-80349523D01*
X88020184Y-80502262D01*
X88147738Y-80629816D01*
X88300478Y-80725789D01*
X88470745Y-80785368D01*
X88470750Y-80785369D01*
X88649996Y-80805565D01*
X88650000Y-80805565D01*
X88650004Y-80805565D01*
X88829249Y-80785369D01*
X88829252Y-80785368D01*
X88829255Y-80785368D01*
X88999522Y-80725789D01*
X89152262Y-80629816D01*
X89279816Y-80502262D01*
X89375789Y-80349522D01*
X89435368Y-80179255D01*
X89455565Y-80000000D01*
X89435368Y-79820745D01*
X89375789Y-79650478D01*
X89279816Y-79497738D01*
X89152262Y-79370184D01*
X88999523Y-79274211D01*
X88829254Y-79214631D01*
X88829249Y-79214630D01*
X88650004Y-79194435D01*
X88649996Y-79194435D01*
X88470750Y-79214630D01*
X88470745Y-79214631D01*
X88300476Y-79274211D01*
X88147737Y-79370184D01*
X88020184Y-79497737D01*
X87924211Y-79650476D01*
X87864631Y-79820745D01*
X87864630Y-79820750D01*
X87844435Y-79999996D01*
X87844435Y-80000003D01*
X71000500Y-80000003D01*
X71000500Y-72501219D01*
X72799499Y-72501219D01*
X72818261Y-72571242D01*
X72821707Y-72617210D01*
X72818446Y-72646166D01*
X72818446Y-72646172D01*
X72838641Y-72825418D01*
X72838642Y-72825423D01*
X72898222Y-72995692D01*
X72994195Y-73148431D01*
X73121749Y-73275985D01*
X73274489Y-73371958D01*
X73444756Y-73431537D01*
X73444761Y-73431538D01*
X73624007Y-73451734D01*
X73624011Y-73451734D01*
X73624015Y-73451734D01*
X73803260Y-73431538D01*
X73803263Y-73431537D01*
X73803266Y-73431537D01*
X73973533Y-73371958D01*
X74126273Y-73275985D01*
X74253827Y-73148431D01*
X74349800Y-72995691D01*
X74409379Y-72825424D01*
X74412577Y-72797043D01*
X74429576Y-72646172D01*
X74429576Y-72646165D01*
X74409380Y-72466919D01*
X74409379Y-72466914D01*
X74366055Y-72343101D01*
X74349800Y-72296647D01*
X74253827Y-72143907D01*
X74126273Y-72016353D01*
X74126271Y-72016351D01*
X74126269Y-72016350D01*
X74058527Y-71973784D01*
X74012237Y-71921450D01*
X74000500Y-71868791D01*
X74000500Y-71000003D01*
X78444435Y-71000003D01*
X78464630Y-71179249D01*
X78464631Y-71179254D01*
X78524211Y-71349523D01*
X78555908Y-71399968D01*
X78618760Y-71499996D01*
X78620185Y-71502263D01*
X78622445Y-71505097D01*
X78623334Y-71507275D01*
X78623889Y-71508158D01*
X78623734Y-71508255D01*
X78648855Y-71569783D01*
X78649500Y-71582412D01*
X78649500Y-77913330D01*
X78649499Y-77913348D01*
X78649499Y-78079054D01*
X78649498Y-78079054D01*
X78690423Y-78231785D01*
X78719358Y-78281900D01*
X78719359Y-78281904D01*
X78719360Y-78281904D01*
X78736232Y-78311128D01*
X78752064Y-78359243D01*
X78765706Y-78480323D01*
X78765707Y-78480328D01*
X78825286Y-78650597D01*
X78921260Y-78803338D01*
X79048814Y-78930892D01*
X79201554Y-79026865D01*
X79371821Y-79086444D01*
X79371826Y-79086445D01*
X79551072Y-79106641D01*
X79551076Y-79106641D01*
X79551080Y-79106641D01*
X79730325Y-79086445D01*
X79730328Y-79086444D01*
X79730331Y-79086444D01*
X79900598Y-79026865D01*
X80053338Y-78930892D01*
X80180892Y-78803338D01*
X80276865Y-78650598D01*
X80336444Y-78480331D01*
X80354932Y-78316242D01*
X80381998Y-78251829D01*
X80439593Y-78212274D01*
X80464267Y-78206906D01*
X80504551Y-78202367D01*
X80628351Y-78188419D01*
X80628354Y-78188418D01*
X80628357Y-78188418D01*
X80798624Y-78128839D01*
X80951364Y-78032866D01*
X81078918Y-77905312D01*
X81174891Y-77752572D01*
X81234470Y-77582305D01*
X81254667Y-77403050D01*
X81234470Y-77223795D01*
X81174891Y-77053528D01*
X81078918Y-76900788D01*
X81078916Y-76900786D01*
X81078915Y-76900784D01*
X81076652Y-76897946D01*
X81075761Y-76895765D01*
X81075213Y-76894892D01*
X81075366Y-76894795D01*
X81050246Y-76833259D01*
X81049602Y-76820637D01*
X81049602Y-76050003D01*
X88344435Y-76050003D01*
X88364630Y-76229249D01*
X88364631Y-76229254D01*
X88424211Y-76399523D01*
X88518462Y-76549522D01*
X88520184Y-76552262D01*
X88647738Y-76679816D01*
X88800478Y-76775789D01*
X88954878Y-76829816D01*
X88970745Y-76835368D01*
X88970750Y-76835369D01*
X89149996Y-76855565D01*
X89150000Y-76855565D01*
X89150004Y-76855565D01*
X89329249Y-76835369D01*
X89329252Y-76835368D01*
X89329255Y-76835368D01*
X89499522Y-76775789D01*
X89652262Y-76679816D01*
X89779816Y-76552262D01*
X89875789Y-76399522D01*
X89935368Y-76229255D01*
X89938664Y-76200003D01*
X96194435Y-76200003D01*
X96214630Y-76379249D01*
X96214631Y-76379254D01*
X96274211Y-76549523D01*
X96356080Y-76679815D01*
X96370184Y-76702262D01*
X96497738Y-76829816D01*
X96650478Y-76925789D01*
X96820745Y-76985368D01*
X96820750Y-76985369D01*
X96999996Y-77005565D01*
X97000000Y-77005565D01*
X97000004Y-77005565D01*
X97179249Y-76985369D01*
X97179252Y-76985368D01*
X97179255Y-76985368D01*
X97349522Y-76925789D01*
X97502262Y-76829816D01*
X97629816Y-76702262D01*
X97725789Y-76549522D01*
X97785368Y-76379255D01*
X97802269Y-76229254D01*
X97805565Y-76200003D01*
X97805565Y-76199996D01*
X97785369Y-76020750D01*
X97785368Y-76020745D01*
X97732882Y-75870750D01*
X97725789Y-75850478D01*
X97629816Y-75697738D01*
X97502262Y-75570184D01*
X97349523Y-75474211D01*
X97179254Y-75414631D01*
X97179249Y-75414630D01*
X97000004Y-75394435D01*
X96999996Y-75394435D01*
X96820750Y-75414630D01*
X96820745Y-75414631D01*
X96650476Y-75474211D01*
X96497737Y-75570184D01*
X96370184Y-75697737D01*
X96274211Y-75850476D01*
X96214631Y-76020745D01*
X96214630Y-76020750D01*
X96194435Y-76199996D01*
X96194435Y-76200003D01*
X89938664Y-76200003D01*
X89955565Y-76050003D01*
X89955565Y-76049996D01*
X89935369Y-75870750D01*
X89935368Y-75870745D01*
X89875788Y-75700476D01*
X89836582Y-75638080D01*
X89779816Y-75547738D01*
X89652262Y-75420184D01*
X89643426Y-75414632D01*
X89499523Y-75324211D01*
X89329254Y-75264631D01*
X89329249Y-75264630D01*
X89150004Y-75244435D01*
X89149996Y-75244435D01*
X88970750Y-75264630D01*
X88970745Y-75264631D01*
X88800476Y-75324211D01*
X88647737Y-75420184D01*
X88520184Y-75547737D01*
X88424211Y-75700476D01*
X88364631Y-75870745D01*
X88364630Y-75870750D01*
X88344435Y-76049996D01*
X88344435Y-76050003D01*
X81049602Y-76050003D01*
X81049602Y-72909837D01*
X81069287Y-72842798D01*
X81122091Y-72797043D01*
X81173602Y-72785837D01*
X81894720Y-72785837D01*
X81894736Y-72785838D01*
X81902332Y-72785838D01*
X82060443Y-72785838D01*
X82060446Y-72785838D01*
X82213174Y-72744914D01*
X82263293Y-72715976D01*
X82350105Y-72665857D01*
X82461909Y-72554053D01*
X82461909Y-72554051D01*
X82472117Y-72543844D01*
X82472119Y-72543841D01*
X83941869Y-71074091D01*
X83941874Y-71074087D01*
X83952077Y-71063883D01*
X83952079Y-71063883D01*
X84063883Y-70952079D01*
X84063931Y-70951995D01*
X85242443Y-70951995D01*
X85262638Y-71131241D01*
X85262639Y-71131246D01*
X85322219Y-71301515D01*
X85371392Y-71379772D01*
X85418192Y-71454254D01*
X85545746Y-71581808D01*
X85698486Y-71677781D01*
X85868753Y-71737360D01*
X85868758Y-71737361D01*
X86048004Y-71757557D01*
X86048008Y-71757557D01*
X86048012Y-71757557D01*
X86227257Y-71737361D01*
X86227260Y-71737360D01*
X86227263Y-71737360D01*
X86397530Y-71677781D01*
X86550270Y-71581808D01*
X86632075Y-71500003D01*
X88694435Y-71500003D01*
X88714630Y-71679249D01*
X88714631Y-71679254D01*
X88774211Y-71849523D01*
X88852290Y-71973784D01*
X88870184Y-72002262D01*
X88997738Y-72129816D01*
X89150478Y-72225789D01*
X89320745Y-72285368D01*
X89320750Y-72285369D01*
X89499996Y-72305565D01*
X89500000Y-72305565D01*
X89500004Y-72305565D01*
X89679249Y-72285369D01*
X89679252Y-72285368D01*
X89679255Y-72285368D01*
X89849522Y-72225789D01*
X90002262Y-72129816D01*
X90129816Y-72002262D01*
X90225789Y-71849522D01*
X90285368Y-71679255D01*
X90285534Y-71677781D01*
X90305565Y-71500003D01*
X90305565Y-71499996D01*
X90285369Y-71320750D01*
X90285368Y-71320745D01*
X90235859Y-71179256D01*
X90225789Y-71150478D01*
X90213705Y-71131247D01*
X90131237Y-71000000D01*
X90129816Y-70997738D01*
X90002262Y-70870184D01*
X89849523Y-70774211D01*
X89679254Y-70714631D01*
X89679249Y-70714630D01*
X89500004Y-70694435D01*
X89499996Y-70694435D01*
X89320750Y-70714630D01*
X89320745Y-70714631D01*
X89150476Y-70774211D01*
X88997737Y-70870184D01*
X88870184Y-70997737D01*
X88774211Y-71150476D01*
X88714631Y-71320745D01*
X88714630Y-71320750D01*
X88694435Y-71499996D01*
X88694435Y-71500003D01*
X86632075Y-71500003D01*
X86677824Y-71454254D01*
X86773797Y-71301514D01*
X86833376Y-71131247D01*
X86837761Y-71092333D01*
X86853573Y-70951995D01*
X86853573Y-70951988D01*
X86833377Y-70772742D01*
X86833376Y-70772737D01*
X86773796Y-70602468D01*
X86677823Y-70449729D01*
X86550270Y-70322176D01*
X86397531Y-70226203D01*
X86227262Y-70166623D01*
X86227257Y-70166622D01*
X86048012Y-70146427D01*
X86048004Y-70146427D01*
X85868758Y-70166622D01*
X85868753Y-70166623D01*
X85698484Y-70226203D01*
X85545745Y-70322176D01*
X85418192Y-70449729D01*
X85322219Y-70602468D01*
X85262639Y-70772737D01*
X85262638Y-70772742D01*
X85242443Y-70951988D01*
X85242443Y-70951995D01*
X84063931Y-70951995D01*
X84142940Y-70815147D01*
X84183863Y-70662420D01*
X84183863Y-68750003D01*
X93694435Y-68750003D01*
X93714630Y-68929249D01*
X93714631Y-68929254D01*
X93774211Y-69099523D01*
X93825462Y-69181088D01*
X93870184Y-69252262D01*
X93997738Y-69379816D01*
X94088080Y-69436582D01*
X94136878Y-69467244D01*
X94150478Y-69475789D01*
X94320745Y-69535368D01*
X94320750Y-69535369D01*
X94499996Y-69555565D01*
X94500000Y-69555565D01*
X94500004Y-69555565D01*
X94679249Y-69535369D01*
X94679252Y-69535368D01*
X94679255Y-69535368D01*
X94849522Y-69475789D01*
X95002262Y-69379816D01*
X95129816Y-69252262D01*
X95225789Y-69099522D01*
X95285368Y-68929255D01*
X95292189Y-68868716D01*
X95305565Y-68750003D01*
X95305565Y-68749996D01*
X95285369Y-68570750D01*
X95285368Y-68570745D01*
X95232950Y-68420943D01*
X95225789Y-68400478D01*
X95222062Y-68394547D01*
X95129815Y-68247737D01*
X95002262Y-68120184D01*
X94849523Y-68024211D01*
X94679254Y-67964631D01*
X94679249Y-67964630D01*
X94500004Y-67944435D01*
X94499996Y-67944435D01*
X94320750Y-67964630D01*
X94320745Y-67964631D01*
X94150476Y-68024211D01*
X93997737Y-68120184D01*
X93870184Y-68247737D01*
X93774211Y-68400476D01*
X93714631Y-68570745D01*
X93714630Y-68570750D01*
X93694435Y-68749996D01*
X93694435Y-68750003D01*
X84183863Y-68750003D01*
X84183863Y-67173830D01*
X84203548Y-67106791D01*
X84256352Y-67061036D01*
X84293980Y-67050610D01*
X84429249Y-67035369D01*
X84429252Y-67035368D01*
X84429255Y-67035368D01*
X84599522Y-66975789D01*
X84752262Y-66879816D01*
X84879816Y-66752262D01*
X84975789Y-66599522D01*
X85035368Y-66429255D01*
X85049381Y-66304888D01*
X85055565Y-66250003D01*
X85055565Y-66249996D01*
X85035369Y-66070750D01*
X85035368Y-66070745D01*
X84975788Y-65900476D01*
X84879815Y-65747737D01*
X84752262Y-65620184D01*
X84599523Y-65524211D01*
X84429254Y-65464631D01*
X84429250Y-65464630D01*
X84293979Y-65449389D01*
X84229565Y-65422322D01*
X84190010Y-65364727D01*
X84183863Y-65326169D01*
X84183863Y-65115303D01*
X84203548Y-65048264D01*
X84256352Y-65002509D01*
X84325510Y-64992565D01*
X84389066Y-65021590D01*
X84395544Y-65027622D01*
X84497738Y-65129816D01*
X84650478Y-65225789D01*
X84820745Y-65285368D01*
X84820750Y-65285369D01*
X84999996Y-65305565D01*
X85000000Y-65305565D01*
X85000004Y-65305565D01*
X85179249Y-65285369D01*
X85179252Y-65285368D01*
X85179255Y-65285368D01*
X85349522Y-65225789D01*
X85502262Y-65129816D01*
X85629816Y-65002262D01*
X85725789Y-64849522D01*
X85785368Y-64679255D01*
X85785369Y-64679249D01*
X85805565Y-64500003D01*
X85805565Y-64499996D01*
X85785369Y-64320750D01*
X85785368Y-64320745D01*
X85725788Y-64150476D01*
X85634921Y-64005863D01*
X85629816Y-63997738D01*
X85502262Y-63870184D01*
X85349523Y-63774211D01*
X85179254Y-63714631D01*
X85179249Y-63714630D01*
X85000004Y-63694435D01*
X84999996Y-63694435D01*
X84820750Y-63714630D01*
X84820745Y-63714631D01*
X84650476Y-63774211D01*
X84497737Y-63870184D01*
X84395544Y-63972378D01*
X84334221Y-64005863D01*
X84264529Y-64000879D01*
X84208596Y-63959007D01*
X84184179Y-63893543D01*
X84183863Y-63884697D01*
X84183863Y-61750003D01*
X85944435Y-61750003D01*
X85964630Y-61929249D01*
X85964631Y-61929254D01*
X86024211Y-62099523D01*
X86052007Y-62143759D01*
X86120184Y-62252262D01*
X86247738Y-62379816D01*
X86400478Y-62475789D01*
X86570745Y-62535368D01*
X86570750Y-62535369D01*
X86749996Y-62555565D01*
X86750000Y-62555565D01*
X86750004Y-62555565D01*
X86929249Y-62535369D01*
X86929252Y-62535368D01*
X86929255Y-62535368D01*
X87099522Y-62475789D01*
X87252262Y-62379816D01*
X87379816Y-62252262D01*
X87475789Y-62099522D01*
X87535368Y-61929255D01*
X87535369Y-61929249D01*
X87555565Y-61750003D01*
X87555565Y-61749996D01*
X87535369Y-61570750D01*
X87535368Y-61570745D01*
X87475788Y-61400476D01*
X87379815Y-61247737D01*
X87252262Y-61120184D01*
X87099523Y-61024211D01*
X86929254Y-60964631D01*
X86929249Y-60964630D01*
X86750004Y-60944435D01*
X86749996Y-60944435D01*
X86570750Y-60964630D01*
X86570745Y-60964631D01*
X86400476Y-61024211D01*
X86247737Y-61120184D01*
X86120184Y-61247737D01*
X86024211Y-61400476D01*
X85964631Y-61570745D01*
X85964630Y-61570750D01*
X85944435Y-61749996D01*
X85944435Y-61750003D01*
X84183863Y-61750003D01*
X84183863Y-60021316D01*
X91632563Y-60021316D01*
X91652758Y-60200562D01*
X91652759Y-60200567D01*
X91712339Y-60370836D01*
X91785344Y-60487022D01*
X91808312Y-60523575D01*
X91935866Y-60651129D01*
X92088606Y-60747102D01*
X92258873Y-60806681D01*
X92258878Y-60806682D01*
X92438124Y-60826878D01*
X92438128Y-60826878D01*
X92438132Y-60826878D01*
X92617377Y-60806682D01*
X92617380Y-60806681D01*
X92617383Y-60806681D01*
X92787650Y-60747102D01*
X92940390Y-60651129D01*
X93067944Y-60523575D01*
X93163917Y-60370835D01*
X93223496Y-60200568D01*
X93230602Y-60137503D01*
X98244436Y-60137503D01*
X98264631Y-60316749D01*
X98264632Y-60316754D01*
X98324212Y-60487023D01*
X98420185Y-60639762D01*
X98547739Y-60767316D01*
X98700479Y-60863289D01*
X98870746Y-60922868D01*
X98870751Y-60922869D01*
X99049997Y-60943065D01*
X99050001Y-60943065D01*
X99050005Y-60943065D01*
X99229250Y-60922869D01*
X99229253Y-60922868D01*
X99229256Y-60922868D01*
X99399523Y-60863289D01*
X99552263Y-60767316D01*
X99679817Y-60639762D01*
X99775790Y-60487022D01*
X99835369Y-60316755D01*
X99855566Y-60137500D01*
X99842475Y-60021316D01*
X99835370Y-59958250D01*
X99835369Y-59958245D01*
X99775789Y-59787976D01*
X99702785Y-59671791D01*
X99679817Y-59635238D01*
X99552263Y-59507684D01*
X99484867Y-59465336D01*
X99399524Y-59411711D01*
X99229255Y-59352131D01*
X99229250Y-59352130D01*
X99050005Y-59331935D01*
X99049997Y-59331935D01*
X98870751Y-59352130D01*
X98870746Y-59352131D01*
X98700477Y-59411711D01*
X98547738Y-59507684D01*
X98420185Y-59635237D01*
X98324212Y-59787976D01*
X98264632Y-59958245D01*
X98264631Y-59958250D01*
X98244436Y-60137496D01*
X98244436Y-60137503D01*
X93230602Y-60137503D01*
X93230602Y-60137500D01*
X93243693Y-60021316D01*
X93243693Y-60021309D01*
X93223497Y-59842063D01*
X93223496Y-59842058D01*
X93163917Y-59671791D01*
X93067944Y-59519051D01*
X92940390Y-59391497D01*
X92877741Y-59352132D01*
X92787651Y-59295524D01*
X92617382Y-59235944D01*
X92617377Y-59235943D01*
X92438132Y-59215748D01*
X92438124Y-59215748D01*
X92258878Y-59235943D01*
X92258873Y-59235944D01*
X92088604Y-59295524D01*
X91935865Y-59391497D01*
X91808312Y-59519050D01*
X91712339Y-59671789D01*
X91652759Y-59842058D01*
X91652758Y-59842063D01*
X91632563Y-60021309D01*
X91632563Y-60021316D01*
X84183863Y-60021316D01*
X84183863Y-53741733D01*
X84203548Y-53674694D01*
X84220178Y-53654056D01*
X84987416Y-52886817D01*
X85048739Y-52853333D01*
X85075097Y-52850499D01*
X86422871Y-52850499D01*
X86422872Y-52850499D01*
X86482483Y-52844091D01*
X86617331Y-52793796D01*
X86732546Y-52707546D01*
X86818796Y-52592331D01*
X86869091Y-52457483D01*
X86874156Y-52410370D01*
X89657833Y-52410370D01*
X89657834Y-52410376D01*
X89664241Y-52469983D01*
X89714535Y-52604828D01*
X89714539Y-52604835D01*
X89800785Y-52720044D01*
X89800788Y-52720047D01*
X89915997Y-52806293D01*
X89916004Y-52806297D01*
X90050850Y-52856591D01*
X90050849Y-52856591D01*
X90057777Y-52857335D01*
X90110460Y-52863000D01*
X91906205Y-52862999D01*
X91965816Y-52856591D01*
X92100664Y-52806296D01*
X92215879Y-52720046D01*
X92302129Y-52604831D01*
X92352424Y-52469983D01*
X92358833Y-52410373D01*
X92358832Y-50614628D01*
X92352424Y-50555017D01*
X92347761Y-50542516D01*
X92302130Y-50420171D01*
X92302126Y-50420164D01*
X92215880Y-50304955D01*
X92215877Y-50304952D01*
X92100668Y-50218706D01*
X92100661Y-50218702D01*
X91965815Y-50168408D01*
X91965816Y-50168408D01*
X91906216Y-50162001D01*
X91906214Y-50162000D01*
X91906206Y-50162000D01*
X91906197Y-50162000D01*
X90110462Y-50162000D01*
X90110456Y-50162001D01*
X90050849Y-50168408D01*
X89916004Y-50218702D01*
X89915997Y-50218706D01*
X89800788Y-50304952D01*
X89800785Y-50304955D01*
X89714539Y-50420164D01*
X89714535Y-50420171D01*
X89664241Y-50555017D01*
X89658913Y-50604581D01*
X89657834Y-50614623D01*
X89657833Y-50614635D01*
X89657833Y-52410370D01*
X86874156Y-52410370D01*
X86875500Y-52397873D01*
X86875499Y-50602128D01*
X86869091Y-50542517D01*
X86867810Y-50539083D01*
X86818797Y-50407671D01*
X86818793Y-50407664D01*
X86732547Y-50292455D01*
X86732544Y-50292452D01*
X86617335Y-50206206D01*
X86617328Y-50206202D01*
X86482482Y-50155908D01*
X86482483Y-50155908D01*
X86422883Y-50149501D01*
X86422881Y-50149500D01*
X86422873Y-50149500D01*
X86422864Y-50149500D01*
X84627129Y-50149500D01*
X84627123Y-50149501D01*
X84567516Y-50155908D01*
X84432671Y-50206202D01*
X84432664Y-50206206D01*
X84317455Y-50292452D01*
X84317452Y-50292455D01*
X84231206Y-50407664D01*
X84231203Y-50407669D01*
X84182189Y-50539083D01*
X84140317Y-50595016D01*
X84074853Y-50619433D01*
X84006580Y-50604581D01*
X83978326Y-50583430D01*
X83856402Y-50461506D01*
X83856395Y-50461501D01*
X83662834Y-50325967D01*
X83662830Y-50325965D01*
X83617772Y-50304954D01*
X83448663Y-50226097D01*
X83448659Y-50226096D01*
X83448655Y-50226094D01*
X83220413Y-50164938D01*
X83220403Y-50164936D01*
X82985001Y-50144341D01*
X82984999Y-50144341D01*
X82749596Y-50164936D01*
X82749586Y-50164938D01*
X82521344Y-50226094D01*
X82521335Y-50226098D01*
X82307171Y-50325964D01*
X82307169Y-50325965D01*
X82113597Y-50461505D01*
X81946505Y-50628597D01*
X81810965Y-50822169D01*
X81810964Y-50822171D01*
X81711098Y-51036335D01*
X81711094Y-51036344D01*
X81649938Y-51264586D01*
X81649936Y-51264596D01*
X81629341Y-51499999D01*
X81629341Y-51500000D01*
X81649936Y-51735403D01*
X81649938Y-51735413D01*
X81684327Y-51863756D01*
X81682664Y-51933606D01*
X81652233Y-51983530D01*
X81381286Y-52254478D01*
X81269481Y-52366282D01*
X81269479Y-52366284D01*
X81244024Y-52410376D01*
X81229592Y-52435373D01*
X81216827Y-52457482D01*
X81190423Y-52503214D01*
X81190423Y-52503215D01*
X81149499Y-52655943D01*
X81149499Y-52655945D01*
X81149499Y-52824046D01*
X81149500Y-52824059D01*
X81149500Y-68199902D01*
X81129815Y-68266941D01*
X81113181Y-68287583D01*
X79231465Y-70169298D01*
X79170142Y-70202783D01*
X79157668Y-70204837D01*
X79070750Y-70214630D01*
X78900478Y-70274210D01*
X78747737Y-70370184D01*
X78620184Y-70497737D01*
X78524211Y-70650476D01*
X78464631Y-70820745D01*
X78464630Y-70820750D01*
X78444435Y-70999996D01*
X78444435Y-71000003D01*
X74000500Y-71000003D01*
X74000500Y-70748625D01*
X74020185Y-70681586D01*
X74036814Y-70660948D01*
X75108506Y-69589256D01*
X75108511Y-69589253D01*
X75118714Y-69579049D01*
X75118716Y-69579049D01*
X75230520Y-69467245D01*
X75290881Y-69362696D01*
X75309577Y-69330314D01*
X75350500Y-69177587D01*
X75350500Y-69019472D01*
X75350500Y-57550096D01*
X75370185Y-57483057D01*
X75386815Y-57462419D01*
X76207495Y-56641738D01*
X76268816Y-56608255D01*
X76338507Y-56613239D01*
X76382855Y-56641740D01*
X76433537Y-56692422D01*
X76551063Y-56760276D01*
X76682146Y-56795400D01*
X76682149Y-56795400D01*
X76817851Y-56795400D01*
X76817854Y-56795400D01*
X76948937Y-56760276D01*
X77066463Y-56692422D01*
X77162422Y-56596463D01*
X77215574Y-56504400D01*
X77266140Y-56456187D01*
X77334747Y-56442963D01*
X77388933Y-56461409D01*
X77475475Y-56515788D01*
X77645745Y-56575368D01*
X77645750Y-56575369D01*
X77824996Y-56595565D01*
X77825000Y-56595565D01*
X77825004Y-56595565D01*
X78004249Y-56575369D01*
X78004252Y-56575368D01*
X78004255Y-56575368D01*
X78174522Y-56515789D01*
X78327262Y-56419816D01*
X78454816Y-56292262D01*
X78550789Y-56139522D01*
X78610368Y-55969255D01*
X78630565Y-55790000D01*
X78610368Y-55610745D01*
X78550789Y-55440478D01*
X78454816Y-55287738D01*
X78454814Y-55287736D01*
X78454813Y-55287734D01*
X78452550Y-55284896D01*
X78451659Y-55282715D01*
X78451111Y-55281842D01*
X78451264Y-55281745D01*
X78426144Y-55220209D01*
X78425500Y-55207587D01*
X78425500Y-51572412D01*
X78445185Y-51505373D01*
X78452555Y-51495097D01*
X78454810Y-51492267D01*
X78454816Y-51492262D01*
X78550789Y-51339522D01*
X78610368Y-51169255D01*
X78610368Y-51169252D01*
X78610369Y-51169249D01*
X78630565Y-50990003D01*
X78630565Y-50989996D01*
X78610369Y-50810750D01*
X78610368Y-50810745D01*
X78585762Y-50740426D01*
X78550789Y-50640478D01*
X78534546Y-50614628D01*
X78454815Y-50487737D01*
X78327262Y-50360184D01*
X78174523Y-50264211D01*
X78004254Y-50204631D01*
X78004249Y-50204630D01*
X77825004Y-50184435D01*
X77824996Y-50184435D01*
X77645750Y-50204630D01*
X77645745Y-50204631D01*
X77475476Y-50264211D01*
X77388932Y-50318591D01*
X77321695Y-50337591D01*
X77254860Y-50317223D01*
X77215573Y-50275597D01*
X77208999Y-50264211D01*
X77162422Y-50183537D01*
X77066463Y-50087578D01*
X76948937Y-50019724D01*
X76817854Y-49984600D01*
X76682146Y-49984600D01*
X76551063Y-50019724D01*
X76551061Y-50019724D01*
X76551061Y-50019725D01*
X76433537Y-50087578D01*
X76433534Y-50087580D01*
X76337580Y-50183534D01*
X76337578Y-50183537D01*
X76274696Y-50292452D01*
X76269724Y-50301063D01*
X76234600Y-50432146D01*
X76234600Y-50567854D01*
X76269724Y-50698937D01*
X76337578Y-50816463D01*
X76433537Y-50912422D01*
X76551063Y-50980276D01*
X76682146Y-51015400D01*
X76682149Y-51015400D01*
X76817852Y-51015400D01*
X76817854Y-51015400D01*
X76877125Y-50999518D01*
X76946971Y-51001179D01*
X77004834Y-51040341D01*
X77032340Y-51104569D01*
X77032437Y-51105407D01*
X77039631Y-51169251D01*
X77039631Y-51169254D01*
X77099211Y-51339523D01*
X77137849Y-51401014D01*
X77184336Y-51474998D01*
X77195185Y-51492263D01*
X77197445Y-51495097D01*
X77198334Y-51497275D01*
X77198889Y-51498158D01*
X77198734Y-51498255D01*
X77223855Y-51559783D01*
X77224500Y-51572412D01*
X77224500Y-54765501D01*
X77204815Y-54832540D01*
X77152011Y-54878295D01*
X77100500Y-54889501D01*
X76430939Y-54889501D01*
X76390018Y-54900465D01*
X76390018Y-54900466D01*
X76352750Y-54910452D01*
X76278213Y-54930424D01*
X76278208Y-54930427D01*
X76141289Y-55009476D01*
X76141281Y-55009482D01*
X74269481Y-56881282D01*
X74269479Y-56881285D01*
X74219361Y-56968094D01*
X74219359Y-56968096D01*
X74190425Y-57018209D01*
X74190424Y-57018210D01*
X74190423Y-57018215D01*
X74149499Y-57170943D01*
X74149499Y-57170945D01*
X74149499Y-57339046D01*
X74149500Y-57339059D01*
X74149500Y-68798431D01*
X74129815Y-68865470D01*
X74113181Y-68886112D01*
X72919481Y-70079811D01*
X72919477Y-70079816D01*
X72881021Y-70146426D01*
X72881021Y-70146427D01*
X72840423Y-70216743D01*
X72840423Y-70216744D01*
X72799499Y-70369472D01*
X72799499Y-70369474D01*
X72799499Y-70537575D01*
X72799500Y-70537588D01*
X72799500Y-72335488D01*
X72799499Y-72335506D01*
X72799499Y-72501219D01*
X71000500Y-72501219D01*
X71000500Y-44504427D01*
X71000816Y-44495581D01*
X71015130Y-44295443D01*
X71015131Y-44295442D01*
X71015130Y-44295436D01*
X71017646Y-44277938D01*
X71059356Y-44086199D01*
X71064333Y-44069248D01*
X71132911Y-43885385D01*
X71140259Y-43869298D01*
X71202815Y-43754734D01*
X71234291Y-43697089D01*
X71243845Y-43682221D01*
X71361448Y-43525123D01*
X71373020Y-43511769D01*
X71511769Y-43373020D01*
X71525123Y-43361448D01*
X71682221Y-43243845D01*
X71697089Y-43234291D01*
X71869298Y-43140258D01*
X71885385Y-43132911D01*
X72069248Y-43064333D01*
X72086199Y-43059356D01*
X72277938Y-43017646D01*
X72295436Y-43015130D01*
X72495582Y-43000816D01*
X72504428Y-43000500D01*
X72565892Y-43000500D01*
X116934108Y-43000500D01*
X116995572Y-43000500D01*
X117004418Y-43000816D01*
G37*
%TD.AperFunction*%
%TA.AperFunction,Conductor*%
G36*
X101768152Y-50701212D02*
G01*
X101789424Y-50704963D01*
X101911294Y-50737616D01*
X101931603Y-50745008D01*
X102045950Y-50798329D01*
X102064661Y-50809131D01*
X102083281Y-50822169D01*
X102168005Y-50881493D01*
X102184562Y-50895386D01*
X102273775Y-50984597D01*
X102287670Y-51001156D01*
X102360028Y-51104495D01*
X102370835Y-51123213D01*
X102424153Y-51237553D01*
X102431546Y-51257865D01*
X102464199Y-51379731D01*
X102467952Y-51401014D01*
X102474426Y-51474996D01*
X102474426Y-51474998D01*
X102477084Y-51505373D01*
X102478281Y-51519059D01*
X102478827Y-51525309D01*
X102478949Y-51526696D01*
X102478948Y-51548304D01*
X102467952Y-51673982D01*
X102464199Y-51695267D01*
X102431545Y-51817134D01*
X102424152Y-51837445D01*
X102370837Y-51951780D01*
X102360030Y-51970499D01*
X102287667Y-52073845D01*
X102273773Y-52090403D01*
X102184569Y-52179607D01*
X102168011Y-52193501D01*
X102064665Y-52265864D01*
X102045946Y-52276671D01*
X101931611Y-52329986D01*
X101911300Y-52337379D01*
X101789433Y-52370033D01*
X101768148Y-52373786D01*
X101642473Y-52384782D01*
X101620857Y-52384782D01*
X101495182Y-52373786D01*
X101473897Y-52370033D01*
X101352030Y-52337379D01*
X101331719Y-52329986D01*
X101217384Y-52276671D01*
X101198665Y-52265864D01*
X101095319Y-52193501D01*
X101078761Y-52179607D01*
X100989559Y-52090405D01*
X100975665Y-52073848D01*
X100903301Y-51970502D01*
X100892494Y-51951782D01*
X100839178Y-51837445D01*
X100831785Y-51817135D01*
X100809888Y-51735413D01*
X100799130Y-51695266D01*
X100795379Y-51673987D01*
X100795379Y-51673982D01*
X100784382Y-51548297D01*
X100784382Y-51526695D01*
X100795378Y-51401009D01*
X100799128Y-51379742D01*
X100831785Y-51257860D01*
X100839172Y-51237564D01*
X100892498Y-51123206D01*
X100903296Y-51104503D01*
X100975668Y-51001143D01*
X100989554Y-50984597D01*
X101078765Y-50895386D01*
X101095308Y-50881504D01*
X101198671Y-50809129D01*
X101217374Y-50798331D01*
X101331723Y-50745010D01*
X101352023Y-50737620D01*
X101473893Y-50704965D01*
X101495172Y-50701213D01*
X101620866Y-50690216D01*
X101642468Y-50690216D01*
X101768152Y-50701212D01*
G37*
%TD.AperFunction*%
%TD*%
%TA.AperFunction,Conductor*%
%TO.N,Net-(L1-Pad1)*%
G36*
X107015677Y-58019685D02*
G01*
X107036319Y-58036319D01*
X107213681Y-58213681D01*
X107247166Y-58275004D01*
X107250000Y-58301362D01*
X107250000Y-62500000D01*
X107750001Y-63250002D01*
X107750004Y-63250005D01*
X108249999Y-63749999D01*
X108250000Y-63750000D01*
X116698638Y-63750000D01*
X116765677Y-63769685D01*
X116786319Y-63786319D01*
X117963681Y-64963681D01*
X117997166Y-65025004D01*
X118000000Y-65051362D01*
X118000000Y-67192968D01*
X117980315Y-67260007D01*
X117956698Y-67287116D01*
X116284827Y-68720148D01*
X116221116Y-68748831D01*
X116204129Y-68750000D01*
X109291333Y-68750000D01*
X109224294Y-68730315D01*
X109216933Y-68725200D01*
X108254127Y-68003095D01*
X108246146Y-67996574D01*
X106041619Y-66036994D01*
X106004591Y-65977743D01*
X106000000Y-65944315D01*
X106000000Y-64249999D01*
X105513091Y-63276181D01*
X105500000Y-63220727D01*
X105500000Y-62000000D01*
X105286319Y-61786319D01*
X105252834Y-61724996D01*
X105250000Y-61698638D01*
X105250000Y-58301362D01*
X105269685Y-58234323D01*
X105286319Y-58213681D01*
X105463681Y-58036319D01*
X105525004Y-58002834D01*
X105551362Y-58000000D01*
X106948638Y-58000000D01*
X107015677Y-58019685D01*
G37*
%TD.AperFunction*%
%TD*%
%TA.AperFunction,Conductor*%
%TO.N,VDD*%
G36*
X111015677Y-49019685D02*
G01*
X111036319Y-49036319D01*
X111963681Y-49963681D01*
X111997166Y-50025004D01*
X112000000Y-50051362D01*
X112000000Y-54938942D01*
X111980315Y-55005981D01*
X111951604Y-55037227D01*
X108783430Y-57474285D01*
X108718291Y-57499558D01*
X108707826Y-57500000D01*
X104999999Y-57500000D01*
X104500000Y-57999999D01*
X104500000Y-58448638D01*
X104480315Y-58515677D01*
X104463681Y-58536319D01*
X104036319Y-58963681D01*
X103974996Y-58997166D01*
X103948638Y-59000000D01*
X101051362Y-59000000D01*
X100984323Y-58980315D01*
X100963681Y-58963681D01*
X100536319Y-58536319D01*
X100502834Y-58474996D01*
X100500000Y-58448638D01*
X100500000Y-56500000D01*
X97036319Y-53036319D01*
X97002834Y-52974996D01*
X97000000Y-52948638D01*
X97000000Y-51537500D01*
X100276007Y-51537500D01*
X100296602Y-51772903D01*
X100296604Y-51772913D01*
X100357760Y-52001155D01*
X100357762Y-52001159D01*
X100357763Y-52001163D01*
X100428487Y-52152830D01*
X100457631Y-52215330D01*
X100457633Y-52215334D01*
X100549404Y-52346395D01*
X100593171Y-52408901D01*
X100760265Y-52575995D01*
X100857050Y-52643765D01*
X100953831Y-52711532D01*
X100953833Y-52711533D01*
X100953836Y-52711535D01*
X101168003Y-52811403D01*
X101396258Y-52872563D01*
X101584584Y-52889039D01*
X101631665Y-52893159D01*
X101631666Y-52893159D01*
X101631667Y-52893159D01*
X101670900Y-52889726D01*
X101867074Y-52872563D01*
X102095329Y-52811403D01*
X102309496Y-52711535D01*
X102503067Y-52575995D01*
X102670161Y-52408901D01*
X102805701Y-52215330D01*
X102905569Y-52001163D01*
X102966729Y-51772908D01*
X102987325Y-51537500D01*
X102981857Y-51475000D01*
X105729340Y-51475000D01*
X105749935Y-51710403D01*
X105749937Y-51710413D01*
X105811093Y-51938655D01*
X105811095Y-51938659D01*
X105811096Y-51938663D01*
X105840241Y-52001164D01*
X105910964Y-52152830D01*
X105910966Y-52152834D01*
X106019280Y-52307521D01*
X106046504Y-52346401D01*
X106213598Y-52513495D01*
X106310383Y-52581265D01*
X106407164Y-52649032D01*
X106407166Y-52649033D01*
X106407169Y-52649035D01*
X106621336Y-52748903D01*
X106849591Y-52810063D01*
X107037917Y-52826539D01*
X107084998Y-52830659D01*
X107084999Y-52830659D01*
X107085000Y-52830659D01*
X107124233Y-52827226D01*
X107320407Y-52810063D01*
X107548662Y-52748903D01*
X107762829Y-52649035D01*
X107956400Y-52513495D01*
X108123494Y-52346401D01*
X108259034Y-52152830D01*
X108358902Y-51938663D01*
X108420062Y-51710408D01*
X108440658Y-51475000D01*
X108420062Y-51239592D01*
X108358902Y-51011337D01*
X108259034Y-50797171D01*
X108167256Y-50666097D01*
X108123493Y-50603597D01*
X107956401Y-50436506D01*
X107956394Y-50436501D01*
X107762833Y-50300967D01*
X107762829Y-50300965D01*
X107682693Y-50263597D01*
X107548662Y-50201097D01*
X107548658Y-50201096D01*
X107548654Y-50201094D01*
X107320412Y-50139938D01*
X107320402Y-50139936D01*
X107085000Y-50119341D01*
X107084998Y-50119341D01*
X106849595Y-50139936D01*
X106849585Y-50139938D01*
X106621343Y-50201094D01*
X106621334Y-50201098D01*
X106407170Y-50300964D01*
X106407168Y-50300965D01*
X106213596Y-50436505D01*
X106046504Y-50603597D01*
X105910964Y-50797169D01*
X105910963Y-50797171D01*
X105811097Y-51011335D01*
X105811093Y-51011344D01*
X105749937Y-51239586D01*
X105749935Y-51239596D01*
X105729340Y-51474999D01*
X105729340Y-51475000D01*
X102981857Y-51475000D01*
X102966729Y-51302092D01*
X102905569Y-51073837D01*
X102805701Y-50859671D01*
X102761939Y-50797171D01*
X102670160Y-50666097D01*
X102503068Y-50499006D01*
X102503061Y-50499001D01*
X102309500Y-50363467D01*
X102309496Y-50363465D01*
X102309494Y-50363464D01*
X102095329Y-50263597D01*
X102095325Y-50263596D01*
X102095321Y-50263594D01*
X101867079Y-50202438D01*
X101867069Y-50202436D01*
X101631667Y-50181841D01*
X101631665Y-50181841D01*
X101396262Y-50202436D01*
X101396252Y-50202438D01*
X101168010Y-50263594D01*
X101168001Y-50263598D01*
X100953837Y-50363464D01*
X100953835Y-50363465D01*
X100760263Y-50499005D01*
X100593171Y-50666097D01*
X100457631Y-50859669D01*
X100457630Y-50859671D01*
X100357764Y-51073835D01*
X100357760Y-51073844D01*
X100296604Y-51302086D01*
X100296602Y-51302096D01*
X100276007Y-51537499D01*
X100276007Y-51537500D01*
X97000000Y-51537500D01*
X97000000Y-50051362D01*
X97019685Y-49984323D01*
X97036319Y-49963681D01*
X97963681Y-49036319D01*
X98025004Y-49002834D01*
X98051362Y-49000000D01*
X110948638Y-49000000D01*
X111015677Y-49019685D01*
G37*
%TD.AperFunction*%
%TD*%
M02*
