M48
; DRILL file {KiCad 8.0.1} date 2024-06-13T11:44:11+1000
; FORMAT={-:-/ absolute / metric / decimal}
; #@! TF.CreationDate,2024-06-13T11:44:11+10:00
; #@! TF.GenerationSoftware,Kicad,Pcbnew,8.0.1
; #@! TF.FileFunction,Plated,1,4,PTH
FMAT,2
METRIC
; #@! TA.AperFunction,Plated,PTH,ViaDrill
T1C0.300
; #@! TA.AperFunction,Plated,PTH,ComponentDrill
T2C0.600
; #@! TA.AperFunction,Plated,PTH,ComponentDrill
T3C1.000
; #@! TA.AperFunction,Plated,PTH,ViaDrill
T4C3.000
%
G90
G05
T1
X72.0Y-50.75
X72.0Y-53.75
X72.0Y-71.25
X72.25Y-62.5
X72.25Y-66.25
X73.624Y-72.646
X73.75Y-52.0
X74.0Y-69.0
X74.25Y-76.25
X74.5Y-49.0
X75.25Y-53.5
X76.0Y-58.0
X76.25Y-64.25
X76.5Y-44.0
X76.5Y-82.0
X77.0Y-69.5
X77.0Y-74.0
X77.825Y-50.99
X77.825Y-55.79
X78.25Y-74.75
X78.5Y-49.0
X79.25Y-71.0
X79.551Y-78.301
X80.0Y-48.5
X80.0Y-58.0
X80.25Y-64.25
X80.25Y-65.5
X80.333Y-72.185
X80.449Y-77.403
X82.0Y-45.0
X82.25Y-74.0
X82.923Y-79.829
X83.75Y-78.0
X84.25Y-58.0
X84.25Y-66.25
X85.0Y-64.5
X85.0Y-72.0
X85.25Y-74.5
X85.875Y-77.0
X86.048Y-70.952
X86.75Y-61.75
X86.875Y-77.0
X87.125Y-80.0
X87.5Y-66.0
X88.0Y-48.5
X88.125Y-75.0
X88.125Y-77.0
X88.625Y-74.0
X88.65Y-80.0
X89.0Y-67.5
X89.125Y-77.0
X89.15Y-76.05
X89.5Y-57.5
X89.5Y-65.0
X89.5Y-71.5
X90.75Y-57.5
X91.25Y-71.75
X91.5Y-81.75
X92.0Y-65.0
X92.0Y-67.0
X92.202Y-74.952
X92.438Y-60.021
X93.0Y-66.0
X93.093Y-72.53
X94.5Y-68.75
X95.0Y-58.25
X95.75Y-57.5
X96.0Y-48.5
X96.5Y-56.25
X96.75Y-80.75
X97.0Y-76.2
X97.407Y-71.47
X98.0Y-73.75
X99.0Y-56.25
X99.05Y-60.137
X100.5Y-61.5
X100.95Y-57.862
X101.25Y-73.5
X101.5Y-62.5
X102.5Y-63.5
X102.75Y-60.0
X103.0Y-74.5
X103.0Y-81.0
X103.5Y-60.75
X103.5Y-63.5
X104.25Y-60.0
X104.25Y-61.5
X104.5Y-72.5
X104.5Y-73.75
X106.0Y-58.75
X106.0Y-60.0
X106.0Y-61.25
X106.5Y-68.75
X106.5Y-70.25
X106.5Y-71.5
X106.5Y-73.0
X107.575Y-76.0
X108.75Y-75.75
X109.75Y-65.5
X109.75Y-66.75
X110.5Y-45.0
X110.5Y-81.0
X110.75Y-75.75
X111.75Y-65.5
X111.75Y-66.75
X113.75Y-65.5
X113.75Y-66.75
X115.5Y-60.0
X115.75Y-65.5
X115.75Y-66.75
X117.0Y-58.0
X117.0Y-62.5
X117.25Y-48.5
X118.0Y-68.75
X118.0Y-74.75
T3
X82.985Y-51.5
X85.525Y-51.5
X91.008Y-51.512
X93.548Y-51.512
X99.092Y-51.537
X101.632Y-51.537
X107.085Y-51.475
X109.625Y-51.475
T4
X73.25Y-45.5
X73.25Y-80.0
X116.25Y-45.5
X116.25Y-80.0
T2
G00X73.47Y-49.07
M15
G01X72.67Y-49.07
M16
G05
G00X73.47Y-57.71
M15
G01X72.67Y-57.71
M16
G05
G00X77.8Y-49.07
M15
G01X76.7Y-49.07
M16
G05
G00X77.8Y-57.71
M15
G01X76.7Y-57.71
M16
G05
M30
